<?xml version="1.0" encoding="UTF-8" standalone="no"?>
<svg
   version="1.1"
   width="64"
   height="53.222"
   viewBox="0 0 63.999999 53.221999"
   xml:space="preserve"
   id="svg218"
   sodipodi:docname="bush_particle_1.svg"
   inkscape:version="1.3 (0e150ed6c4, 2023-07-21)"
   inkscape:export-filename="bush_particle_1.svg"
   inkscape:export-xdpi="96"
   inkscape:export-ydpi="96"
   xmlns:inkscape="http://www.inkscape.org/namespaces/inkscape"
   xmlns:sodipodi="http://sodipodi.sourceforge.net/DTD/sodipodi-0.dtd"
   xmlns="http://www.w3.org/2000/svg"
   xmlns:svg="http://www.w3.org/2000/svg"><sodipodi:namedview
   id="namedview220"
   pagecolor="#505050"
   bordercolor="#eeeeee"
   borderopacity="1"
   inkscape:showpageshadow="0"
   inkscape:pageopacity="0"
   inkscape:pagecheckerboard="true"
   inkscape:deskcolor="#505050"
   showgrid="false"
   inkscape:zoom="5.12"
   inkscape:cx="31.054687"
   inkscape:cy="48.4375"
   inkscape:window-width="1350"
   inkscape:window-height="852"
   inkscape:window-x="1106"
   inkscape:window-y="474"
   inkscape:window-maximized="0"
   inkscape:current-layer="g7393"
   showguides="true"
   inkscape:pageshadow="0" />&#10;<desc
   id="desc181">Created with Fabric.js 5.3.0</desc>&#10;<defs
   id="defs183" />&#10;&#10;<g
   id="g7393"
   transform="matrix(3.3302396,0,0,3.3302396,15348.436,7445.2246)"
   inkscape:export-filename="bush_particle_01.svg"
   inkscape:export-xdpi="96"
   inkscape:export-ydpi="96"><path
     id="path542-2-2"
     style="fill:#ff6eb4;fill-opacity:0.77254903;stroke:#333333;stroke-width:0;stroke-linejoin:round;stroke-dasharray:none"
     d="m -4597.9889,-2219.6717 c -1.9493,-0.1549 -3.2823,-2.9232 -2.1731,-4.6062 1.9096,-2.8974 9.5119,-4.8491 10.4686,-2.2775 0.9567,2.5715 -4.9789,7.1474 -8.2955,6.8837 z"
     sodipodi:nodetypes="aaza" /><path
     id="path542-6"
     style="fill:#ff8fc5;fill-opacity:0.77254903;stroke:#333333;stroke-width:0;stroke-linejoin:round;stroke-dasharray:none"
     d="m -4597.0098,-2220.7057 c -2.5593,1.4279 -7.4275,-0.6805 -8.0456,-3.5454 -1.0641,-4.9319 8.0994,-12.4281 10.1023,-11.2717 2.0029,1.1564 2.2978,12.3876 -2.0567,14.8171 z"
     sodipodi:nodetypes="aaza" /><path
     id="path542-0-2"
     style="fill:#ffa4d0;fill-opacity:0.77254903;stroke:#333333;stroke-width:0;stroke-linejoin:round;stroke-dasharray:none"
     d="m -4600.8744,-2225.2533 c 0.2161,1.7921 -2.0103,3.3787 -3.7128,2.5993 -2.931,-1.3418 -5.0078,-8.6586 -3.9339,-9.2022 1.0739,-0.5437 7.279,3.5537 7.6467,6.6029 z"
     sodipodi:nodetypes="aaza" /></g></svg>
