<?xml version="1.0" encoding="UTF-8" standalone="no"?>
<svg
   width="69"
   height="112.78563"
   viewBox="0 0 69 112.78565"
   fill="none"
   version="1.1"
   id="svg52"
   sodipodi:docname="oak_tree_particle_fall.svg"
   inkscape:version="1.3 (0e150ed6c4, 2023-07-21)"
   xmlns:inkscape="http://www.inkscape.org/namespaces/inkscape"
   xmlns:sodipodi="http://sodipodi.sourceforge.net/DTD/sodipodi-0.dtd"
   xmlns="http://www.w3.org/2000/svg"
   xmlns:svg="http://www.w3.org/2000/svg"
   xmlns:rdf="http://www.w3.org/1999/02/22-rdf-syntax-ns#"
   xmlns:cc="http://creativecommons.org/ns#"
   xmlns:dc="http://purl.org/dc/elements/1.1/">
  <defs
     id="defs56" />
  <sodipodi:namedview
     id="namedview54"
     pagecolor="#505050"
     bordercolor="#ffffff"
     borderopacity="1"
     inkscape:pageshadow="0"
     inkscape:pageopacity="0"
     inkscape:pagecheckerboard="1"
     showgrid="false"
     inkscape:zoom="4.3372536"
     inkscape:cx="6.2251375"
     inkscape:cy="46.688531"
     inkscape:window-width="1920"
     inkscape:window-height="1094"
     inkscape:window-x="-11"
     inkscape:window-y="-11"
     inkscape:window-maximized="1"
     inkscape:current-layer="svg52"
     height="609.877px"
     inkscape:showpageshadow="2"
     inkscape:deskcolor="#505050" />
  <path
     d="M 26.26145,59.642717 22.965301,31.686122 43.067702,2.4992936 38.611819,43.432859 49.766674,89.617857 40.518229,110.2861 Z"
     fill="#6d4a2c"
     stroke="#1b1917"
     stroke-width="5.83269"
     stroke-miterlimit="16"
     stroke-linejoin="round"
     id="path4"
     style="fill:#4d3f36;fill-opacity:1;stroke:#29180d;stroke-width:5;stroke-dasharray:none;stroke-opacity:1"
     sodipodi:nodetypes="ccccccc" />
  <path
     d="m 68.997824,61.512263 c -5.051432,-7.36848 -21.324339,-18.049461 -24.917353,-6.67405 -2.575895,11.647942 16.856727,10.53503 24.916215,6.679748 L 69,61.519098 c 0,-0.0022 -0.0022,-0.0058 -0.0022,-0.0068 z"
     fill="#5f926a"
     id="path46"
     style="fill:#ff8fc5;fill-opacity:0.772549;stroke-width:1.14027" />
  <path
     d="m 60.855098,25.775946 -0.0044,0.008 C 49.867496,29.632384 30.943437,46.462886 44.079443,54.838229 57.900759,62.026541 63.013765,37.223212 60.856359,25.787365 l 0.0045,-0.008 c -0.0011,0.0011 -0.0033,0.0022 -0.0045,0.0022 0,-0.0022 -0.0011,-0.0033 -0.0011,-0.0058 z"
     fill="#587e60"
     id="path48"
     style="fill:#ff6eb4;fill-opacity:0.772549;stroke-width:1.14027" />
  <path
     d="M 16.375341,44.374268 C 23.627083,39.402865 34.138844,23.387767 22.943662,19.851675 11.480255,17.316592 12.57553,36.441345 16.369738,44.373148 l -0.0011,0.0033 c 0.0022,0 0.0057,-0.0022 0.0066,-0.0022 z"
     fill="#5f926a"
     id="path46-6"
     style="fill:#ff8fc5;fill-opacity:0.772549;stroke-width:1.12221" />
  <path
     d="M 8.3803665e-5,5.9588533 0.00795283,5.9632281 C 3.795414,16.772382 20.359281,35.396631 28.601935,22.468736 35.676359,8.8663878 11.265987,3.8343857 0.01131586,5.9576126 l -0.00786902,-0.00437 c 0.00108897,0.00109 0.00218742,0.00328 0.00218742,0.00437 -0.00218742,0 -0.00327639,0.00109 -0.00563426,0.00109 z"
     fill="#587e60"
     id="path48-7"
     style="fill:#ff6eb4;fill-opacity:0.772549;stroke-width:1.12221" />
  <path
     d="m 38.721157,34.850277 0.0011,0.0045 c -3.299957,6.517774 -4.410585,22.16239 5.357036,19.983318 9.549834,-2.996647 0.765127,-15.990116 -5.352465,-19.985652 l -0.0011,-0.0033 c 0.0011,-0.0011 0,0 0,0 -0.0011,-0.0011 -0.0033,0.0022 -0.0044,0.0011 z"
     fill="#77a37a"
     id="path50"
     style="fill:#ff8fc5;fill-opacity:0.772549;stroke-width:1.14027" />
  <metadata
     id="metadata3223">
    <rdf:RDF>
      <cc:Work
         rdf:about="">
        <dc:creator>
          <cc:Agent>
            <dc:title>Radians</dc:title>
          </cc:Agent>
        </dc:creator>
      </cc:Work>
    </rdf:RDF>
  </metadata>
</svg>
