<?xml version="1.0" encoding="UTF-8" standalone="no"?>
<!-- Created with Inkscape (http://www.inkscape.org/) -->

<svg
   width="34.105747mm"
   height="24.232668mm"
   viewBox="0 0 34.105747 24.232668"
   version="1.1"
   id="svg1"
   xml:space="preserve"
   inkscape:export-filename="kar98.svg"
   inkscape:export-xdpi="96"
   inkscape:export-ydpi="96"
   inkscape:version="1.3 (0e150ed, 2023-07-21)"
   sodipodi:docname="kar98.svg"
   xmlns:inkscape="http://www.inkscape.org/namespaces/inkscape"
   xmlns:sodipodi="http://sodipodi.sourceforge.net/DTD/sodipodi-0.dtd"
   xmlns="http://www.w3.org/2000/svg"
   xmlns:svg="http://www.w3.org/2000/svg"><sodipodi:namedview
     id="namedview1"
     pagecolor="#ffffff"
     bordercolor="#000000"
     borderopacity="0.25"
     inkscape:showpageshadow="2"
     inkscape:pageopacity="0.0"
     inkscape:pagecheckerboard="0"
     inkscape:deskcolor="#d1d1d1"
     inkscape:document-units="mm"
     inkscape:zoom="1"
     inkscape:cx="679.5"
     inkscape:cy="591.5"
     inkscape:window-width="2048"
     inkscape:window-height="1124"
     inkscape:window-x="0"
     inkscape:window-y="28"
     inkscape:window-maximized="0"
     inkscape:current-layer="layer1" /><defs
     id="defs1" /><g
     inkscape:label="Layer 1"
     inkscape:groupmode="layer"
     id="layer1"><g
       inkscape:label="Layer 1"
       id="layer1-9"
       transform="matrix(0.76547377,-0.03423728,0.03423728,0.76547377,52.599535,-163.25809)"><rect
         style="opacity:1;fill:#474747;fill-opacity:1;stroke:#333333;stroke-width:0.211515;stroke-linecap:round;stroke-linejoin:round;stroke-dasharray:none;stroke-opacity:1"
         id="rect16"
         width="2.4701192"
         height="0.093638502"
         x="-127.84689"
         y="177.66943"
         transform="rotate(-25.656259)" /><rect
         style="opacity:1;fill:#525252;fill-opacity:1;stroke:#333333;stroke-width:0.211515;stroke-linecap:round;stroke-linejoin:round;stroke-dasharray:none;stroke-opacity:1"
         id="rect15"
         width="2.0987942"
         height="0.61672258"
         x="-128.67938"
         y="177.24759"
         transform="rotate(-25.656259)" /><path
         style="opacity:1;fill:#44403b;fill-opacity:1;stroke:#373430;stroke-width:0.423098;stroke-linecap:round;stroke-linejoin:round;stroke-opacity:1"
         d="m -78.668873,236.48194 2.533501,4.48517 -0.450687,0.32995 -2.347247,-3.6639 c -0.22808,-0.28728 -0.31954,-0.82251 0.264433,-1.15122 z"
         id="path2"
         sodipodi:nodetypes="ccccc" /><rect
         style="opacity:1;fill:#474747;fill-opacity:1;stroke:#333333;stroke-width:0.423032;stroke-linecap:round;stroke-linejoin:round;stroke-dasharray:none;stroke-opacity:1"
         id="rect7"
         width="0.81996804"
         height="1.1334851"
         x="-124.11597"
         y="175.88084"
         transform="rotate(-25.656259)" /><rect
         style="opacity:1;fill:#474747;fill-opacity:1;stroke:#333333;stroke-width:0.423032;stroke-linecap:round;stroke-linejoin:round;stroke-dasharray:none;stroke-opacity:1"
         id="rect5"
         width="11.848381"
         height="0.71282786"
         x="-134.56558"
         y="176.49446"
         transform="rotate(-25.656259)" /><path
         style="opacity:1;fill:none;fill-opacity:1;stroke:#333333;stroke-width:0.423032;stroke-linecap:round;stroke-linejoin:round;stroke-dasharray:none;stroke-opacity:1"
         d="m -57.537992,226.27184 -5.746231,3.21426"
         id="path5"
         sodipodi:nodetypes="cc" /><path
         style="opacity:1;fill:none;fill-opacity:1;stroke:#333333;stroke-width:0.211515;stroke-linecap:round;stroke-linejoin:round;stroke-dasharray:none;stroke-opacity:1"
         d="m -64.770576,230.2466 c -0.02114,0.44517 0.03517,0.84398 0.538556,0.97576"
         id="path4"
         sodipodi:nodetypes="cc" /><path
         style="color:#000000;opacity:1;fill:#404040;fill-opacity:1;stroke:#333333;stroke-width:0.199857;stroke-linecap:round;stroke-linejoin:round;stroke-opacity:1;-inkscape-stroke:none"
         d="m -63.493129,229.1482 c -0.05773,0.009 -1.227033,0.81464 -1.218411,0.87237 0.808574,-0.26237 1.419925,0.0171 1.435257,0.34932 0.01537,0.33125 -0.09179,0.74364 -0.711915,1.20078 -0.267337,0.16035 -0.599141,0.24514 -0.880414,0.18234 -0.282875,-0.0632 -0.5964,-0.66581 -0.244598,-1.41839 -0.03324,-0.048 -0.871575,0.39259 -0.919855,0.42526 -0.04828,0.0327 -0.05996,0.0991 -0.02675,0.14711 0.426783,0.61809 0.801511,0.90647 1.160214,0.98652 0.358695,0.0801 0.675556,-0.0581 0.960568,-0.22972 0.0028,-0.002 0.0056,-0.004 0.0081,-0.006 0.655969,-0.48208 0.84221,-0.91375 0.823771,-1.31331 -0.01836,-0.39957 -0.212899,-0.7463 -0.266308,-1.10798 -0.0085,-0.0576 -0.06224,-0.0976 -0.119954,-0.0892 z"
         id="path3"
         sodipodi:nodetypes="ccscccccsccsscc" /><path
         style="opacity:1;fill:#834332;fill-opacity:1;stroke:#4a261c;stroke-width:0.423098;stroke-linecap:round;stroke-linejoin:round;stroke-opacity:1"
         d="m -78.728566,236.51437 2.571417,4.46897 6.529327,-6.59622 c 0.390515,-0.40833 0.890232,-0.63227 1.609106,-0.48595 0.967139,-1.72424 0.647428,-2.53452 4.204514,-4.42654 l 18.815672,-10.38956 6.069292,-2.92235 -0.404087,-0.89009 -24.960047,12.14249 c -2.131802,1.07016 -3.351703,2.53783 -4.681442,3.86971 -0.488051,0.49492 -1.443282,0.1768 -2.131276,0.52144 z"
         id="path1"
         sodipodi:nodetypes="cccccccccccc" /><rect
         style="opacity:1;fill:#4d4d4d;fill-opacity:1;stroke:#333333;stroke-width:0.211515;stroke-linecap:round;stroke-linejoin:round;stroke-dasharray:none;stroke-opacity:1"
         id="rect3"
         width="2.0277119"
         height="0.79760206"
         x="-130.67088"
         y="176.88533"
         transform="rotate(-25.656259)" /><path
         id="rect2"
         style="opacity:1;fill:#4d4d4d;fill-opacity:1;stroke:#333333;stroke-width:0.211515;stroke-linecap:round;stroke-linejoin:round;stroke-dasharray:none;stroke-opacity:1"
         d="m -40.377537,216.51545 0.210806,0.43887 -0.663338,0.31861 -0.769953,-1.60297 0.663335,-0.31863 0.211981,0.44134"
         sodipodi:nodetypes="cccccc" /><path
         d="m -39.846634,215.37326 -0.212898,-0.44324 0.663335,-0.31861 0.769953,1.60296 -0.663335,0.31863 -0.210806,-0.43886"
         style="opacity:1;fill:#4d4d4d;fill-opacity:1;stroke:#333333;stroke-width:0.211515;stroke-linecap:round;stroke-linejoin:round;stroke-dasharray:none;stroke-opacity:1"
         id="path1-9"
         sodipodi:nodetypes="cccccc" /><circle
         style="opacity:1;fill:#44403b;fill-opacity:1;stroke:#373430;stroke-width:0.211515;stroke-linecap:round;stroke-linejoin:round;stroke-dasharray:none;stroke-opacity:1"
         id="path8"
         cx="-168.39186"
         cy="180.59348"
         r="0.72475618"
         transform="rotate(-25.656259)" /><circle
         style="opacity:1;fill:#373430;fill-opacity:1;stroke:#373430;stroke-width:0.0899089;stroke-linecap:round;stroke-linejoin:round;stroke-dasharray:none;stroke-opacity:1"
         id="path8-5"
         cx="-168.39186"
         cy="180.59348"
         r="0.30807287"
         transform="rotate(-25.656259)" /><path
         style="opacity:1;fill:#834332;fill-opacity:1;stroke:#6f392a;stroke-width:0.211515;stroke-linecap:round;stroke-linejoin:round;stroke-dasharray:none;stroke-opacity:1"
         d="m -72.480275,233.99988 0.534048,1.11183 0.870717,-0.41822 c -0.02093,-0.4758 0.423589,-0.70868 0.925505,-0.93913 l -0.350669,-0.73006 z"
         id="path9"
         sodipodi:nodetypes="cccccc" /><rect
         style="opacity:1;fill:none;fill-opacity:1;stroke:#4a261c;stroke-width:0.211515;stroke-linecap:round;stroke-linejoin:round;stroke-dasharray:none;stroke-opacity:1"
         id="rect10"
         width="2.0359275"
         height="1.1145588"
         x="-158.48822"
         y="177.93985"
         ry="0.55727941"
         transform="rotate(-25.656259)" /><rect
         style="opacity:1;fill:#454545;fill-opacity:1;stroke:#333333;stroke-width:0.211515;stroke-linecap:round;stroke-linejoin:round;stroke-dasharray:none;stroke-opacity:1"
         id="rect11"
         width="0.3566592"
         height="1.4117745"
         x="-157.65871"
         y="176.8651"
         ry="0.11888628"
         transform="rotate(-25.656259)" /><rect
         style="opacity:1;fill:#474747;fill-opacity:1;stroke:#333333;stroke-width:0.211515;stroke-linecap:round;stroke-linejoin:round;stroke-dasharray:none;stroke-opacity:1"
         id="rect14"
         width="1.3523314"
         height="0.5424186"
         x="-159.14302"
         y="176.57529"
         ry="0.11888628"
         transform="rotate(-25.656259)" /><rect
         style="opacity:1;fill:#383838;fill-opacity:1;stroke:#333333;stroke-width:0.423032;stroke-linecap:round;stroke-linejoin:round;stroke-dasharray:none;stroke-opacity:1"
         id="rect12"
         width="3.7151964"
         height="0.6761657"
         x="-155.4147"
         y="176.5233"
         ry="0.11888628"
         transform="rotate(-25.656259)" /><rect
         style="opacity:1;fill:#474747;fill-opacity:1;stroke:#333333;stroke-width:0.423032;stroke-linecap:round;stroke-linejoin:round;stroke-dasharray:none;stroke-opacity:1"
         id="rect13"
         width="3.0687521"
         height="0.95852071"
         x="-158.52805"
         y="176.33752"
         ry="0.11888628"
         transform="rotate(-25.656259)" /><circle
         style="opacity:1;fill:#3b3b3b;fill-opacity:1;stroke:#333333;stroke-width:0.211515;stroke-linecap:round;stroke-linejoin:round;stroke-dasharray:none;stroke-opacity:1"
         id="path14"
         cx="-150.94904"
         cy="178.00195"
         r="0.21548142"
         transform="rotate(-25.656259)" /><path
         style="opacity:1;fill:#4d4d4d;fill-opacity:1;stroke:#333333;stroke-width:0.211515;stroke-linecap:round;stroke-linejoin:round;stroke-dasharray:none;stroke-opacity:1"
         d="m -56.407179,222.62419 -0.149633,-0.31152 3.042138,-1.49059 c 0.180786,-0.0869 0.177028,-0.21507 0.333161,-0.29006 0.229627,-0.11039 0.342185,0.0214 0.504134,0.35826 z"
         id="path16"
         sodipodi:nodetypes="cccccc" /><circle
         style="opacity:1;fill:#333333;fill-opacity:1;stroke:none;stroke-width:0.576859;stroke-linecap:round;stroke-linejoin:round;stroke-dasharray:none;stroke-opacity:1"
         id="path17"
         cx="-143.42091"
         cy="176.03931"
         r="0.06945572"
         transform="rotate(-25.656259)" /><rect
         style="opacity:1;fill:#474747;fill-opacity:1;stroke:#333333;stroke-width:0.423032;stroke-linecap:round;stroke-linejoin:round;stroke-dasharray:none;stroke-opacity:1"
         id="rect8"
         width="8.097065"
         height="0.56806105"
         x="-143.01732"
         y="176.50789"
         transform="rotate(-25.656259)" /><rect
         style="opacity:1;fill:#474747;fill-opacity:1;stroke:#333333;stroke-width:0.211515;stroke-linecap:round;stroke-linejoin:round;stroke-dasharray:none;stroke-opacity:1"
         id="rect6"
         width="0.98054123"
         height="2.0670226"
         x="-135.23376"
         y="176.17026"
         transform="rotate(-25.656259)" /><path
         style="opacity:1;fill:#424242;fill-opacity:1;stroke:#333333;stroke-width:0.423032;stroke-linecap:round;stroke-linejoin:round;stroke-dasharray:none;stroke-opacity:1"
         d="m -60.334912,224.46497 0.486855,1.01357 7.860234,-3.766 -0.416774,-0.83317 -0.485243,0.23307 -5.562875,2.67201 -0.09004,-0.18747 z"
         id="path13"
         sodipodi:nodetypes="cccccccc" /><circle
         style="opacity:1;fill:#454545;fill-opacity:1;stroke:#333333;stroke-width:0.211515;stroke-linecap:round;stroke-linejoin:round;stroke-dasharray:none;stroke-opacity:1"
         id="path10"
         cx="-157.48036"
         cy="178.47006"
         r="0.26749414"
         transform="rotate(-25.656259)" /></g></g></svg>
