<?xml version="1.0" encoding="UTF-8" standalone="no"?>
<svg
   version="1.1"
   width="79.114449"
   height="69.359467"
   id="svg27"
   sodipodi:docname="Loot-melee-karambit-drowned.svg"
   xml:space="preserve"
   inkscape:export-filename="..\Desktop\Spring-Mode\client\public\img\game\weapons\knife.svg"
   inkscape:export-xdpi="96"
   inkscape:export-ydpi="96"
   xmlns:inkscape="http://www.inkscape.org/namespaces/inkscape"
   xmlns:sodipodi="http://sodipodi.sourceforge.net/DTD/sodipodi-0.dtd"
   xmlns:xlink="http://www.w3.org/1999/xlink"
   xmlns="http://www.w3.org/2000/svg"
   xmlns:svg="http://www.w3.org/2000/svg"><defs
     id="defs27"><pattern
       inkscape:collect="always"
       xlink:href="#halftones"
       preserveAspectRatio="xMidYMid"
       id="pattern40"
       patternTransform="scale(0.212)"
       x="0"
       y="0" /><pattern
       patternUnits="userSpaceOnUse"
       width="10"
       height="10"
       preserveAspectRatio="xMidYMid"
       style="fill:#000000"
       id="halftones"
       x="0"
       y="0"
       inkscape:label="Halftones"
       inkscape:collect="always"
       inkscape:isstock="true"><g
         id="fullPattern"
         style="display:inline"
         transform="scale(0.1)"><circle
           style="fill-opacity:1;stroke:none;paint-order:markers fill stroke;stop-color:#000000"
           id="circle10"
           cx="50"
           cy="50"
           r="25" /><path
           id="circle37"
           style="paint-order:markers fill stroke"
           d="M 25,0 A 25,25 0 0 1 0,25 25,25 0 0 1 -25,0 25,25 0 0 1 0,-25 25,25 0 0 1 25,0 Z" /><path
           id="circle39"
           style="paint-order:markers fill stroke"
           d="M 125,0 A 25,25 0 0 1 100,25 25,25 0 0 1 75,0 25,25 0 0 1 100,-25 25,25 0 0 1 125,0 Z" /><path
           id="circle43"
           style="paint-order:markers fill stroke"
           d="M 25,100 A 25,25 0 0 1 0,125 25,25 0 0 1 -25,100 25,25 0 0 1 0,75 25,25 0 0 1 25,100 Z" /><path
           id="circle45"
           style="paint-order:markers fill stroke"
           d="m 125,100 a 25,25 0 0 1 -25,25 25,25 0 0 1 -25,-25 25,25 0 0 1 25,-25 25,25 0 0 1 25,25 z" /></g></pattern><linearGradient
       id="linearGradient38"
       inkscape:collect="always"><stop
         style="stop-color:#411246;stop-opacity:1;"
         offset="0"
         id="stop38" /><stop
         style="stop-color:#800157;stop-opacity:1;"
         offset="1"
         id="stop39" /></linearGradient><linearGradient
       id="linearGradient31"
       inkscape:collect="always"><stop
         style="stop-color:#191341;stop-opacity:1;"
         offset="0"
         id="stop31" /><stop
         style="stop-color:#3c0f54;stop-opacity:1;"
         offset="0.14350878"
         id="stop33" /><stop
         style="stop-color:#4d0d5e;stop-opacity:1;"
         offset="0.2791813"
         id="stop34" /><stop
         style="stop-color:#5f126a;stop-opacity:1;"
         offset="0.41719303"
         id="stop35" /><stop
         style="stop-color:#c40584;stop-opacity:1;"
         offset="0.77391815"
         id="stop32" /></linearGradient><linearGradient
       inkscape:collect="always"
       xlink:href="#linearGradient31"
       id="linearGradient32"
       x1="727.44373"
       y1="189.65675"
       x2="945.64923"
       y2="189.65675"
       gradientUnits="userSpaceOnUse"
       gradientTransform="matrix(0.18354645,0,0,0.18354645,-105.73873,-23.903351)" /><linearGradient
       inkscape:collect="always"
       xlink:href="#linearGradient38"
       id="linearGradient39"
       x1="594.87274"
       y1="304.73541"
       x2="755.85736"
       y2="304.73541"
       gradientUnits="userSpaceOnUse"
       gradientTransform="matrix(0.18354645,0,0,0.18354645,-105.73873,-23.903351)" /></defs><sodipodi:namedview
     id="namedview27"
     pagecolor="#ffffff"
     bordercolor="#000000"
     borderopacity="0.25"
     inkscape:showpageshadow="2"
     inkscape:pageopacity="0.0"
     inkscape:pagecheckerboard="0"
     inkscape:deskcolor="#d1d1d1" /><path
     style="fill:url(#linearGradient32);stroke:none;stroke-width:4.58866;stroke-linecap:round;stroke-linejoin:round;stroke-miterlimit:5;stroke-dasharray:none;stroke-opacity:1;paint-order:fill markers stroke"
     d="m 27.780993,10.884404 8.420636,9.631102 7.631202,-7.15754 5.683929,-3.8419157 c 0,0 8.578524,-1.736757 9.104813,-1.8946436 C 59.147863,7.46352 67.779015,6.2530532 67.831645,5.9899082 67.884274,5.7267631 56.832187,1.4111877 56.358527,1.3059293 55.884866,1.200671 42.464478,2.4111378 42.464478,2.4111378 Z"
     id="path31" /><path
     style="fill:url(#linearGradient39);stroke:none;stroke-width:4.58866;stroke-linecap:round;stroke-linejoin:round;stroke-miterlimit:5;stroke-dasharray:none;stroke-opacity:1;paint-order:fill markers stroke"
     d="m 25.330064,12.641097 -6.177575,6.996292 c 0,0 -4.614572,4.614573 -4.837858,4.986717 -0.223286,0.372142 -4.4657185,6.996289 -4.6890028,7.666148 -0.2232861,0.669856 -4.3912883,8.708146 -4.3912883,9.303577 0,0.595428 -1.7862869,9.824577 -1.7862869,9.824577 l 9.824577,-0.967573 3.349288,-5.507717 1.339715,-4.83786 3.572573,-6.252004 c 0,0 2.084001,-5.582146 2.084001,-6.103147 0,-0.521 3.572574,-4.614574 3.572574,-4.614574 l 5.805431,-0.669857 z"
     id="path30" /><path
     style="fill:url(#pattern40);fill-opacity:1;stroke:none;stroke-width:4.58866;stroke-linecap:round;stroke-linejoin:round;stroke-miterlimit:5;stroke-dasharray:none;stroke-opacity:1;paint-order:fill markers stroke"
     d="m 27.780993,10.884404 8.420636,9.631102 7.631202,-7.15754 5.683929,-3.8419157 c 0,0 8.578524,-1.736757 9.104813,-1.8946436 C 59.147863,7.46352 67.779015,6.2530532 67.831645,5.9899082 67.884274,5.7267631 56.832187,1.4111877 56.358527,1.3059293 55.884866,1.200671 42.464478,2.4111378 42.464478,2.4111378 Z"
     id="path35" /><path
     style="fill:#000000;stroke-width:0.183546"
     d="M 3.6624683,69.203545 C 3.5675105,69.085424 3.4297387,68.699695 3.356311,68.346368 3.1314812,67.264516 2.5107657,65.566286 1.8468396,64.216573 0.178775,60.82551 -0.25517653,58.943098 0.13187154,56.777309 0.2623382,56.047266 0.51755403,55.10976 0.69901907,54.693965 0.8804841,54.278168 1.0839325,53.277205 1.1511252,52.4696 c 0.28096,-3.376886 1.3259065,-7.635723 2.904751,-11.838746 0.5207158,-1.38619 1.7372599,-4.326671 1.9668948,-4.754134 0.086687,-0.161367 0.7285381,-1.449736 1.426334,-2.863044 1.434065,-2.904532 2.57387,-5.103962 2.996244,-5.781713 0.157279,-0.252376 0.896029,-1.516877 1.641667,-2.810004 1.023721,-1.775396 1.513993,-2.444652 2.00211,-2.73302 1.829381,-1.080754 2.657391,-1.715807 4.033303,-3.093389 1.375661,-1.377334 1.93572,-2.156195 3.620686,-5.035206 0.118998,-0.203327 0.773138,-1.484729 1.453643,-2.847562 0.680506,-1.3628321 1.265797,-2.5135289 1.300647,-2.5571046 0.03485,-0.043576 0.336993,0.1859858 0.671432,0.5101343 l 0.608067,0.589364 0.536348,-0.4154996 C 31.853549,4.487775 41.11299,1.1633211 46.121977,0.50623947 48.297947,0.08506644 50.514697,0.0121471 52.729649,0 c 2.890199,0.00620387 5.236334,0.18359417 7.066538,0.53430189 0.252377,0.0483608 0.747952,0.13347681 1.101279,0.18914829 1.060843,0.16715025 1.866522,0.35449432 3.946249,0.91761842 0.636596,0.1723703 0.717762,0.1949686 1.468371,0.4088314 4.589231,1.2190054 8.645497,3.6743962 12.802362,5.8613394 C 76.877044,7.6827589 66.511021,7.1606996 61.906971,7.6778619 c -2.565882,0.3798916 -3.718465,0.6150164 -5.322847,1.0858498 -2.682557,0.7872436 -3.383528,1.0118861 -4.221568,1.3529023 -1.062798,0.432476 -5.095154,2.584057 -5.231074,2.791191 -0.05047,0.07692 -0.339561,0.270447 -0.642413,0.430051 -0.302851,0.159605 -0.798427,0.498035 -1.101278,0.752065 -0.302852,0.254031 -0.833246,0.69249 -1.178653,0.974357 -1.474016,1.202855 -1.976193,1.68993 -3.176552,3.081036 -1.641318,1.902136 -1.977148,2.310191 -1.977148,2.40237 0,0.04167 -0.289086,0.478142 -0.642412,0.969948 -0.731273,1.01788 -0.789221,1.401749 -0.292823,1.939799 0.345155,0.374114 0.341661,0.395978 -0.27532,1.72311 -0.3437,0.739305 -0.541546,1.261302 -0.624909,1.526628 -0.11731,0.373368 -2.31748,-0.757329 -3.25795,-1.102514 -0.750857,-0.401726 -4.178672,-0.633999 -5.001641,-0.338919 -0.252376,0.09049 -0.665356,0.203107 -0.917732,0.25026 -1.128893,0.210914 -2.771627,1.609565 -3.468743,2.953349 -0.38525,0.742618 -0.452072,3.141434 -0.12606,4.52542 0.164008,0.696255 0.275922,1.274426 0.248696,1.284826 -0.02722,0.01041 -0.29729,0.159421 -0.600142,0.331154 -0.302851,0.171734 -0.849021,0.477357 -1.213712,0.679161 -0.959979,0.531211 -2.28552,2.087372 -2.623871,3.080377 -0.355882,1.044456 -0.377734,3.754639 -0.04188,5.193972 l 0.234779,1.006165 -0.818538,0.542178 c -1.21788,0.80669 -2.607902,2.273175 -3.004521,3.169796 -0.192676,0.435577 -0.397348,1.189045 -0.454828,1.674369 -0.101426,0.856369 -0.07678,0.914094 0.835021,1.956064 1.084987,1.239876 1.74028,2.523415 2.128053,4.168275 0.724014,3.071127 -0.236705,6.345341 -2.539505,8.654858 -1.289506,1.293267 -1.441222,1.401563 -3.014248,2.151594 -1.256487,0.599105 -1.614227,0.677692 -3.7939161,0.833446 -1.1287024,0.08065 -1.8557244,0.26992 -3.212063,0.836201 -1.9389663,0.809531 -2.6557373,0.968477 -2.9147066,0.646344 z M 11.374958,63.94629 c 1.454046,-0.55549 2.112354,-0.927994 2.655367,-1.502544 2.298289,-2.431771 2.243411,-6.250867 -0.123841,-8.618119 -1.254353,-1.254353 -2.291172,-1.668025 -4.2184775,-1.683092 -2.9139339,-0.02278 -5.169852,1.816482 -5.8684335,4.784564 -0.7135295,3.031595 1.7077896,6.73514 4.6753815,7.151266 0.3028517,0.04247 0.5717711,0.0983 0.5975961,0.124075 0.1291947,0.12894 1.7507654,-0.05305 2.2824074,-0.25615 z M 9.8715529,48.125184 c 1.0599811,-0.0022 2.1073101,0.03928 2.3273961,0.09227 0.340712,0.08203 0.442358,-0.02752 0.684232,-0.737378 0.385753,-1.132118 1.357882,-2.555871 2.430785,-3.560056 l 0.88994,-0.832939 0.01742,-2.191732 c 0.01327,-1.669733 0.105965,-2.461479 0.389198,-3.324327 0.492253,-1.499622 1.898952,-3.584837 2.906451,-4.308368 0.936983,-0.67289 0.953153,-0.715262 0.971987,-2.547052 0.05164,-5.022264 3.757209,-8.706983 9.166011,-9.114445 0.836302,-0.063 1.55462,-0.169674 1.596261,-0.237052 0.07841,-0.126865 -0.675844,-1.029517 -3.800625,-4.548402 -1.008501,-1.135694 -1.899311,-2.064898 -1.979579,-2.064898 -0.08027,0 -0.662187,0.846608 -1.293149,1.881351 -1.619027,2.655106 -3.532638,4.822614 -5.78921,6.557324 -0.394016,0.302896 -0.798991,0.614301 -0.899942,0.692011 -0.100951,0.07771 -0.431334,0.299234 -0.734186,0.492275 -0.578213,0.368559 -0.900106,0.753372 -1.392886,1.665146 -0.163679,0.302852 -0.720201,1.294003 -1.236716,2.202558 -1.138261,2.002218 -5.6851493,10.239445 -7.9015719,17.96789 -0.8046584,2.80578 -0.8257131,2.722073 0.5737791,2.281242 0.831526,-0.261926 1.677442,-0.362469 3.0744031,-0.365417 z M 37.036427,17.297856 c 0.981159,-1.312307 3.855641,-4.192838 5.44778,-5.459242 2.381425,-1.8942104 5.348801,-3.6157568 8.685297,-5.0388438 1.281562,-0.5466142 3.482278,-1.2423085 5.591932,-1.7677341 6.549625,-1.6312269 -5.223288,-1.837746 -10.180593,-1.0038119 -5.72138,0.9624791 -11.298164,3.090937 -15.739109,6.0070528 -1.42133,0.933308 -1.555765,1.243852 -0.951938,1.881128 3.578184,3.7764 -0.03757,-0.06932 2.55797,2.691529 0.360245,0.383188 3.209879,4.027154 3.557873,3.880796 0.112656,-0.04738 0.576511,-0.583274 1.030788,-1.190874 z"
     id="path29"
     sodipodi:nodetypes="ssssssssssssssssscssssssssssssssssssssscssssssssscsssssssssssssssssssssscsssssssssssssssssssssssssssss" /></svg>
