<?xml version="1.0" encoding="UTF-8" standalone="no"?>
<!-- Created with Inkscape (http://www.inkscape.org/) -->

<svg
   width="32.564949mm"
   height="26.952391mm"
   viewBox="0 0 32.564949 26.952391"
   version="1.1"
   id="svg1"
   xml:space="preserve"
   sodipodi:docname="L85A2.svg"
   inkscape:version="1.3 (0e150ed, 2023-07-21)"
   xmlns:inkscape="http://www.inkscape.org/namespaces/inkscape"
   xmlns:sodipodi="http://sodipodi.sourceforge.net/DTD/sodipodi-0.dtd"
   xmlns="http://www.w3.org/2000/svg"
   xmlns:svg="http://www.w3.org/2000/svg"><sodipodi:namedview
     id="namedview1"
     pagecolor="#ffffff"
     bordercolor="#000000"
     borderopacity="0.25"
     inkscape:showpageshadow="2"
     inkscape:pageopacity="0.0"
     inkscape:pagecheckerboard="0"
     inkscape:deskcolor="#d1d1d1"
     inkscape:document-units="mm"
     inkscape:zoom="0.62"
     inkscape:cx="700.80645"
     inkscape:cy="342.74194"
     inkscape:window-width="2048"
     inkscape:window-height="1152"
     inkscape:window-x="0"
     inkscape:window-y="0"
     inkscape:window-maximized="0"
     inkscape:current-layer="svg1" /><defs
     id="defs1"><clipPath
       clipPathUnits="userSpaceOnUse"
       id="clipPath127-1"><path
         id="path128-8"
         style="fill:#ff0000;fill-opacity:1;fill-rule:nonzero;stroke:none;stroke-width:0.264583"
         d="M 24.055379,85.596325 V 116.16139 H 89.173886 V 85.596325 Z m 33.852197,7.26984 v 5.29e-4 5.29e-4 5.3e-4 5.29e-4 5.29e-4 c 0.198578,-1.3e-5 0.397251,2e-6 0.595831,0 0.196276,-3e-6 0.392356,0 0.588592,0 h 0.604616 c 0.340889,-0.0035 0.680476,0.02997 1.017508,0.07803 0.300794,0.045 0.596691,0.115935 0.894519,0.176218 0.280622,0.06105 0.561276,0.121457 0.842843,0.177765 0.26719,0.05576 0.535377,0.104921 0.803053,0.158131 0.109294,0.02844 0.206706,0.04474 0.303856,0.05064 0.156757,0.01093 0.313711,0.01373 0.470773,0.01601 0.271158,0.0032 0.542213,0.0036 0.813387,0.0041 0.293955,5.29e-4 0.588161,5.29e-4 0.882116,5.29e-4 h 0.151413 c 1.011449,1.59e-4 1.817518,0.205621 2.427242,0.530717 0.0062,3e-6 0.01241,-5e-6 0.0186,0 0.179996,1.98e-4 0.360024,-2.65e-4 0.54002,0.0011 0.198253,0.0011 0.396608,0.0027 0.594794,0.0083 0.247237,0.0082 0.494327,0.02217 0.740008,0.05219 0.254243,0.03183 0.507151,0.07248 0.759127,0.118856 0.243856,0.04664 0.485949,0.102026 0.72967,0.149344 0.201036,0.04511 0.405019,0.07581 0.606163,0.120407 0.01971,0.0029 0.04102,0.0011 0.05943,0.0088 0.01252,0.0052 -0.05436,0.0038 -0.04082,0.0041 0.106312,0.0028 0.213032,-0.0021 0.31936,0 0.211198,2e-6 0.422354,-1.9e-5 0.633553,0 0.231349,2.1e-5 0.462666,-1.25e-4 0.694015,0 0.211259,1.05e-4 0.422809,-2.65e-4 0.634069,0.0011 0.255407,0.0011 0.510468,0.0026 0.765844,0.0067 0.34557,0.0066 0.691533,0.01638 1.036629,0.03617 0.301834,0.01947 0.602369,0.04996 0.903822,0.07287 0.213839,0.01442 0.393065,0.02809 0.618051,0.02376 0.314839,0.0065 0.629441,0.0163 0.94361,0.03876 0.182679,0.01413 0.364808,0.03027 0.546738,0.0522 0.05464,0.0066 0.109244,0.01304 0.163814,0.02016 0.0295,0.0038 0.0615,-2.65e-4 0.08837,0.01241 0.112133,7.94e-4 0.224454,-3e-6 0.336415,0 0.03969,0 0.07968,-3e-6 0.119372,0 0.244784,8e-6 0.489537,-6.3e-5 0.734322,0 0.187772,6.4e-5 0.375504,5.29e-4 0.563271,0.0011 0.193455,5.3e-4 0.386898,0.0011 0.580329,0.0041 0.240872,0.0051 0.482053,0.01397 0.721403,0.04341 0.589743,0.08446 1.149275,0.268119 1.630391,0.632519 0.06835,0.05883 0.136615,0.117591 0.205155,0.176217 0.03187,0.0013 0.06373,0.0019 0.0956,0.0026 0.72171,0.08781 1.368354,0.40109 1.862418,0.939993 0.261152,0.284853 0.311883,0.422699 0.487307,0.747242 0.257802,0.590672 0.339641,1.195991 0.211876,1.841749 -0.01193,0.06034 -0.03069,0.120036 -0.04599,0.18035 0.05839,0.09424 0.08227,0.235993 0.04083,0.418579 -0.01349,0.05963 -0.0069,0.03052 -0.02016,0.08888 -0.02455,0.118605 -0.0518,0.236753 -0.07286,0.356063 -0.03031,0.17525 -0.06679,0.34881 -0.100251,0.52348 -0.03796,0.19297 -0.07657,0.38614 -0.116274,0.57877 -0.04064,0.17917 -0.07936,0.35839 -0.115755,0.53847 -0.03435,0.16869 -0.06852,0.33745 -0.10387,0.50592 -0.0329,0.15318 -0.06868,0.3057 -0.09663,0.45992 -0.03224,0.15472 -0.06236,0.31008 -0.09818,0.46405 -0.03179,0.13829 -0.05909,0.27716 -0.08578,0.41651 -0.02164,0.10807 -0.04447,0.21629 -0.06253,0.32505 -0.01746,0.10214 -0.02617,0.20536 -0.04031,0.30799 -0.01598,0.10931 -0.03652,0.21792 -0.05891,0.32608 -0.02402,0.1105 -0.04498,0.22142 -0.06976,0.33176 -0.02981,0.14472 -0.06035,0.28934 -0.0925,0.43356 -0.03093,0.15629 -0.06131,0.31301 -0.09509,0.46871 -0.01831,0.0774 -0.03609,0.15471 -0.05426,0.23203 0.07293,0.36388 0.08872,0.73758 0.03411,1.10846 -0.01918,0.13019 -0.05621,0.25743 -0.08423,0.38602 -0.03428,0.1201 -0.07405,0.23365 -0.117305,0.34416 0.03135,0.1267 0.05822,0.26069 0.0801,0.41031 0.03293,0.22533 -0.0097,0.455 -0.01447,0.68265 -0.06643,0.23793 -0.102598,0.48671 -0.198954,0.71417 -0.365005,0.86164 -1.200851,1.55726 -2.132687,1.70635 -0.244107,0.0389 -0.493313,0.0323 -0.740008,0.0481 -0.01468,-0.002 -0.02926,-0.004 -0.04392,-0.006 -0.236919,0.11199 -0.481087,0.21369 -0.725538,0.26097 -0.217646,0.0595 -0.437912,0.1111 -0.660424,0.14882 -0.20707,0.0364 -0.411019,0.0912 -0.619601,0.11989 -0.274698,0.0379 -0.550423,0.0679 -0.828373,0.0589 v 5.3e-4 c -0.629261,-0.0207 -1.180478,-0.11514 -1.654678,-0.26407 h -0.269235 -0.566891 -0.668692 -0.600479 -0.63304 c -0.171828,-1e-5 -0.34335,3e-5 -0.515212,0 -0.180952,-3e-5 -0.362167,-1.1e-4 -0.543119,-5.3e-4 -0.209132,-0.001 -0.418229,-2.7e-4 -0.627353,-0.002 -0.187868,-0.002 -0.375589,-0.003 -0.563272,-0.0124 -0.245514,-0.013 -0.490818,-0.0327 -0.733806,-0.0713 -0.212561,-0.0342 -0.424021,-0.0744 -0.636653,-0.108 -0.284784,-0.0555 -0.571828,-0.10378 -0.845945,-0.20257 -0.117109,-0.0405 -0.233992,-0.0815 -0.350882,-0.12247 -0.629645,0.57602 -1.639507,0.98133 -3.059761,0.98133 H 67.213456 66.673955 66.180962 65.55051 65.024444 64.334565 63.354262 62.429771 c -0.34394,0 -0.688044,-5.3e-4 -1.031978,-5.3e-4 -0.422241,-5e-5 -0.844354,2.7e-4 -1.26659,0 -0.41946,0 -0.838864,-2.6e-4 -1.258321,-0.002 -0.387916,-0.002 -0.775904,-0.004 -1.163754,-0.0124 -0.46496,-0.0104 -0.930061,-0.0258 -1.394746,-0.045 -0.633804,-0.0221 -1.267677,-0.0235 -1.901692,-0.0372 -0.483638,-0.0123 -0.966965,-0.036 -1.450557,-0.046 -0.463616,-0.008 -0.927368,-0.0185 -1.390097,-0.0496 -0.375359,-0.0279 -0.751208,-0.0598 -1.122413,-0.12351 -0.193532,-0.0141 -0.386755,-0.03 -0.579811,-0.0496 -0.07977,-0.008 -0.160559,-0.01 -0.23926,-0.0253 -0.0033,0 0.0059,-0.003 0.0088,-0.005 h -0.95808 c -0.293772,0 -0.587795,2e-5 -0.881602,0 -0.285927,-4e-5 -0.571862,-8e-4 -0.857827,-10e-4 -0.318764,-0.001 -0.637251,10e-4 -0.956013,-0.002 -0.356497,-10e-4 -0.713259,-0.003 -1.069703,-0.0109 -0.229423,-0.005 -0.459142,-0.0113 -0.688332,-0.0243 -0.488577,0.14932 -1.060439,0.23616 -1.718757,0.23616 h -0.331245 c -0.391435,0.0182 -0.77534,-0.046 -1.154451,-0.13539 -0.302377,-0.0755 -0.591818,-0.19222 -0.876433,-0.31729 -0.04157,-0.0213 -0.05642,-0.0262 -0.08992,-0.0429 h -0.0072 -0.693497 -0.466122 c -0.103002,-2e-5 -0.206023,4e-5 -0.309025,0 -0.111538,-5e-5 -0.222811,-7.9e-4 -0.334346,-0.001 -0.115882,-10e-4 -0.231913,2.6e-4 -0.347782,-0.003 -0.151556,-0.003 -0.303736,-0.007 -0.454236,-0.0264 -0.260144,-0.0394 -0.514194,-0.11 -0.738458,-0.25321 -0.04008,-0.0285 -0.177686,-0.11941 -0.228925,-0.1726 -0.06936,-0.0721 -0.139843,-0.14356 -0.201539,-0.22221 -0.185888,1.3e-4 -0.371689,-0.0274 -0.55087,-0.0765 -0.05368,-0.0194 -0.108802,-0.0347 -0.160716,-0.0584 -0.366062,-0.16724 -0.630399,-0.42181 -0.786514,-0.79788 -0.02373,-0.0726 -0.05098,-0.14386 -0.0708,-0.21756 -0.03702,-0.13773 -0.04596,-0.28154 -0.05116,-0.42323 -0.0029,-0.0724 -0.007,-0.14494 -0.01447,-0.21704 -0.0076,-0.0727 -0.01831,-0.14454 -0.0279,-0.21704 -2.01e-4,-0.001 0.0038,0.0179 0.0016,0.003 -0.117361,-0.75324 0.02946,-1.32028 0.303342,-1.67742 -0.07143,-0.17948 -0.142962,-0.35899 -0.213939,-0.53847 -0.121497,-0.29995 -0.228119,-0.60398 -0.316778,-0.91518 -0.07749,-0.2961 -0.111765,-0.59949 -0.135908,-0.90383 -0.01447,-0.006 -0.02921,-0.013 -0.04444,-0.0217 -0.09805,-0.0559 -0.163759,-0.0931 -0.187585,-0.21497 -2.64e-4,-0.003 -2.35e-4,-0.006 -5.29e-4,-0.009 -0.0021,1.5e-4 -0.0045,2.5e-4 -0.0067,5.3e-4 -0.01611,-0.0202 -0.03424,-0.0391 -0.04806,-0.061 -0.03808,-0.0602 -0.04958,-0.14584 -0.05788,-0.21394 -0.0051,-0.0422 -0.0086,-0.0898 -0.01188,-0.13643 -0.0011,-0.007 -0.0026,-0.0141 -0.0036,-0.0212 -0.01056,-0.0849 -0.015,-0.17035 -0.01188,-0.2558 -0.0063,-0.12477 -0.01286,-0.24941 -0.02016,-0.37414 -0.0083,-0.15653 -0.01209,-0.31357 -0.01498,-0.47025 -0.0029,-0.11388 -0.0028,-0.2272 5.29e-4,-0.34107 5.29e-4,-0.0767 0.0075,-0.15341 0.03617,-0.22531 0.0072,-0.0181 0.0167,-0.0355 0.02479,-0.0532 0.05334,-0.1026 0.122666,-0.19518 0.189137,-0.28938 0.05481,-0.0752 0.10041,-0.15722 0.157097,-0.231 l 5.29e-4,-5.3e-4 c 0.0019,-0.007 0.0039,-0.0134 0.0057,-0.0202 0.01617,-0.0603 0.02942,-0.12143 0.04238,-0.18242 0.01524,-0.0771 0.03203,-0.1541 0.04806,-0.23099 0.01805,-0.0894 0.03929,-0.17788 0.05788,-0.26717 0.01632,-0.0731 0.0322,-0.14661 0.04909,-0.21962 0.01823,-0.0787 0.0434,-0.15524 0.06821,-0.23203 0.02402,-0.0729 0.05182,-0.1446 0.0801,-0.21601 0.02802,-0.0725 0.05567,-0.14506 0.08216,-0.21807 0.02582,-0.0674 0.04386,-0.13742 0.06149,-0.20722 0.01802,-0.0689 0.03206,-0.13878 0.04754,-0.208266 0.01064,-0.04708 0.01995,-0.09426 0.02946,-0.141592 0.01206,-0.06369 0.03695,-0.119192 0.0708,-0.174151 0.06101,-0.08711 0.149307,-0.147765 0.236677,-0.205671 0.127971,-0.07631 0.26442,-0.13692 0.401011,-0.195853 0.130273,-0.05704 0.261863,-0.110826 0.396356,-0.157096 0.140822,-0.04628 0.285539,-0.07745 0.429948,-0.110072 0.108506,-0.02217 0.217043,-0.04537 0.325562,-0.0677 0.01437,-0.0068 0.02975,-0.01135 0.04444,-0.01757 0.03863,-0.01633 0.07717,-0.03215 0.115755,-0.04858 0.08289,-0.03589 0.166272,-0.0718 0.250114,-0.105421 0.07659,-0.03219 0.1544,-0.06107 0.23151,-0.09198 0.104648,-0.04097 0.208494,-0.08392 0.313677,-0.123508 0.105722,-0.0383 0.213479,-0.0696 0.319876,-0.105936 0.130976,-0.04613 0.260956,-0.09567 0.390675,-0.145212 0.02159,-0.0085 0.04299,-0.01683 0.0646,-0.02532 0.04712,-0.01855 0.08979,-0.02667 0.127122,-0.02687 0.02162,-1.17e-4 0.04158,0.0024 0.05943,0.0072 0.319164,-0.148908 0.640066,-0.293868 0.965835,-0.427882 0.381161,-0.146171 0.759274,-0.299556 1.141531,-0.442865 0.419285,-0.171077 0.860989,-0.275052 1.293461,-0.405661 0.441841,-0.135195 0.875062,-0.295902 1.314648,-0.438217 0.427993,-0.142456 0.850472,-0.30091 1.273308,-0.457853 0.403349,-0.151672 0.801256,-0.317624 1.203026,-0.473356 0.299889,-0.118292 0.601128,-0.232248 0.897104,-0.360185 0.39107,-0.163793 0.787233,-0.315042 1.182356,-0.468704 0.360829,-0.154895 0.724861,-0.302151 1.087271,-0.453202 0.488815,-0.200292 0.990598,-0.365355 1.500169,-0.503327 0.354344,-0.09806 0.714029,-0.176475 1.072804,-0.256318 0.349676,-0.07066 0.699053,-0.142251 1.047996,-0.216525 0.293772,-0.07595 0.591449,-0.131625 0.889868,-0.185517 0.19487,-0.03872 0.393041,-0.05875 0.589629,-0.08578 -0.008,2.54e-4 -0.02344,0.0028 -0.01913,-0.0021 0.01958,-0.01863 0.05314,-0.01127 0.07958,-0.01704 0.292272,-0.06591 0.58855,-0.109725 0.886251,-0.141594 0.297024,-0.03015 0.595741,-0.03509 0.894003,-0.03979 0.269518,-0.0036 0.538681,-0.0044 0.80822,-0.0052 0.19463,-5.29e-4 0.389311,-5.29e-4 0.583943,-5.29e-4 0.204529,-8e-5 0.409396,-5.29e-4 0.613916,-5.29e-4 z m 21.75061,1.921849 c 0.02006,0.0095 -0.04446,-0.0013 -0.06666,-0.0021 -0.01037,5.29e-4 -0.04139,0.0019 -0.03101,0.0021 0.03249,0.0011 0.06511,-2.41e-4 0.09767,0 z m 6.054929,12.003396 c -5.29e-4,0.002 -0.0016,0.003 -0.0021,0.005 -0.01355,0.0378 -0.02707,0.0757 -0.04031,0.11369 0.01437,-0.0385 0.03056,-0.0731 0.04237,-0.11886 z" /></clipPath></defs><path
     style="color:#000000;fill:#434340;fill-opacity:1;stroke:#333333;stroke-width:0.239042;stroke-linejoin:round;stroke-dasharray:none;stroke-opacity:1"
     d="m 9.9907839,21.270439 c 1.6833001,2.248296 3.3406701,3.645166 5.1338501,4.757392 l 1.41741,-2.285459 c -1.58204,-0.981267 -2.89401,-2.074162 -4.39854,-4.083681 z"
     id="path6-33" /><path
     style="fill:none;fill-opacity:1;stroke:#333333;stroke-width:0.239042;stroke-linecap:butt;stroke-linejoin:round;stroke-dasharray:none;stroke-opacity:1"
     d="m 10.532804,21.199782 c 1.59392,2.12891 3.07863,3.373662 4.76624,4.420414"
     id="path6-3"
     sodipodi:nodetypes="cc" /><path
     style="fill:none;fill-opacity:1;stroke:#333333;stroke-width:0.239042;stroke-linecap:butt;stroke-linejoin:round;stroke-dasharray:none;stroke-opacity:1"
     d="m 10.805774,20.801945 c 1.59392,2.12891 3.07863,3.373661 4.76624,4.42041"
     id="path6-3-0"
     sodipodi:nodetypes="cc" /><path
     style="fill:#3d3d3d;fill-opacity:1;stroke:#333333;stroke-width:0.239042;stroke-linecap:round;stroke-linejoin:round;stroke-dasharray:none;stroke-opacity:1"
     d="m 17.356814,14.349455 c 0.1686,0.136917 0.13808,0.303743 0.0537,0.421357 l 0.75941,0.421506 c 0.27874,-0.100926 0.44432,-0.310057 0.61989,-0.509637 -0.42639,0.327214 -0.81552,-0.229117 -1.19242,-0.467852 z"
     id="path4"
     sodipodi:nodetypes="cccccc" /><rect
     style="fill:#3d3d3d;fill-opacity:1;stroke:#333333;stroke-width:0.239042;stroke-linecap:round;stroke-linejoin:round;stroke-dasharray:none;stroke-opacity:1"
     id="rect2"
     width="0.865435"
     height="0.45549199"
     x="4.9751105"
     y="21.475321"
     transform="rotate(-36.822299)" /><path
     style="fill:#4b4f3e;fill-opacity:1;stroke:#333333;stroke-width:0.239042;stroke-linecap:round;stroke-linejoin:round;stroke-dasharray:none;stroke-opacity:1"
     d="m 14.167624,16.732201 c 0.882,-0.20753 1.53207,-0.09329 1.54822,0.547877 0.0119,0.965442 0.3447,2.342453 0.76051,3.493345 l 1.79313,-0.386589 c 0.97756,-0.186092 1.0513,-1.262082 -0.10488,-0.945689 l -1.01268,-2.59897 c -0.22859,-0.529051 0.0397,-0.847988 0.42727,-1.116511 l -1.17387,-1.567869 -2.72736,2.041983 z"
     id="path2-4"
     sodipodi:nodetypes="cccccccccc" /><path
     style="fill:#585858;fill-opacity:1;fill-rule:evenodd;stroke:#050505;stroke-width:0;stroke-linejoin:bevel;stroke-opacity:1;paint-order:markers fill stroke"
     d="M 7.7419939,24.698729 Z"
     id="path3" /><path
     style="fill:#585858;fill-opacity:0;fill-rule:evenodd;stroke:#323232;stroke-width:0.140436;stroke-linejoin:bevel;stroke-dasharray:none;stroke-opacity:1;paint-order:markers fill stroke"
     d="M 11.871504,20.872175 Z"
     id="path7" /><path
     id="rect10"
     style="fill:#4a4a4a;stroke:#333333;stroke-width:0.239042;stroke-linejoin:round"
     d="m 20.373844,4.4408127 c -0.29165,-0.389544 -0.40079,-0.890361 -0.0808,-1.133949 0.32795,-0.245534 0.74176,7.2e-5 1.06531,0.39687 l 1.82228,2.433915 -0.98448,0.737081 z"
     sodipodi:nodetypes="cccccc" /><path
     style="fill:#585858;fill-opacity:1;fill-rule:evenodd;stroke:#323232;stroke-width:0.239042;stroke-linejoin:bevel;stroke-dasharray:none;stroke-opacity:1;paint-order:markers fill stroke"
     d="m 27.088184,4.8083967 5.38109,-4.00664704 c -0.21569,-0.28808 -0.29322,-0.40237 -0.52057,-0.706026 -0.37651,0.281506 -2.0804,1.55352404 -2.77979,2.06736304 l -2.63092,1.969779 z"
     id="path8-3"
     sodipodi:nodetypes="cccccc" /><path
     style="fill:#585858;fill-opacity:1;fill-rule:evenodd;stroke:#323232;stroke-width:0.119521;stroke-linejoin:bevel;stroke-dasharray:none;stroke-opacity:1;paint-order:markers fill stroke"
     d="m 31.728324,0.43394066 0.13051,0.169059 -0.98485,0.73343504 -0.11982,-0.180991 z"
     id="path12-9" /><path
     style="fill:#585858;fill-opacity:1;fill-rule:evenodd;stroke:#323232;stroke-width:0.140436;stroke-linejoin:bevel;stroke-dasharray:none;stroke-opacity:1;paint-order:markers fill stroke"
     d="M 31.415224,1.2802167 Z"
     id="path11" /><path
     style="fill:#585858;fill-opacity:1;fill-rule:evenodd;stroke:#323232;stroke-width:0.119521;stroke-linejoin:bevel;stroke-dasharray:none;stroke-opacity:1;paint-order:markers fill stroke"
     d="m 31.949194,0.74875866 0.13052,0.169058 -0.98485,0.73343404 -0.11982,-0.180991 z"
     id="path12-6" /><path
     style="fill:#4b4f3e;fill-opacity:1;fill-rule:evenodd;stroke:#323232;stroke-width:0.239042;stroke-linejoin:bevel;stroke-dasharray:none;stroke-opacity:1;paint-order:markers fill stroke"
     d="m 17.906754,13.293909 0.92984,-0.677508 0.59809,-0.06404 0.86889,-0.610949 1.47363,-1.169298 1.38586,-1.0573893 2.32436,-1.863185 2.16474,-1.695402 0.0658,-0.12395 -0.0282,-0.249522 -0.0402,-0.12852 -1.25067,-1.583199 -0.50628,-0.227511 -1.32153,0.989434 -0.012,0.08365 -0.45597,0.350719 -0.13296,-0.0031 -0.54567,0.41787 -0.048,0.185216 -0.21677,0.171635 -0.16418,-0.194355 -0.0866,-0.02846 -0.87161,0.717896 0.27154,0.449925 -0.77587,0.571567 -0.17227,-0.288141 0.52687,-0.38353 -0.42165,-0.56478 -4.32247,3.225779 -0.60847,0.4835573 -0.16023,0.446577 -0.29003,0.235814 0.27757,0.370746 0.57257,-0.438022 0.2075,0.208588 -0.96278,0.75816 0.19626,0.249661 0.10969,0.146504 0.28552,-0.204445 z"
     id="path14-6" /><path
     style="fill:#60634f;fill-opacity:1;fill-rule:evenodd;stroke:#333333;stroke-width:0.121672;stroke-linejoin:bevel;stroke-dasharray:none;stroke-opacity:1;paint-order:markers fill stroke"
     d="m 20.894964,8.4389637 0.21948,0.310769 0.15213,-0.0083 0.58774,-0.440042 0.13291,-0.16903 -0.23574,-0.314859 z"
     id="path50-2" /><path
     style="fill:#595b49;fill-opacity:1;fill-rule:evenodd;stroke:#333333;stroke-width:0.121672;stroke-linejoin:bevel;stroke-dasharray:none;stroke-opacity:1;paint-order:markers fill stroke"
     d="m 21.302494,7.4673887 0.37356,0.498944 -0.62579,0.468535 -0.38306,-0.51163 0.61733,-0.4622 z"
     id="path51-53" /><path
     style="fill:#60634f;fill-opacity:1;fill-rule:evenodd;stroke:#333333;stroke-width:0.121672;stroke-linejoin:bevel;stroke-dasharray:none;stroke-opacity:1;paint-order:markers fill stroke"
     d="m 21.286684,7.4198367 0.0207,-0.144184 -0.16304,-0.21776 -0.15342,-0.02205 -0.61206,0.458245 -0.0671,0.156636 0.17925,0.239412 0.10698,0.01538 0.037,0.0053 z"
     id="path52-14" /><path
     style="fill:#60634f;fill-opacity:1;fill-rule:evenodd;stroke:#333333;stroke-width:0.121672;stroke-linejoin:bevel;stroke-dasharray:none;stroke-opacity:1;paint-order:markers fill stroke"
     d="m 19.673124,9.3471587 0.21947,0.310774 0.15214,-0.0083 0.58774,-0.440043 0.1329,-0.169029 -0.23574,-0.314858 z"
     id="path50-7" /><path
     style="fill:#595b49;fill-opacity:1;fill-rule:evenodd;stroke:#333333;stroke-width:0.121672;stroke-linejoin:bevel;stroke-dasharray:none;stroke-opacity:1;paint-order:markers fill stroke"
     d="m 20.080654,8.3755827 0.37356,0.498945 -0.62579,0.468535 -0.38306,-0.511629 0.61734,-0.462202 z"
     id="path51-6" /><path
     style="fill:#60634f;fill-opacity:1;fill-rule:evenodd;stroke:#333333;stroke-width:0.121672;stroke-linejoin:bevel;stroke-dasharray:none;stroke-opacity:1;paint-order:markers fill stroke"
     d="m 20.064844,8.3280317 0.0207,-0.144185 -0.16304,-0.217759 -0.15342,-0.02205 -0.61206,0.458246 -0.0671,0.156636 0.17925,0.239414 0.10698,0.01537 0.037,0.0053 z"
     id="path52-3" /><path
     style="fill:#60634f;fill-opacity:1;fill-rule:evenodd;stroke:#333333;stroke-width:0.121672;stroke-linejoin:bevel;stroke-dasharray:none;stroke-opacity:1;paint-order:markers fill stroke"
     d="m 18.459964,10.275248 0.21948,0.310774 0.15213,-0.0083 0.58774,-0.440043 0.13291,-0.1690303 -0.23574,-0.314859 z"
     id="path50-8" /><path
     style="fill:#595b49;fill-opacity:1;fill-rule:evenodd;stroke:#333333;stroke-width:0.121672;stroke-linejoin:bevel;stroke-dasharray:none;stroke-opacity:1;paint-order:markers fill stroke"
     d="m 18.867504,9.3036717 0.37356,0.498944 -0.6258,0.4685353 -0.38306,-0.5116293 0.61734,-0.462202 z"
     id="path51-5" /><path
     style="fill:#60634f;fill-opacity:1;fill-rule:evenodd;stroke:#333333;stroke-width:0.121672;stroke-linejoin:bevel;stroke-dasharray:none;stroke-opacity:1;paint-order:markers fill stroke"
     d="m 18.851694,9.2561197 0.0207,-0.144184 -0.16304,-0.21776 -0.15343,-0.02205 -0.61205,0.458246 -0.0671,0.156636 0.17925,0.239413 0.10697,0.01538 0.037,0.0053 z"
     id="path52-1" /><path
     style="fill:#60634f;fill-opacity:1;fill-rule:evenodd;stroke:#333333;stroke-width:0.121672;stroke-linejoin:bevel;stroke-dasharray:none;stroke-opacity:1;paint-order:markers fill stroke"
     d="m 17.299344,11.131016 0.21948,0.31077 0.15213,-0.0083 0.58774,-0.440042 0.13291,-0.16903 -0.23574,-0.314859 z"
     id="path50-77" /><path
     style="fill:#595b49;fill-opacity:1;fill-rule:evenodd;stroke:#333333;stroke-width:0.121672;stroke-linejoin:bevel;stroke-dasharray:none;stroke-opacity:1;paint-order:markers fill stroke"
     d="m 17.706874,10.15944 0.37356,0.498945 -0.62579,0.468534 -0.38306,-0.511629 0.61734,-0.462202 z"
     id="path51" /><path
     style="fill:#60634f;fill-opacity:1;fill-rule:evenodd;stroke:#333333;stroke-width:0.121672;stroke-linejoin:bevel;stroke-dasharray:none;stroke-opacity:1;paint-order:markers fill stroke"
     d="m 17.691064,10.111888 0.0207,-0.1441853 -0.16304,-0.21776 -0.15342,-0.02205 -0.61206,0.4582463 -0.0671,0.156636 0.17925,0.239413 0.10698,0.01537 0.037,0.0053 z"
     id="path52-19" /><path
     style="fill:#4b4b4b;fill-opacity:1;fill-rule:evenodd;stroke:#323232;stroke-width:0.239042;stroke-linejoin:bevel;stroke-dasharray:none;stroke-opacity:1;paint-order:markers fill stroke"
     d="M 21.182754,5.2982627 Z"
     id="path16-2" /><ellipse
     style="fill:#4a4a4a;fill-opacity:1;fill-rule:evenodd;stroke:#323232;stroke-width:0.119521;stroke-dasharray:none;stroke-opacity:1"
     id="path21"
     cx="14.288404"
     cy="16.202614"
     rx="0.30108184"
     ry="0.3116461"
     transform="rotate(-36.822299)" /><g
     id="g10"
     transform="matrix(0.09040294,-0.06768493,0.06768493,0.09040294,-2.8272361,20.295228)"><ellipse
       style="opacity:1;fill:#4a4a4a;fill-opacity:1;fill-rule:evenodd;stroke:#323232;stroke-width:1.05833;stroke-dasharray:none;stroke-opacity:1"
       id="path21-7"
       cx="254.03874"
       cy="25.831848"
       rx="2.6660137"
       ry="2.7595577" /><path
       style="opacity:1;fill:#4a4a4a;fill-opacity:1;fill-rule:evenodd;stroke:#323232;stroke-width:1.05833;stroke-linejoin:bevel;stroke-dasharray:none;stroke-opacity:1;paint-order:markers fill stroke"
       d="m 252.72912,27.959978 2.61924,-4.25626 z"
       id="path22-6" /></g><path
     style="fill:#4a4a4a;fill-opacity:1;fill-rule:evenodd;stroke:#323232;stroke-width:0.119521;stroke-linejoin:bevel;stroke-dasharray:none;stroke-opacity:1;paint-order:markers fill stroke"
     d="m 20.394814,4.2930847 0.89808,-0.659198 z"
     id="path23" /><path
     style="fill:#4a4a4a;fill-opacity:1;fill-rule:evenodd;stroke:#323232;stroke-width:0.119521;stroke-linejoin:bevel;stroke-dasharray:none;stroke-opacity:1;paint-order:markers fill stroke"
     d="m 21.161584,5.3380607 0.90046,-0.665652 z"
     id="path24-7" /><path
     style="fill:#4a4a4a;fill-opacity:1;fill-rule:evenodd;stroke:#323232;stroke-width:0.119521;stroke-linejoin:bevel;stroke-dasharray:none;stroke-opacity:1;paint-order:markers fill stroke"
     d="m 21.781294,6.1546777 0.86211,-0.637343 z"
     id="path25" /><path
     style="fill:#3b3b3b;fill-opacity:1;fill-rule:evenodd;stroke:#333333;stroke-width:0.239042;stroke-linejoin:bevel;stroke-dasharray:none;stroke-opacity:1;paint-order:markers fill stroke"
     d="M 2.0490839,23.958957 Z"
     id="path29" /><path
     style="fill:#3d3d3d;fill-opacity:1;fill-rule:evenodd;stroke:#333333;stroke-width:0.239042;stroke-linejoin:round;stroke-dasharray:none;stroke-opacity:1;paint-order:markers fill stroke"
     d="m 16.078764,10.855059 -2.0592,1.541729 -2.79916,2.095741 -3.7251701,2.789044 -5.97465,4.473235 -0.92177999,0.690137 1.03204999,1.37844 1.64936,2.202966 0.49053,-0.420053 0.77385,-0.658566 1.74013,-1.500794 1.93888,-1.675997 0.97577,-0.829542 0.0497,-0.03059 0.9074501,1.159136 c 1.02141,-0.963818 1.81691,-1.742033 2.3427,-2.32376 l -0.83333,-1.02757 c 1.44548,-1.167743 1.55612,-1.254013 2.5284,-1.993342 l -0.33115,-0.403983 0.17865,-0.140358 2.39333,-1.897468 0.25133,0.115359 0.0423,-0.0052 1.15438,-0.917076 -1.18083,-1.577171 -0.16913,0.126631 -0.33241,-0.443977 0.94292,-0.705966 -0.18045,-0.241016 -0.64693,0.484363 -0.21211,-0.283299 z"
     id="path30-6"
     sodipodi:nodetypes="cccccccccccccccccccccccccccccccc" /><path
     style="fill:#565656;fill-opacity:0;fill-rule:evenodd;stroke:#333333;stroke-width:0.121672;stroke-linejoin:bevel;stroke-dasharray:none;stroke-opacity:1;paint-order:markers fill stroke"
     d="m 3.7643539,22.496598 -0.28654,-0.382706 z"
     id="path49-6" /><ellipse
     style="fill:#565656;fill-opacity:1;fill-rule:evenodd;stroke:#333333;stroke-width:0.121672;stroke-dasharray:none;stroke-opacity:1"
     id="path42-6-9"
     cy="21.442942"
     cx="-1.4768085"
     rx="0.19735713"
     ry="0.20792139"
     transform="rotate(-36.822299)" /><rect
     style="fill:#565656;fill-opacity:1;fill-rule:evenodd;stroke:#333333;stroke-width:0.119521;stroke-linejoin:bevel;stroke-dasharray:none;stroke-opacity:1;paint-order:markers fill stroke"
     id="rect42-7"
     width="0.92965627"
     height="0.41728893"
     x="4.4491858"
     y="18.675362"
     ry="0.20864446"
     transform="rotate(-36.822299)" /><rect
     style="fill:#565656;fill-opacity:1;fill-rule:evenodd;stroke:#333333;stroke-width:0.119521;stroke-linejoin:bevel;stroke-dasharray:none;stroke-opacity:1;paint-order:markers fill stroke"
     id="rect42-4"
     width="0.92965627"
     height="0.41728893"
     x="3.1513042"
     y="18.69558"
     ry="0.20864446"
     transform="rotate(-36.822299)" /><rect
     style="fill:#565656;fill-opacity:1;fill-rule:evenodd;stroke:#333333;stroke-width:0.119521;stroke-linejoin:bevel;stroke-dasharray:none;stroke-opacity:1;paint-order:markers fill stroke"
     id="rect42-9"
     width="0.92965627"
     height="0.41728893"
     x="-0.76382643"
     y="18.729469"
     ry="0.20864446"
     transform="rotate(-36.822299)" /><rect
     style="fill:#565656;fill-opacity:1;fill-rule:evenodd;stroke:#333333;stroke-width:0.119521;stroke-linejoin:bevel;stroke-dasharray:none;stroke-opacity:1;paint-order:markers fill stroke"
     id="rect42-3"
     width="0.92965627"
     height="0.41728893"
     x="0.53303331"
     y="18.718895"
     ry="0.20864446"
     transform="rotate(-36.822299)" /><circle
     style="fill:#565656;fill-opacity:1;fill-rule:evenodd;stroke:#333333;stroke-width:0.119521;stroke-dasharray:none;stroke-opacity:1"
     id="path42-6"
     cx="-5.9736042"
     cy="21.589228"
     r="0.26938903"
     transform="rotate(-36.822299)" /><rect
     style="fill:#474747;fill-opacity:1;fill-rule:evenodd;stroke:#333333;stroke-width:0.119596;stroke-linejoin:bevel;stroke-dasharray:none;stroke-opacity:1;paint-order:markers fill stroke"
     id="rect31"
     width="1.0881203"
     height="1.0881203"
     x="-12.909656"
     y="18.38662"
     ry="0.050964046"
     transform="rotate(-36.822299)" /><circle
     style="fill:#4d4d4d;fill-opacity:1;fill-rule:evenodd;stroke:#333333;stroke-width:0.119521;stroke-dasharray:none;stroke-opacity:1"
     id="path32"
     cx="-12.287433"
     cy="18.916695"
     r="0.14753388"
     transform="rotate(-36.822299)" /><rect
     style="fill:#4d4d4d;fill-opacity:1;fill-rule:evenodd;stroke:#333333;stroke-width:0.119551;stroke-linejoin:bevel;stroke-dasharray:none;stroke-opacity:1;paint-order:markers fill stroke"
     id="rect32-5"
     width="3.764915"
     height="0.20916197"
     x="-11.501588"
     y="18.692146"
     ry="0.050964046"
     transform="rotate(-36.822299)" /><rect
     style="fill:#4f4f3e;fill-opacity:1;fill-rule:evenodd;stroke:#333333;stroke-width:0.119551;stroke-linejoin:bevel;stroke-dasharray:none;stroke-opacity:1;paint-order:markers fill stroke"
     id="rect34"
     width="3.1428716"
     height="0.17166835"
     x="-9.153718"
     y="19.696739"
     ry="0.050964415"
     transform="rotate(-36.822299)" /><path
     style="fill:#4f4f3e;fill-opacity:1;fill-rule:evenodd;stroke:#333333;stroke-width:0.119551;stroke-linejoin:bevel;stroke-dasharray:none;stroke-opacity:1;paint-order:markers fill stroke"
     d="m 4.3620639,20.430023 -0.19439,0.20153 -0.0181,0.200183 0.0626,0.121067 0.12987,0.136064 0.12699,0.0076 0.0717,-0.01637 0.22723,-0.170129 0.0985,0.131555 0.32291,-0.241761 -0.10745,-0.143515 0.0299,-0.02239 -0.0179,-0.02392 1.18997,-0.890938 0.10297,0.137536 0.003,0.02669 0.27387,-0.205045 -0.0901,-0.12029 0.0419,-0.03134 -0.0358,-0.04784 0.54416,-0.407413 -0.46114,-0.615918 -0.0682,-0.02919 0.006,0.05093 -0.0813,0.0609 -0.0777,0.0582 -0.13587,-0.181475 -0.59798,0.447707 0.25072,0.334867 z"
     id="path33" /><path
     style="fill:#4f4f3e;fill-opacity:0;fill-rule:evenodd;stroke:#333333;stroke-width:0.119551;stroke-linejoin:bevel;stroke-dasharray:none;stroke-opacity:1;paint-order:markers fill stroke"
     d="m 5.6624239,19.716174 0.69344,-0.519187"
     id="path34-6" /><rect
     style="fill:none;fill-opacity:1;fill-rule:evenodd;stroke:#525544;stroke-width:0.239042;stroke-linejoin:bevel;stroke-dasharray:none;stroke-opacity:1;paint-order:markers fill stroke"
     id="rect35"
     width="5.5876122"
     height="0.1502009"
     x="7.9746838"
     y="20.66231"
     ry="0.075100452"
     transform="rotate(-37.794119)" /><circle
     style="fill:#60634f;fill-opacity:1;fill-rule:evenodd;stroke:#333333;stroke-width:0.119521;stroke-dasharray:none;stroke-opacity:1"
     id="path35"
     cx="14.606245"
     cy="20.508018"
     r="0.2799533"
     transform="rotate(-36.822299)" /><path
     style="fill:#515744;fill-opacity:1;fill-rule:evenodd;stroke:#333333;stroke-width:0.119521;stroke-linejoin:bevel;stroke-dasharray:none;stroke-opacity:1;paint-order:markers fill stroke"
     d="M 17.705014,12.903768 Z"
     id="path36-6" /><path
     style="fill:#515744;fill-opacity:0;fill-rule:evenodd;stroke:#525544;stroke-width:0.119521;stroke-linejoin:bevel;stroke-dasharray:none;stroke-opacity:1;paint-order:markers fill stroke"
     d="m 17.726224,12.808707 0.96406,-0.721796 0.13002,0.173663 8.61189,-6.6530453"
     id="path37" /><rect
     style="fill:#424242;fill-opacity:1;fill-rule:evenodd;stroke:#333333;stroke-width:0.119521;stroke-linejoin:bevel;stroke-dasharray:none;stroke-opacity:1;paint-order:markers fill stroke"
     id="rect37"
     width="2.2111406"
     height="0.27639258"
     x="-5.9405723"
     y="22.699907"
     ry="0"
     transform="rotate(-40.180027)" /><circle
     style="fill:#333333;fill-opacity:1;fill-rule:evenodd;stroke:#575757;stroke-width:0.119521;stroke-dasharray:none;stroke-opacity:1"
     id="path39"
     cx="5.5821052"
     cy="20.597343"
     r="0.19543907"
     transform="rotate(-36.822299)" /><rect
     style="fill:#454545;fill-opacity:1;fill-rule:evenodd;stroke:#333333;stroke-width:0.119521;stroke-linejoin:bevel;stroke-dasharray:none;stroke-opacity:1;paint-order:markers fill stroke"
     id="rect39"
     width="1.889928"
     height="0.84411782"
     x="-5.7421741"
     y="18.7295"
     transform="rotate(-36.822299)" /><path
     style="fill:#454545;fill-opacity:1;fill-rule:evenodd;stroke:#333333;stroke-width:0.119521;stroke-linejoin:bevel;stroke-dasharray:none;stroke-opacity:1;paint-order:markers fill stroke"
     d="M 9.5904939,21.181373 11.960174,19.173892"
     id="path40-8" /><circle
     style="fill:#565656;fill-opacity:1;fill-rule:evenodd;stroke:#333333;stroke-width:0.119521;stroke-dasharray:none;stroke-opacity:1"
     id="path42-3"
     cx="-7.8490305"
     cy="21.843943"
     r="0.26938903"
     transform="rotate(-36.822299)" /><rect
     style="fill:#565656;fill-opacity:1;fill-rule:evenodd;stroke:#333333;stroke-width:0.119521;stroke-linejoin:bevel;stroke-dasharray:none;stroke-opacity:1;paint-order:markers fill stroke"
     id="rect42"
     width="0.92965627"
     height="0.41728893"
     x="1.833128"
     y="18.706337"
     ry="0.20864446"
     transform="rotate(-36.822299)" /><path
     style="fill:#565656;fill-opacity:0;fill-rule:evenodd;stroke:#333333;stroke-width:0.119521;stroke-linejoin:bevel;stroke-dasharray:none;stroke-opacity:1;paint-order:markers fill stroke"
     d="m 1.6357639,23.693675 1.24379,-0.931233 -0.10745,-0.143514 1.69826,-1.27149"
     id="path43" /><path
     style="fill:#565656;fill-opacity:0;fill-rule:evenodd;stroke:#333333;stroke-width:0.119521;stroke-linejoin:bevel;stroke-dasharray:none;stroke-opacity:1;paint-order:markers fill stroke"
     d="m 7.0745439,19.416346 2.49955,-1.871418 0.094,0.125576 2.0809601,-1.558022 -0.094,-0.125576 3.83304,-2.869807 0.0806,0.107637 1.38731,-1.038682"
     id="path44-6" /><path
     style="fill:#565656;fill-opacity:0;fill-rule:evenodd;stroke:#333333;stroke-width:0.119521;stroke-linejoin:bevel;stroke-dasharray:none;stroke-opacity:1;paint-order:markers fill stroke"
     d="m 17.115924,12.434224 -5.54759,4.153491 -0.0761,0.05698 -1.21776,0.911741 -5.2008601,3.893899 -3.05286,2.285686"
     id="path45" /><path
     style="fill:#565656;fill-opacity:0;fill-rule:evenodd;stroke:#333333;stroke-width:0.119521;stroke-linejoin:bevel;stroke-dasharray:none;stroke-opacity:1;paint-order:markers fill stroke"
     d="M 17.623164,12.964991 10.112374,18.8123 2.5359639,24.522105"
     id="path46-4" /><path
     style="fill:#565656;fill-opacity:0;fill-rule:evenodd;stroke:#333333;stroke-width:0.121672;stroke-linejoin:bevel;stroke-dasharray:none;stroke-opacity:1;paint-order:markers fill stroke"
     d="m 3.5898839,23.761034 0.89989,1.201936"
     id="path47" /><path
     style="fill:#565656;fill-opacity:0;fill-rule:evenodd;stroke:#333333;stroke-width:0.121672;stroke-linejoin:bevel;stroke-dasharray:none;stroke-opacity:1;paint-order:markers fill stroke"
     d="m 3.0362239,23.009084 0.57754,0.771392"
     id="path48" /><path
     style="fill:#565656;fill-opacity:0;fill-rule:evenodd;stroke:#333333;stroke-width:0.121672;stroke-linejoin:bevel;stroke-dasharray:none;stroke-opacity:1;paint-order:markers fill stroke"
     d="m 3.4458239,22.721081 -0.28653,-0.382706 z"
     id="path49" /><rect
     style="fill:#60634f;fill-opacity:1;fill-rule:evenodd;stroke:#333333;stroke-width:0.121672;stroke-linejoin:bevel;stroke-dasharray:none;stroke-opacity:1;paint-order:markers fill stroke"
     id="rect49"
     width="0.47011018"
     height="0.76065421"
     x="3.1396291"
     y="23.504181"
     ry="0.20864446"
     transform="rotate(-63.875307)" /><path
     style="fill:none;fill-opacity:1;fill-rule:evenodd;stroke:#525544;stroke-width:0.121672;stroke-linejoin:bevel;stroke-dasharray:none;stroke-opacity:1;paint-order:markers fill stroke"
     d="m 21.867724,7.4914597 0.48352,0.645815 -0.0195,0.135941 -4.71207,3.5279353 -0.23005,-0.03306 -0.37607,-0.502301 0.24517,-0.18356"
     id="path53" /><path
     style="fill:#4d4d4d;fill-opacity:1;fill-rule:evenodd;stroke:#333333;stroke-width:2.13572;stroke-linejoin:bevel;stroke-dasharray:none;stroke-opacity:1;paint-order:markers fill stroke"
     d="m 24.473958,115.22604 3.96875,-4.89479 0.529167,-18.917709 2.116666,-3.96875 3.704167,-1.322917 4.101042,0.926042 2.778124,1.897478 42.013953,2.107265 3.884607,1.829385 1.813337,2.468147 0.241885,4.975039 -0.923288,15.39123 z"
     id="path55"
     clip-path="url(#clipPath127-1)"
     transform="matrix(0.09040294,-0.06768493,0.06768493,0.09040294,-2.0249661,7.9855507)" /><path
     style="fill:#4d4d4d;fill-opacity:0;fill-rule:evenodd;stroke:#333333;stroke-width:0.121672;stroke-linejoin:bevel;stroke-dasharray:none;stroke-opacity:1;paint-order:markers fill stroke"
     d="m 11.374214,13.737311 -2.4270701,1.817153 -0.20723,0.08298 -0.11572,-0.04954 -0.62517,-0.491572 -0.0892,-0.222886 -0.10324,-0.257814 1.28878,-1.9303 2.9236201,-1.858998 0.25357,-0.03148 0.17113,0.01705 0.73202,1.365513 -0.0614,0.217573 -1.21143,0.920196 -0.27248,-0.09953 -0.16484,0.04423 -0.10152,0.128799 -0.009,0.164797 z"
     id="path54-9" /><path
     style="fill:#4d4d4d;fill-opacity:1;fill-rule:evenodd;stroke:#333333;stroke-width:0.136068;stroke-linejoin:bevel;stroke-dasharray:none;stroke-opacity:0;paint-order:markers fill stroke"
     d="m 11.417704,13.812064 -0.008,-0.223494 -0.006,-0.176519 0.0769,-0.09525 0.13882,-0.05123 0.28277,0.112063"
     id="path129" /><ellipse
     style="fill:#565656;fill-opacity:1;fill-rule:evenodd;stroke:#333333;stroke-width:0.121672;stroke-dasharray:none;stroke-opacity:1"
     id="path42-6-9-7"
     cy="17.775887"
     cx="1.2076702"
     rx="0.14057413"
     ry="0.13000987"
     transform="rotate(-36.822299)" /><circle
     style="fill:#5e5e5e;fill-opacity:1;fill-rule:evenodd;stroke:#333333;stroke-width:0.119521;stroke-dasharray:none;stroke-opacity:1"
     id="path130"
     cx="-2.451601"
     cy="15.633156"
     r="0.38470861"
     transform="rotate(-36.822299)" /><circle
     style="fill:#3c3c3c;fill-opacity:0.817391;fill-rule:evenodd;stroke-width:0.0298802"
     id="path131"
     cx="-2.4665394"
     cy="15.614479"
     r="0.11205106"
     transform="rotate(-36.822299)" /><path
     style="fill:#4b4f3e;fill-opacity:1;stroke:#333333;stroke-width:0.239042;stroke-linecap:round;stroke-linejoin:round;stroke-dasharray:none;stroke-opacity:1"
     d="m 0.81089391,22.29001 -0.50519,0.378236 c -0.30074,0.209334 -0.20719,0.559255 0.0621,0.738353 0.70168999,0.525805 1.31878999,0.816329 1.81299999,1.497477 l 1.24016,1.710135 c 0.16778,0.202586 0.40549,0.379881 0.73028,-0.02387 l 1.22904,-1.957944 c 0.1144,-0.215843 0.13684,-0.436496 0.11775,-0.659312 l -1.86893,1.528394 z"
     id="path1"
     sodipodi:nodetypes="cccccccccc" /><path
     style="fill:none;fill-opacity:1;stroke:#333333;stroke-width:0.239042;stroke-linecap:round;stroke-linejoin:round;stroke-dasharray:none;stroke-opacity:1"
     d="m 17.621114,15.705656 c 0.42065,-0.0165 0.94244,0.04549 1.44692,-0.332217 0.64394,-0.538095 0.78201,-0.931495 0.33105,-1.533824 -0.56044,-0.748543 -1.21939,-0.290351 -1.57429,0.131697"
     id="path5"
     sodipodi:nodetypes="cccc" /><rect
     style="fill:#585858;fill-opacity:1;stroke:#333333;stroke-width:0.239042;stroke-linecap:butt;stroke-linejoin:round;stroke-dasharray:none;stroke-opacity:1"
     id="rect11"
     width="0.34617543"
     height="1.0186503"
     x="21.190641"
     y="19.148323"
     transform="rotate(-36.822299)" /><rect
     style="fill:#585858;fill-opacity:1;stroke:#333333;stroke-width:0.239042;stroke-linecap:butt;stroke-linejoin:round;stroke-dasharray:none;stroke-opacity:1"
     id="rect11-3"
     width="0.34617543"
     height="1.0186503"
     x="22.704939"
     y="19.148323"
     transform="rotate(-36.822299)" /></svg>
