<?xml version="1.0" encoding="UTF-8" standalone="no"?>
<!-- Created with Inkscape (http://www.inkscape.org/) -->

<svg
   width="12.504495mm"
   height="41.946293mm"
   viewBox="0 0 12.504495 41.946293"
   version="1.1"
   id="svg1"
   xml:space="preserve"
   inkscape:export-filename="..\Desktop\Spring-Mode\client\public\img\game\weapons\sword.svg"
   inkscape:export-xdpi="96"
   inkscape:export-ydpi="96"
   sodipodi:docname="baseball_bat.svg"
   inkscape:version="1.3 (0e150ed6c4, 2023-07-21)"
   xmlns:inkscape="http://www.inkscape.org/namespaces/inkscape"
   xmlns:sodipodi="http://sodipodi.sourceforge.net/DTD/sodipodi-0.dtd"
   xmlns="http://www.w3.org/2000/svg"
   xmlns:svg="http://www.w3.org/2000/svg"><sodipodi:namedview
     id="namedview1"
     pagecolor="#ffffff"
     bordercolor="#000000"
     borderopacity="0.25"
     inkscape:showpageshadow="2"
     inkscape:pageopacity="0.0"
     inkscape:pagecheckerboard="0"
     inkscape:deskcolor="#d1d1d1"
     inkscape:document-units="mm"
     showguides="true"
     inkscape:zoom="1.8006786"
     inkscape:cx="-8.0525199"
     inkscape:cy="160.21738"
     inkscape:window-width="2560"
     inkscape:window-height="1369"
     inkscape:window-x="-8"
     inkscape:window-y="-8"
     inkscape:window-maximized="1"
     inkscape:current-layer="layer1" /><defs
     id="defs1"><linearGradient
       id="swatch7"
       inkscape:swatch="solid"><stop
         style="stop-color:#000000;stop-opacity:1;"
         offset="0"
         id="stop7" /></linearGradient></defs><g
     inkscape:label="Layer 1"
     inkscape:groupmode="layer"
     id="layer1"><rect
       style="opacity:1;fill:#99794c;fill-opacity:1;stroke:#775e3b;stroke-width:0.664228;stroke-linecap:round;stroke-linejoin:round;stroke-dasharray:none;stroke-opacity:1"
       id="rect19"
       width="3.918179"
       height="1.9216547"
       x="28.825298"
       y="-6.4684649"
       transform="rotate(90.575308)" /><path
       style="opacity:1;fill:#837b71;fill-opacity:1;stroke:#68615a;stroke-width:0.664228;stroke-linecap:round;stroke-linejoin:round;stroke-dasharray:none;stroke-opacity:1"
       d="M 7.6864777,0.33199179 C 7.6795477,7.0727415 7.6615417,17.357042 7.6643127,20.554257 c 0.0023,2.980728 -0.1372233,6.537052 -1.1135431,9.713547 L 3.8516921,30.240674 C 3.0568795,26.702174 2.8251161,23.792991 3.0018686,20.156419 L 3.3960124,9.7170673 C 3.8851599,5.1336074 4.9461156,2.701704 7.6865012,0.33195716 Z"
       id="path20"
       sodipodi:nodetypes="csccccc" /><path
       style="color:#000000;fill:#775e3b;fill-opacity:1;stroke-width:1.45281;stroke-linecap:round;stroke-linejoin:round;stroke-dasharray:none"
       d="m 12.05299,26.497472 c -0.375072,-0.0046 -0.432439,0.276432 -0.472962,0.668786 -0.02494,1.426942 -1.534587,2.748167 -2.5733066,2.750833 L 4.3406993,29.666417 c -0.9914437,-0.03787 -2.3009506,0.203005 -3.1002066,0.742326 -0.80045602,0.54012 -1.18157702,1.695742 -1.24017802434,2.810359 -3.36000003e-4,0.007 -4.05000003e-4,0.01351 -1.97e-4,0.02032 L 0.10309868,37.806794 c 5.54e-4,0.0058 9.84e-4,0.01037 0.0023,0.0158 0.09074,1.077394 0.43028,2.063319 0.99340702,2.79938 0.563103,0.736068 1.190409,1.254217 2.1446204,1.276324 l 3.2998645,0.04792 c 0.146497,0.0034 0.2681345,-0.112333 0.2709052,-0.258862 0.0023,-0.145661 -0.1132555,-0.265924 -0.2588717,-0.268684 l -3.299865,-0.04791 C 2.4690997,41.352502 2.0055937,40.937331 1.5191607,40.30148 1.0327137,39.665633 0.71490568,38.771663 0.63122768,37.778268 l -0.08855,-4.248779 c 0.053131,-1.005158 0.49666202,-1.642865 1.09856802,-2.049004 0.688113,-0.464312 1.7596901,-0.614073 2.650993,-0.579276 1.7562384,0.04237 2.8503744,0.09363 4.6066126,0.136079 1.3437137,0.04884 3.5507237,-0.704911 3.6053777,-3.826579 0.0069,-0.408459 -0.119998,-0.706999 -0.451118,-0.713257 z"
       id="path19"
       sodipodi:nodetypes="ccccsscccsccsccsccssccc" /><rect
       style="fill:#99794c;fill-opacity:1;stroke:#775e3b;stroke-width:0.664228;stroke-linecap:round;stroke-linejoin:round;stroke-dasharray:none;stroke-opacity:1"
       id="rect19-4"
       width="3.918179"
       height="1.9216547"
       x="37.58606"
       y="-6.4680414"
       transform="rotate(90.575308)" /><rect
       style="opacity:1;fill:#643935;fill-opacity:1;stroke:#432623;stroke-width:0.664228;stroke-linecap:round;stroke-linejoin:round;stroke-dasharray:none;stroke-opacity:1"
       id="rect18"
       width="7.9880695"
       height="3.3806183"
       x="32.130451"
       y="-7.2092242"
       ry="0.9733057"
       rx="3.7434831"
       transform="rotate(90.575308)" /></g></svg>
