<?xml version="1.0" encoding="UTF-8" standalone="no"?>
<svg
   width="550.47998"
   height="613.45703"
   viewBox="0 0 550.47998 613.45703"
   fill="none"
   version="1.1"
   id="svg52"
   sodipodi:docname="bank_tree.svg"
   inkscape:version="1.3 (0e150ed6c4, 2023-07-21)"
   inkscape:export-filename="bank_tree.svg"
   inkscape:export-xdpi="96"
   inkscape:export-ydpi="96"
   xmlns:inkscape="http://www.inkscape.org/namespaces/inkscape"
   xmlns:sodipodi="http://sodipodi.sourceforge.net/DTD/sodipodi-0.dtd"
   xmlns="http://www.w3.org/2000/svg"
   xmlns:svg="http://www.w3.org/2000/svg">
  <defs
     id="defs56" />
  <sodipodi:namedview
     id="namedview54"
     pagecolor="#505050"
     bordercolor="#ffffff"
     borderopacity="1"
     inkscape:pageshadow="0"
     inkscape:pageopacity="0"
     inkscape:pagecheckerboard="1"
     showgrid="false"
     inkscape:zoom="1.5334507"
     inkscape:cx="411.49024"
     inkscape:cy="383.44891"
     inkscape:window-width="1350"
     inkscape:window-height="746"
     inkscape:window-x="1239"
     inkscape:window-y="619"
     inkscape:window-maximized="0"
     inkscape:current-layer="svg52"
     height="609.877px"
     inkscape:showpageshadow="2"
     inkscape:deskcolor="#505050" />
  <path
     d="m 308.87993,131.20943 -66.25114,121.74451 c 0,0 -23.91195,20.09754 -38.71737,33.55504 -29.88949,27.16598 -73.13286,73.13352 -73.13286,73.13352 l 3.44162,71.84185 17.23079,-59.34715 87.30716,-46.91085 33.1245,77.86526 -77.15995,53.42542 -11.46052,79.93366 32.01458,-59.3796 c 0,0 40.8182,-22.15727 59.61759,-34.40101 19.99153,-13.02045 31.40445,-25.81158 31.40445,-25.81158 l 21.5082,30.11279 -13.76474,79.58533 46.19472,-87.34827 -74.15905,-114.84095 88.1899,-57.64657 15.48694,-64.52979 -33.84496,43.37642 -71.55194,27.60518 43.44913,-115.23039 55.14762,-31.37199 z"
     fill="#5b3e24"
     id="path2"
     style="opacity:0.9;stroke-width:2.16359" />
  <path
     d="m 242.65259,252.52338 6.02342,-42.1594 -21.07982,-71.84207 44.74079,-64.959481 -13.33634,76.574691 33.55504,60.22686 -7.74347,62.8065 91.20161,18.49865 58.93607,-30.97388 70.1218,25.38101 -70.1218,8.60459 -58.93607,42.15962 -88.1899,-11.61629 c 14.32943,36.77878 21.93876,93.78277 21.93876,93.78277 l -28.39274,58.07712 -12.47523,52.91264 -16.34805,-64.95948 16.34805,-57.21602 c 0,0 -12.03386,-53.13765 -29.68439,-82.59703 l -47.75054,17.20915 c -27.13959,1.62918 -64.89004,-9.24067 -64.89004,-9.24067 L 76.807279,354.82851 116.8336,307.40057 h 54.40747 l 32.69459,-21.32431 -25.38145,-33.55288 -16.26129,-42.1594 -48.68068,-35.76515 70.31653,20.55406 c 0,0 32.45357,50.84512 58.72382,57.37049 z"
     fill="#6d4a2c"
     stroke="#1b1917"
     stroke-width="12.3191"
     stroke-miterlimit="16"
     stroke-linejoin="round"
     id="path4"
     style="stroke:#312114;stroke-width:9.48392;stroke-miterlimit:16;stroke-dasharray:none;stroke-opacity:1" />
  <path
     opacity="0.95"
     d="m 126.90705,448.26295 c 70.08891,0 126.90747,-56.62536 126.90747,-126.47671 0,-69.85135 -56.81856,-126.47757 -126.90747,-126.47757 C 56.818347,195.30867 0,251.93489 0,321.78624 0,391.63759 56.818347,448.26295 126.90705,448.26295 Z"
     fill="#3a4f3f"
     id="path6"
     style="fill:#ffa4d0;fill-opacity:0.772549;stroke-width:2.16359" />
  <path
     opacity="0.95"
     d="m 269.78611,266.78574 c 73.92105,0 133.84587,-59.72253 133.84587,-133.39304 C 403.63198,59.72219 343.70716,0 269.78611,0 195.86527,0 135.94045,59.72219 135.94045,133.3927 c 0,73.67051 59.92482,133.39304 133.84566,133.39304 z"
     fill="#3a4f3f"
     id="path8"
     style="fill:#ffa4d0;fill-opacity:0.772549;stroke-width:2.16359" />
  <path
     opacity="0.95"
     d="m 281.7767,613.45701 c 70.08934,0 126.90726,-56.62534 126.90726,-126.47671 0,-69.85135 -56.81792,-126.4767 -126.90726,-126.4767 -70.08891,0 -126.90705,56.62535 -126.90705,126.4767 0,69.85137 56.81814,126.47671 126.90705,126.47671 z"
     fill="#3a4f3f"
     id="path10"
     style="fill:#ffa4d0;fill-opacity:0.772549;stroke-width:2.16359" />
  <path
     opacity="0.95"
     d="m 423.57275,406.28774 c 70.08935,0 126.90726,-56.62536 126.90726,-126.47671 0,-69.85135 -56.81791,-126.47757 -126.90726,-126.47757 -70.08934,0 -126.90726,56.62622 -126.90726,126.47757 0,69.85135 56.81792,126.47671 126.90726,126.47671 z"
     fill="#3a4f3f"
     id="path12"
     style="fill:#ffa4d0;fill-opacity:0.772549;stroke-width:2.16359" />
  <path
     opacity="0.85"
     d="m 154.43953,277.9044 c 48.23065,0 87.32815,-38.90559 87.32815,-86.89867 0,-47.99308 -39.0975,-86.8991 -87.32815,-86.8991 -48.23064,0 -87.329224,38.90602 -87.329224,86.8991 0,47.99308 39.098584,86.89867 87.329224,86.89867 z"
     fill="#485e52"
     id="path14"
     style="opacity:0.8;fill:#ff89c7;fill-opacity:0.772549;stroke-width:2.16359" />
  <path
     opacity="0.85"
     d="m 275.75328,597.96791 c 48.23064,0 87.3288,-38.90559 87.3288,-86.89824 0,-47.99265 -39.09816,-86.90041 -87.3288,-86.90041 -48.23064,0 -87.32945,38.90776 -87.32945,86.90041 0,47.99265 39.09881,86.89824 87.32945,86.89824 z"
     fill="#485e52"
     id="path16"
     style="opacity:0.8;fill:#ff89c7;fill-opacity:0.772549;stroke-width:2.16359" />
  <path
     opacity="0.85"
     d="m 456.06133,385.44142 c 48.23064,0 87.32879,-38.9056 87.32879,-86.89824 0,-47.99265 -39.09815,-86.89954 -87.32879,-86.89954 -48.23064,0 -87.3288,38.90689 -87.3288,86.89954 0,47.99264 39.09816,86.89824 87.3288,86.89824 z"
     fill="#485e52"
     id="path18"
     style="opacity:0.8;fill:#ff89c7;fill-opacity:0.771154;stroke-width:2.16359" />
  <path
     opacity="0.85"
     d="m 291.24239,145.26602 c 32.54898,0 58.93606,-26.19453 58.93606,-58.506585 0,-32.312282 -26.38708,-58.506594 -58.93606,-58.506594 -32.55115,0 -58.93823,26.194312 -58.93823,58.506594 0,32.312055 26.38708,58.506585 58.93823,58.506585 z"
     fill="#485e52"
     id="path20"
     style="opacity:0.8;fill:#ff89c7;fill-opacity:0.772549;stroke-width:2.16359" />
  <path
     opacity="0.85"
     d="m 87.329228,456.00426 c 48.230642,0 87.329232,-38.90559 87.329232,-86.89824 0,-47.99482 -39.09859,-86.90041 -87.329232,-86.90041 C 39.0988,282.20561 0,321.1112 0,369.10602 c 0,47.99265 39.0988,86.89824 87.329228,86.89824 z"
     fill="#485e52"
     id="path22"
     style="opacity:0.8;fill:#ff89c7;fill-opacity:0.772549;stroke-width:2.16359" />
  <path
     d="m 10.86466,435.37447 c 16.688383,2.96844 52.787155,-4.83778 42.178014,-24.83147 -12.332436,-18.98113 -36.678785,8.79065 -42.183769,24.82282 l -0.0082,0.004 c 0.003,0 0.01169,0.002 0.01397,0.004 z"
     fill="#77a37a"
     id="path24"
     style="fill:#ff6ab7;fill-opacity:0.772549;stroke-width:2.16359" />
  <path
     d="m 37.086882,472.18138 0.0043,-0.0152 C 55.225725,459.56333 81.304501,419.2038 53.043101,410.54297 24.129379,404.39839 27.340572,452.34128 37.078437,472.16188 l -0.0043,0.0152 c 0.0015,-0.002 0.0058,-0.004 0.0072,-0.006 0.0011,0.004 0.0031,0.006 0.0056,0.0109 z"
     fill="#5f926a"
     id="path26"
     style="fill:#ff6ab7;fill-opacity:0.772549;stroke-width:2.16359" />
  <path
     d="m 321.85495,498.15955 c -3.94638,16.48436 -25.53031,46.45435 -39.61957,28.73891 -12.46874,-18.89027 22.71981,-30.10845 39.61308,-28.74756 l 0.008,-0.006 c 0,0.004 -0.002,0.013 -0.002,0.0152 z"
     fill="#5f926a"
     id="path28"
     style="fill:#ff6ab7;fill-opacity:0.772549;stroke-width:2.16359" />
  <path
     d="m 305.00711,586.35595 -0.006,-0.013 c -19.43332,-10.48906 -49.87497,-47.66595 -22.76524,-59.44451 28.04223,-9.35102 30.23177,38.65245 22.77822,59.43801 l 0.006,0.0152 c -0.002,-0.002 -0.006,-0.004 -0.008,-0.004 0,0.004 -0.002,0.006 -0.004,0.008 z"
     fill="#587e60"
     id="path30"
     style="fill:#ff6ab7;fill-opacity:0.772549;stroke-width:2.16359" />
  <path
     d="m 257.50127,557.3942 0.006,-0.008 c -0.67936,-13.84695 9.48516,-41.81561 24.72762,-30.48708 14.23206,12.57259 -11.03213,28.29754 -24.72112,30.49357 0,0 -0.008,0 -0.013,0.002 z"
     fill="#77a37a"
     id="path32"
     style="fill:#ff6ab7;fill-opacity:0.772549;stroke-width:2.16359" />
  <path
     d="m 213.21484,37.881229 -0.002,0.008 c -13.98023,9.583818 -34.24632,40.460561 -12.66196,47.2791 22.10167,4.88689 19.98785,-31.985796 12.67277,-47.27607 -0.002,-0.0028 -0.006,-0.007 -0.008,-0.01103 z"
     fill="#5f926a"
     id="path34"
     style="fill:#ff6ab7;fill-opacity:0.772549;stroke-width:2.16359" />
  <path
     d="m 168.7099,30.033256 0.007,0.01385 c -4.0948,21.700113 5.60824,68.761771 31.83262,55.12253 24.92364,-15.891318 -10.9815,-47.824972 -31.82115,-55.12902 l -0.007,-0.01385 c 2.2e-4,0.0024 -4.3e-4,0.0078 -8.6e-4,0.0093 -0.004,-0.0026 -0.006,-0.0026 -0.0105,-0.0028 z"
     fill="#587e60"
     id="path36"
     style="fill:#ff6ab7;fill-opacity:0.772549;stroke-width:2.16359" />
  <path
     d="m 162.62395,95.336752 0.008,-0.0026 c 12.36899,6.261858 42.05274,8.369618 37.91683,-10.164307 -5.68504,-18.118945 -30.3378,-1.450468 -37.919,10.15587 -8.7e-4,0.0013 -0.003,0.008 -0.006,0.01103 z"
     fill="#77a37a"
     id="path38"
     style="fill:#ff6ab7;fill-opacity:0.772549;stroke-width:2.16359" />
  <path
     d="m 221.81077,276.34013 c 7.72184,15.09101 10.81793,51.8936 -11.40751,47.59888 -21.75831,-6.24195 -2.3226,-37.64639 11.39669,-47.60104 l 0.002,-0.006 c 0.002,0.002 0.006,0.008 0.008,0.008 z"
     fill="#5f926a"
     id="path40"
     style="fill:#ff6ab7;fill-opacity:0.772549;stroke-width:2.16359" />
  <path
     d="m 238.89444,350.95786 -0.006,-0.006 c -13.85777,-0.3916 -40.95625,-12.69159 -28.4849,-27.0102 13.6362,-13.21734 27.35983,13.18706 28.49139,27.00371 0,0.002 0,0.008 0,0.013 z"
     fill="#77a37a"
     id="path42"
     style="fill:#ff6ab7;fill-opacity:0.772549;stroke-width:2.16359" />
  <path
     d="m 264.67788,290.65225 -0.0173,0.006 c -6.74606,21.02789 -37.7113,57.77206 -54.26099,33.28243 -14.33354,-25.85267 32.45205,-36.80691 54.2545,-33.29324 l 0.0152,-0.008 c 0,0.002 -0.002,0.008 -0.002,0.008 0.004,0 0.008,0.002 0.0109,0.004 z"
     fill="#587e60"
     id="path44"
     style="fill:#ff6ab7;fill-opacity:0.772549;stroke-width:2.16359" />
  <path
     d="m 534.5715,303.27078 c -9.58468,-13.98109 -40.4612,-34.24739 -47.27866,-12.66347 -4.88755,22.10103 31.98428,19.98937 47.2765,12.67429 l 0.006,0.002 c 0,-0.004 -0.004,-0.0109 -0.004,-0.013 z"
     fill="#5f926a"
     id="path46"
     style="fill:#ff6ab7;fill-opacity:0.772549;stroke-width:2.16359" />
  <path
     d="m 523.93166,234.08964 -0.008,0.0152 c -20.83966,7.3021 -56.74652,39.23661 -31.82202,55.12815 26.22483,13.63924 35.92634,-33.42307 31.83284,-55.12166 l 0.008,-0.0152 c -0.002,0.002 -0.006,0.004 -0.008,0.004 0,-0.004 -0.002,-0.006 -0.002,-0.0109 z"
     fill="#587e60"
     id="path48"
     style="fill:#ff6ab7;fill-opacity:0.772549;stroke-width:2.16359" />
  <path
     d="m 481.9343,251.30745 0.002,0.008 c -6.26143,12.36705 -8.36875,42.05144 10.16452,37.91683 18.12003,-5.68589 1.45176,-30.33995 -10.15587,-37.92115 l -0.002,-0.006 c 0.002,-0.002 0,0 0,0 -0.002,-0.002 -0.006,0.004 -0.008,0.002 z"
     fill="#77a37a"
     id="path50"
     style="fill:#ff6ab7;fill-opacity:0.772549;stroke-width:2.16359" />
</svg>
