<?xml version="1.0" encoding="UTF-8" standalone="no"?>
<!-- Created with Inkscape (http://www.inkscape.org/) -->

<svg
   width="201.1776"
   height="154.95647"
   viewBox="0 0 53.228232 40.998914"
   version="1.1"
   id="svg1"
   xml:space="preserve"
   sodipodi:docname="box_1.svg"
   inkscape:version="1.3.1 (91b66b0783, 2023-11-16, custom)"
   inkscape:export-filename="candy_box_.svg"
   inkscape:export-xdpi="96"
   inkscape:export-ydpi="96"
   xmlns:inkscape="http://www.inkscape.org/namespaces/inkscape"
   xmlns:sodipodi="http://sodipodi.sourceforge.net/DTD/sodipodi-0.dtd"
   xmlns="http://www.w3.org/2000/svg"
   xmlns:svg="http://www.w3.org/2000/svg"><sodipodi:namedview
     id="namedview1"
     pagecolor="#ffffff"
     bordercolor="#000000"
     borderopacity="0.25"
     inkscape:showpageshadow="2"
     inkscape:pageopacity="0.0"
     inkscape:pagecheckerboard="0"
     inkscape:deskcolor="#d1d1d1"
     inkscape:document-units="mm"
     inkscape:zoom="6.6778117"
     inkscape:cx="45.898269"
     inkscape:cy="45.898269"
     inkscape:window-width="1440"
     inkscape:window-height="840"
     inkscape:window-x="0"
     inkscape:window-y="0"
     inkscape:window-maximized="1"
     inkscape:current-layer="svg1" /><defs
     id="defs1" /><rect
     style="fill:none;fill-opacity:1;stroke:none;stroke-width:1.96165;stroke-linecap:butt;stroke-linejoin:bevel;stroke-miterlimit:4;stroke-dasharray:none;stroke-opacity:1"
     id="rect2620"
     width="33.151886"
     height="33.151886"
     x="7.8470116"
     y="7.8470116" /><rect
     style="fill:#bbd7dc;fill-opacity:1;stroke:#56878e;stroke-width:2.70977;stroke-linecap:square;stroke-linejoin:round;stroke-dasharray:none;stroke-opacity:1"
     id="rect7-954"
     width="38.526833"
     height="28.136768"
     x="2.9585381"
     y="10.323265"
     ry="0"
     rx="0" /><rect
     style="fill:#d17373;fill-opacity:1;stroke:#6c2424;stroke-width:2.70977;stroke-linecap:square;stroke-linejoin:round;stroke-dasharray:none;stroke-opacity:1"
     id="rect1-91"
     width="50.518471"
     height="33.505863"
     x="1.354885"
     y="1.354885" /><g
     id="g35"
     transform="matrix(1.1846901,0,0,1.1846901,-1905.7669,-451.75484)"><path
       d="m 1645.6793,393.814 c -0.2707,-1.01032 -0.9166,-1.85001 -1.8216,-2.37251 -0.905,-0.5225 -2.1287,-0.36739 -3.1391,-0.0967 l -0.5276,0.14142 -0.1436,-0.53585 c -0.2707,-1.01033 -0.7493,-2.15169 -1.6543,-2.67424 -0.9025,-0.52105 -1.9567,-0.65942 -2.9629,-0.38979 -1.0104,0.27068 -1.8541,0.91765 -2.3741,1.82419 -2.3823,4.12633 -0.4711,8.11207 1.3334,11.23741 0.055,0.0951 0.098,0.19502 0.1864,0.24592 0.088,0.0509 0.1984,0.0696 0.3048,0.0411 3.6376,-2e-5 8.0034,-0.3327 10.4032,-4.45437 0.5225,-0.90504 0.6661,-1.95626 0.3954,-2.96659 z"
       id="path3-3-9-4-8"
       style="fill:#c65252;fill-opacity:1;stroke:#2e0f0f;stroke-width:1.63456;stroke-dasharray:none;stroke-opacity:1"
       sodipodi:nodetypes="ssscssscssccs" /><path
       d="m 1626.836,387.8893 c -1.0103,-0.27073 -2.0604,-0.13121 -2.9654,0.3913 -0.905,0.5225 -1.3825,1.65981 -1.6533,2.67019 l -0.1413,0.52762 -0.5359,-0.14356 c -1.0103,-0.27073 -2.2381,-0.42693 -3.1431,0.0956 -0.9025,0.52106 -1.5494,1.36484 -1.819,2.37105 -0.2708,1.01037 -0.1324,2.06452 0.3927,2.96812 2.3824,4.1263 6.7897,4.46402 10.3986,4.46395 0.1099,-8e-5 0.2179,0.0126 0.3062,-0.0385 0.088,-0.0508 0.1595,-0.13702 0.188,-0.24341 1.8188,-3.15027 3.7135,-7.0975 1.344,-11.23662 -0.5226,-0.90502 -1.3611,-1.55499 -2.3715,-1.82572 z"
       id="path3-3-9-4-8-8"
       style="fill:#c65252;fill-opacity:1;stroke:#2e0f0f;stroke-width:1.63456;stroke-dasharray:none;stroke-opacity:1"
       sodipodi:nodetypes="ssscssscssccs" /><path
       d="m 1637.0506,393.52908 c -0.7396,-0.73962 -1.7188,-1.14386 -2.7638,-1.14386 -1.045,0 -2.0272,0.74618 -2.7669,1.4858 l -0.3862,0.38627 -0.3923,-0.39226 c -0.7396,-0.73962 -1.7247,-1.4888 -2.7698,-1.4888 -1.0421,0 -2.0242,0.40724 -2.7608,1.14386 -0.7397,0.73962 -1.1469,1.72178 -1.1439,2.76682 0,4.76468 3.648,7.26084 6.7734,9.06522 0.095,0.055 0.1826,0.11977 0.2844,0.11977 0.1018,0 0.2066,-0.0389 0.2845,-0.11678 3.1503,-1.81885 6.7648,-4.28982 6.7823,-9.05922 0,-1.04505 -0.4013,-2.02721 -1.1409,-2.76682 z"
       id="path3-3-9-4"
       style="fill:#c65252;fill-opacity:1;stroke:#2e0f0f;stroke-width:1.63456;stroke-dasharray:none;stroke-opacity:1"
       sodipodi:nodetypes="ssscssscssccs" /></g></svg>
