<?xml version="1.0" encoding="UTF-8" standalone="no"?>
<svg
   width="807.95807"
   height="818.10645"
   viewBox="0 0 807.95807 818.10645"
   fill="none"
   version="1.1"
   id="svg52"
   sodipodi:docname="oak_tree_1 - Copy.svg"
   inkscape:version="1.3 (0e150ed6c4, 2023-07-21)"
   xmlns:inkscape="http://www.inkscape.org/namespaces/inkscape"
   xmlns:sodipodi="http://sodipodi.sourceforge.net/DTD/sodipodi-0.dtd"
   xmlns="http://www.w3.org/2000/svg"
   xmlns:svg="http://www.w3.org/2000/svg">
  <defs
     id="defs56" />
  <sodipodi:namedview
     id="namedview54"
     pagecolor="#505050"
     bordercolor="#ffffff"
     borderopacity="1"
     inkscape:pageshadow="0"
     inkscape:pageopacity="0"
     inkscape:pagecheckerboard="1"
     showgrid="false"
     inkscape:zoom="1.5334507"
     inkscape:cx="411.49024"
     inkscape:cy="383.44891"
     inkscape:window-width="1350"
     inkscape:window-height="746"
     inkscape:window-x="1239"
     inkscape:window-y="619"
     inkscape:window-maximized="0"
     inkscape:current-layer="svg52"
     height="609.877px"
     inkscape:showpageshadow="2"
     inkscape:deskcolor="#505050"
     showguides="false" />
  <path
     d="m 453.35351,192.58051 -97.23905,178.68854 c 0,0 -35.09638,29.49783 -56.82678,49.24987 -43.86983,39.87242 -107.33957,107.34052 -107.33957,107.34052 l 5.05138,105.44471 25.29021,-87.10582 128.14367,-68.85263 48.61794,114.28547 -113.25026,78.4143 -16.82099,117.32132 46.98888,-87.15343 c 0,0 59.91025,-32.52099 87.50275,-50.49153 29.34224,-19.11056 46.09337,-37.88452 46.09337,-37.88452 l 31.5683,44.19756 -20.20296,116.81006 67.80155,-128.204 -108.84575,-168.55594 129.4393,-84.60981 22.73071,-94.71256 -49.6754,63.66504 -105.01919,40.51705 63.77174,-169.12753 80.94204,-46.04573 z"
     fill="#5b3e24"
     id="path2"
     style="opacity:0.9;stroke-width:3.17557" />
  <path
     d="m 356.1494,370.6371 8.84077,-61.87878 -30.93956,-105.44503 65.66757,-95.34322 -19.5742,112.39126 49.24987,88.39699 -11.36536,92.18322 133.85969,27.1511 86.50245,-45.46142 102.92014,37.25258 -102.92014,12.62924 -86.50245,61.8791 -129.4393,-17.04963 c 21.03179,53.98147 32.20026,137.64814 32.20026,137.64814 l -41.67298,85.24176 -18.31032,77.66166 -23.99458,-95.34322 23.99458,-83.97788 c 0,0 -17.66249,-77.99193 -43.56878,-121.23046 l -70.08508,25.25846 c -39.83369,2.3912 -95.24129,-13.56284 -95.24129,-13.56284 l -73.03806,31.75566 58.74799,-69.61159 h 79.85568 l 47.98695,-31.2984 -37.25321,-49.2467 -23.86725,-61.87878 -71.45027,-52.49371 103.20594,30.16789 c 0,0 47.6332,74.62709 86.19094,84.2046 z"
     fill="#6d4a2c"
     stroke="#1b1917"
     stroke-width="12.3191"
     stroke-miterlimit="16"
     stroke-linejoin="round"
     id="path4"
     style="stroke:#312114;stroke-width:13.9199;stroke-miterlimit:16;stroke-dasharray:none;stroke-opacity:1" />
  <path
     opacity="0.95"
     d="m 186.26575,657.93068 c 102.87187,0 186.26639,-83.11095 186.26639,-185.63414 0,-102.52318 -83.39452,-185.6354 -186.26639,-185.6354 C 83.394203,286.66114 0,369.77336 0,472.29654 0,574.81973 83.394203,657.93068 186.26575,657.93068 Z"
     fill="#3a4f3f"
     id="path6"
     style="fill:#ffa4d0;fill-opacity:0.772549;stroke-width:3.17557" />
  <path
     opacity="0.95"
     d="m 395.97418,391.57044 c 108.49642,0 196.45011,-87.65676 196.45011,-195.78547 C 592.42429,87.656279 504.4706,0 395.97418,0 287.47807,0 199.52438,87.656279 199.52438,195.78497 c 0,108.12871 87.95369,195.78547 196.4498,195.78547 z"
     fill="#3a4f3f"
     id="path8"
     style="fill:#ffa4d0;fill-opacity:0.772549;stroke-width:3.17557" />
  <path
     opacity="0.95"
     d="m 342.52351,755.62004 c 102.8725,0 186.26608,-83.11094 186.26608,-185.63414 0,-102.52318 -83.39358,-185.63413 -186.26608,-185.63413 -102.87186,0 -186.26576,83.11095 -186.26576,185.63413 0,102.5232 83.3939,185.63414 186.26576,185.63414 z"
     fill="#3a4f3f"
     id="path10"
     style="fill:#ffa4d0;fill-opacity:0.772549;stroke-width:3.17557" />
  <path
     opacity="0.95"
     d="m 621.69203,596.32223 c 102.87249,0 186.26606,-83.11095 186.26606,-185.63413 0,-102.52319 -83.39357,-185.6354 -186.26606,-185.6354 -102.8725,0 -186.26608,83.11221 -186.26608,185.6354 0,102.52318 83.39358,185.63413 186.26608,185.63413 z"
     fill="#3a4f3f"
     id="path12"
     style="fill:#ffa4d0;fill-opacity:0.772549;stroke-width:3.17557" />
  <path
     opacity="0.85"
     d="m 226.67612,407.88968 c 70.78974,0 128.17446,-57.10305 128.17446,-127.54411 0,-70.44107 -57.38472,-127.54475 -128.17446,-127.54475 -70.78975,0 -128.176061,57.10368 -128.176061,127.54475 0,70.44106 57.386311,127.54411 128.176061,127.54411 z"
     fill="#485e52"
     id="path14"
     style="opacity:0.8;fill:#ff89c7;fill-opacity:0.772549;stroke-width:3.17557" />
  <path
     opacity="0.85"
     d="m 261.9491,718.53944 c 70.78974,0 128.17542,-57.10306 128.17542,-127.54349 0,-70.44043 -57.38568,-127.54666 -128.17542,-127.54666 -70.78975,0 -128.17638,57.10623 -128.17638,127.54666 0,70.44043 57.38663,127.54349 128.17638,127.54349 z"
     fill="#485e52"
     id="path16"
     style="opacity:0.8;fill:#ff89c7;fill-opacity:0.772549;stroke-width:3.17557" />
  <path
     opacity="0.85"
     d="m 669.37661,565.72539 c 70.78974,0 128.17542,-57.10305 128.17542,-127.54349 0,-70.44043 -57.38568,-127.54537 -128.17542,-127.54537 -70.78975,0 -128.17542,57.10494 -128.17542,127.54537 0,70.44044 57.38567,127.54349 128.17542,127.54349 z"
     fill="#485e52"
     id="path18"
     style="opacity:0.8;fill:#ff89c7;fill-opacity:0.771154;stroke-width:3.17557" />
  <path
     opacity="0.85"
     d="m 427.46629,213.21185 c 47.77323,0 86.50244,-38.44659 86.50244,-85.87209 0,-47.42583 -38.72921,-85.87211 -86.50244,-85.87211 -47.77642,0 -86.50564,38.44628 -86.50564,85.87211 0,47.4255 38.72922,85.87209 86.50564,85.87209 z"
     fill="#485e52"
     id="path20"
     style="opacity:0.8;fill:#ff89c7;fill-opacity:0.772549;stroke-width:3.17557" />
  <path
     opacity="0.85"
     d="m 128.17605,669.29285 c 70.78975,0 128.17606,-57.10305 128.17606,-127.54348 0,-70.44361 -57.38631,-127.54666 -128.17606,-127.54666 C 57.386626,414.20271 0,471.30576 0,541.74937 0,612.1898 57.386626,669.29285 128.17605,669.29285 Z"
     fill="#485e52"
     id="path22"
     style="opacity:0.8;fill:#ff89c7;fill-opacity:0.772549;stroke-width:3.17557" />
  <path
     d="m 15.94642,639.01382 c 24.49411,4.35687 77.477495,-7.10058 61.906101,-36.44599 C 59.751788,574.70858 24.01783,615.47016 15.93798,639.00112 l -0.0121,0.006 c 0.004,0 0.0172,0.003 0.0205,0.006 z"
     fill="#77a37a"
     id="path24"
     style="fill:#ff6ab7;fill-opacity:0.772549;stroke-width:3.17557" />
  <path
     d="m 54.433665,693.03656 0.0063,-0.0223 C 81.056617,674.51659 119.33332,615.27955 77.853105,602.56776 35.41546,593.54915 40.12864,663.91655 54.421229,693.0079 l -0.0063,0.0223 c 0.0022,-0.003 0.0085,-0.006 0.01052,-0.009 0.0015,0.006 0.0045,0.009 0.0082,0.0159 z"
     fill="#5f926a"
     id="path26"
     style="fill:#ff6ab7;fill-opacity:0.772549;stroke-width:3.17557" />
  <path
     d="m 472.39738,731.1656 c -5.79223,24.19465 -37.4717,68.18261 -58.15098,42.18106 -18.3008,-27.72588 33.34663,-44.19118 58.14145,-42.19376 l 0.0124,-0.009 c 0,0.006 -0.003,0.019 -0.003,0.0223 z"
     fill="#5f926a"
     id="path28"
     style="fill:#ff6ab7;fill-opacity:0.772549;stroke-width:3.17557" />
  <path
     d="m 304.88593,701.49617 -0.009,-0.019 c -28.52293,-15.39514 -73.20317,-69.96092 -33.41331,-87.24871 41.15853,-13.7248 44.3722,56.73151 33.43237,87.23919 l 0.009,0.0223 c -0.003,-0.003 -0.009,-0.006 -0.0124,-0.006 0,0.006 -0.003,0.009 -0.006,0.0124 z"
     fill="#587e60"
     id="path30"
     style="fill:#ff6ab7;fill-opacity:0.772549;stroke-width:3.17557" />
  <path
     d="m 377.94331,818.10629 0.009,-0.0124 c -0.99713,-20.32363 13.92168,-61.37419 36.29356,-44.74692 20.88887,18.45322 -16.19223,41.53325 -36.28403,44.75645 0,0 -0.0124,0 -0.019,0.003 z"
     fill="#77a37a"
     id="path32"
     style="fill:#ff6ab7;fill-opacity:0.772549;stroke-width:3.17557" />
  <path
     d="m 312.94262,55.59956 -0.003,0.0118 c -20.51925,14.066491 -50.26447,59.38533 -18.58438,69.39313 32.43937,7.17265 29.33685,-46.946634 18.60025,-69.38869 -0.003,-0.004 -0.009,-0.0102 -0.0124,-0.0162 z"
     fill="#5f926a"
     id="path34"
     style="fill:#ff6ab7;fill-opacity:0.772549;stroke-width:3.17557" />
  <path
     d="m 247.62121,44.08083 0.0108,0.0203 c -6.01008,31.849989 8.23139,100.92398 46.7218,80.9052 C 330.93508,101.68211 278.2359,54.812 247.64883,44.09161 l -0.0108,-0.0203 c 3.2e-4,0.004 -6.4e-4,0.0114 -10e-4,0.0136 -0.006,-0.004 -0.009,-0.004 -0.0155,-0.004 z"
     fill="#587e60"
     id="path36"
     style="fill:#ff6ab7;fill-opacity:0.772549;stroke-width:3.17557" />
  <path
     d="m 238.68866,139.92897 0.0124,-0.004 c 18.15439,9.19073 61.72223,12.28437 55.65182,-14.91849 -8.34413,-26.593791 -44.52782,-2.1289 -55.65501,14.90611 -0.001,0.002 -0.005,0.0118 -0.009,0.0162 z"
     fill="#77a37a"
     id="path38"
     style="fill:#ff6ab7;fill-opacity:0.772549;stroke-width:3.17557" />
  <path
     d="m 325.55915,405.59375 c 11.3336,22.14958 15.87784,76.16598 -16.74318,69.86248 -31.93541,-9.16152 -3.40896,-55.25487 16.72731,-69.86565 l 0.003,-0.009 c 0.003,0.003 0.009,0.0124 0.0124,0.0124 z"
     fill="#5f926a"
     id="path40"
     style="fill:#ff6ab7;fill-opacity:0.772549;stroke-width:3.17557" />
  <path
     d="m 350.63343,515.11271 -0.009,-0.009 c -20.33952,-0.57477 -60.11286,-18.62787 -41.80824,-39.64378 20.01431,-19.39954 40.15694,19.35508 41.81777,39.63425 0,0.003 0,0.0124 0,0.019 z"
     fill="#77a37a"
     id="path42"
     style="fill:#ff6ab7;fill-opacity:0.772549;stroke-width:3.17557" />
  <path
     d="m 388.47666,426.60012 -0.0254,0.009 c -9.90143,30.86334 -55.35015,84.794 -79.6407,48.84975 -21.03781,-37.94484 47.63098,-54.02274 79.63117,-48.86562 l 0.0223,-0.0124 c 0,0.003 -0.003,0.0124 -0.003,0.0124 0.006,0 0.0124,0.003 0.0159,0.006 z"
     fill="#587e60"
     id="path44"
     style="fill:#ff6ab7;fill-opacity:0.772549;stroke-width:3.17557" />
  <path
     d="m 784.60864,445.12077 c -14.06777,-20.52052 -59.38628,-50.26605 -69.39249,-18.5866 -7.17362,32.43842 46.9444,29.33907 69.38932,18.60247 l 0.009,0.003 c 0,-0.006 -0.006,-0.0159 -0.006,-0.019 z"
     fill="#5f926a"
     id="path46"
     style="fill:#ff6ab7;fill-opacity:0.772549;stroke-width:3.17557" />
  <path
     d="m 768.99218,343.58128 -0.0124,0.0223 c -30.58707,10.71754 -83.28879,57.58891 -46.70625,80.91345 38.49106,20.01877 52.7303,-49.05617 46.72213,-80.90393 l 0.0124,-0.0223 c -0.003,0.003 -0.009,0.006 -0.0124,0.006 0,-0.006 -0.003,-0.009 -0.003,-0.0159 z"
     fill="#587e60"
     id="path48"
     style="fill:#ff6ab7;fill-opacity:0.772549;stroke-width:3.17557" />
  <path
     d="m 707.35124,368.85243 0.003,0.0124 c -9.1901,18.15154 -12.28309,61.72032 14.91881,55.65182 26.59539,-8.34539 2.13081,-44.53097 -14.90611,-55.65817 l -0.003,-0.009 c 0.003,-0.003 0,0 0,0 -0.003,-0.003 -0.009,0.006 -0.0124,0.003 z"
     fill="#77a37a"
     id="path50"
     style="fill:#ff6ab7;fill-opacity:0.772549;stroke-width:3.17557" />
</svg>
