<?xml version="1.0" encoding="UTF-8" standalone="no"?>
<!-- Created with Inkscape (http://www.inkscape.org/) -->

<svg
   width="57.750336mm"
   height="99.823479mm"
   viewBox="0 0 57.750336 99.823479"
   version="1.1"
   id="svg1"
   inkscape:export-filename="flower_garden_3.svg"
   inkscape:export-xdpi="96"
   inkscape:export-ydpi="96"
   xml:space="preserve"
   xmlns:inkscape="http://www.inkscape.org/namespaces/inkscape"
   xmlns:sodipodi="http://sodipodi.sourceforge.net/DTD/sodipodi-0.dtd"
   xmlns="http://www.w3.org/2000/svg"
   xmlns:svg="http://www.w3.org/2000/svg"><sodipodi:namedview
     id="namedview1"
     pagecolor="#ffffff"
     bordercolor="#000000"
     borderopacity="0.25"
     inkscape:showpageshadow="2"
     inkscape:pageopacity="0.0"
     inkscape:pagecheckerboard="0"
     inkscape:deskcolor="#d1d1d1"
     inkscape:document-units="mm" /><defs
     id="defs1"><inkscape:path-effect
       effect="bspline"
       id="path-effect47"
       is_visible="true"
       lpeversion="1.3"
       weight="33.333333"
       steps="2"
       helper_size="0"
       apply_no_weight="true"
       apply_with_weight="true"
       only_selected="false"
       uniform="false" /><inkscape:path-effect
       effect="bspline"
       id="path-effect30"
       is_visible="true"
       lpeversion="1.3"
       weight="33.333333"
       steps="2"
       helper_size="0"
       apply_no_weight="true"
       apply_with_weight="true"
       only_selected="false"
       uniform="false" /></defs><g
     inkscape:label="Layer 1"
     inkscape:groupmode="layer"
     id="layer1"><rect
       style="fill:#451e02;fill-opacity:1;stroke:#803902;stroke-width:3.20563;stroke-linecap:round;stroke-linejoin:miter;stroke-miterlimit:5;stroke-dasharray:none;stroke-opacity:1;paint-order:fill markers stroke"
       id="rect3"
       width="90.521805"
       height="47.559875"
       x="-95.172646"
       y="5.0825372"
       ry="0"
       transform="rotate(-90)"
       sodipodi:insensitive="true" /><rect
       style="fill:none;fill-opacity:1;stroke:#181818;stroke-width:3.53016;stroke-linecap:round;stroke-linejoin:round;stroke-miterlimit:5;stroke-dasharray:none;stroke-opacity:1;paint-order:fill markers stroke"
       id="rect2"
       width="96.29332"
       height="54.220173"
       x="-98.058403"
       y="1.76508"
       ry="0"
       transform="rotate(-90)"
       sodipodi:insensitive="true" /><path
       style="fill:#3e1b02;fill-opacity:1;stroke:#341702;stroke-width:2.5;stroke-linecap:round;stroke-linejoin:round;stroke-miterlimit:5;stroke-dasharray:none;stroke-opacity:1;paint-order:fill markers stroke"
       d="M 20.283529,90.441779 C 15.403633,89.83374 14.717642,89.397201 12.597269,87.042959 10.476895,84.688718 6.9222804,80.416944 7.6395037,75.443447 8.3567271,70.46995 13.345658,64.795042 13.719793,59.83715 14.093928,54.879258 9.8533357,50.638665 12.425899,48.066187 c 2.572563,-2.572478 11.95799,-3.476722 17.89808,-5.737413 5.940089,-2.26069 8.434555,-5.877666 11.630693,-2.291691 3.196137,3.585974 7.09374,14.374537 8.122709,23.401638 1.02897,9.0271 -0.810699,16.292233 -2.416557,20.860333 -1.605859,4.5681 -2.977814,6.43895 -8.200798,6.984617 -5.222983,0.545668 -14.2966,-0.233853 -19.176497,-0.841892 z"
       id="path47"
       inkscape:path-effect="#path-effect47"
       inkscape:original-d="M 16.089625,90.270281 C 15.403633,89.83374 14.717642,89.397201 14.03165,88.96066 10.476894,84.688719 6.9222807,80.416944 3.367596,76.145087 8.3567269,70.46995 13.345658,64.795042 18.334689,59.120018 14.093928,54.879258 9.8533364,50.638664 5.6126599,46.397989 14.998462,45.493709 24.383889,44.589467 33.769503,43.685203 c 2.494566,-3.617119 4.989031,-7.234095 7.483547,-10.851142 3.897759,10.788996 7.795363,21.577559 11.693043,32.366339 -1.839743,7.265421 -3.67941,14.530554 -5.519116,21.795829 -1.372012,1.870925 -2.743967,3.741775 -4.115951,5.612662 -9.073983,-0.779552 -18.1476,-1.559073 -27.221401,-2.33861 z" /><path
       style="fill:#3e1b02;fill-opacity:1;stroke:#341702;stroke-width:2.5;stroke-linecap:round;stroke-linejoin:round;stroke-miterlimit:5;stroke-dasharray:none;stroke-opacity:1;paint-order:fill markers stroke"
       d="m 10.445784,19.581947 c 1.403165,-5.363208 2.026794,-9.198526 5.363269,-10.8667284 3.336475,-1.6682023 9.385554,-1.1693092 12.79993,1.8085734 3.414376,2.977883 4.193897,8.434526 6.688454,8.995749 2.494558,0.561222 6.703968,-3.772911 9.603858,-0.982073 2.89989,2.790838 4.490113,12.706339 3.804092,21.702266 -0.686021,8.995927 -3.6482,17.071762 -6.095962,17.726504 -2.447762,0.654741 -4.380973,-6.111496 -8.606124,-7.545804 C 29.77815,48.986127 23.261358,52.88373 21.10986,51.075132 18.958362,49.266533 21.172201,41.751953 19.160935,38.742959 17.14967,35.733965 10.913505,37.230644 8.8867331,34.53338 6.8599614,31.836116 9.0426186,24.945156 10.445784,19.581947 Z"
       id="path29"
       inkscape:path-effect="#path-effect30"
       inkscape:original-d="m 11.22532,18.054056 c 0.623629,-3.835317 1.247258,-7.670635 1.870887,-11.5059528 6.049321,0.4989132 12.0984,0.9978062 18.1476,1.4967093 0.779552,5.4568625 1.559073,10.9135055 2.338609,16.3702585 4.209579,-4.334308 8.418989,-8.668441 12.628483,-13.002662 1.590286,9.915897 3.180509,19.831398 4.770763,29.747097 -2.962296,8.076155 -5.924476,16.15199 -8.886711,24.227983 C 40.161662,58.620979 38.228452,51.854742 36.295203,45.088368 29.77815,48.986127 23.261358,52.883731 16.744436,56.781411 18.958362,49.266533 21.172201,41.751953 23.386083,34.237226 17.14967,35.733966 10.913505,37.230645 4.6772165,38.727353 6.8599615,31.836116 9.042619,24.945156 11.22532,18.054056 Z" /><path
       style="fill:#f0dc67;fill-opacity:1;stroke:#d5c309;stroke-width:1.39555;stroke-linecap:round;stroke-linejoin:round;stroke-miterlimit:5;stroke-dasharray:none;stroke-opacity:1;paint-order:fill markers stroke"
       d="m 34.996038,24.507477 c 0,0 3.356574,-4.07341 6.199992,-6.013891 2.843417,-1.94048 4.59776,-1.467278 4.59776,-1.467278 0,0 0.525108,1.419302 -1.326375,4.506577 -1.802102,3.004937 -2.674264,4.258388 -4.839193,5.295074 -2.164929,1.036686 -2.827775,1.097782 -2.827775,1.097782 z"
       id="path28"
       sodipodi:nodetypes="cscsscc" /><path
       style="fill:#426300;fill-opacity:1;stroke:#334b08;stroke-width:2.47854;stroke-linecap:round;stroke-linejoin:round;stroke-miterlimit:5;stroke-dasharray:none;stroke-opacity:1;paint-order:fill markers stroke"
       d="M 28.589074,20.344605 48.100453,9.0797054 37.080576,28.166695 Z"
       id="path20-0" /><path
       style="fill:#426300;fill-opacity:1;stroke:#334b08;stroke-width:2.47854;stroke-linecap:round;stroke-linejoin:round;stroke-miterlimit:5;stroke-dasharray:none;stroke-opacity:1;paint-order:fill markers stroke"
       d="m 37.443086,26.737635 11.2649,19.51137 L 29.621,35.229125 Z"
       id="path21-6" /><path
       style="fill:#426300;fill-opacity:1;stroke:#334b08;stroke-width:2.47854;stroke-linecap:round;stroke-linejoin:round;stroke-miterlimit:5;stroke-dasharray:none;stroke-opacity:1;paint-order:fill markers stroke"
       d="m 30.100117,35.066075 -19.511383,11.2649 11.01988,-19.08697 z"
       id="path22-8" /><path
       style="fill:#426300;fill-opacity:1;stroke:#334b08;stroke-width:2.47854;stroke-linecap:round;stroke-linejoin:round;stroke-miterlimit:5;stroke-dasharray:none;stroke-opacity:1;paint-order:fill markers stroke"
       d="M 21.246104,28.673045 9.9812041,9.1616754 29.068191,20.181555 Z"
       id="path23-9" /><path
       style="fill:#75ae00;fill-opacity:1;stroke:#6b9d11;stroke-width:2;stroke-linecap:round;stroke-linejoin:round;stroke-miterlimit:5;stroke-dasharray:none;stroke-opacity:1;paint-order:fill markers stroke"
       d="m 28.734944,21.765755 15.744277,-9.08996 -8.892247,15.40183 z"
       id="path17-7" /><path
       style="fill:#75ae00;fill-opacity:1;stroke:#6b9d11;stroke-width:2;stroke-linecap:round;stroke-linejoin:round;stroke-miterlimit:5;stroke-dasharray:none;stroke-opacity:1;paint-order:fill markers stroke"
       d="m 35.879494,26.924475 9.089962,15.74427 -15.401822,-8.89225 z"
       id="path18-3" /><path
       style="fill:#75ae00;fill-opacity:1;stroke:#6b9d11;stroke-width:2;stroke-linecap:round;stroke-linejoin:round;stroke-miterlimit:5;stroke-dasharray:none;stroke-opacity:1;paint-order:fill markers stroke"
       d="m 29.954247,33.644925 -15.744273,9.08996 8.89224,-15.40182 z"
       id="path16-6" /><path
       style="fill:#75ae00;fill-opacity:1;stroke:#6b9d11;stroke-width:2;stroke-linecap:round;stroke-linejoin:round;stroke-miterlimit:5;stroke-dasharray:none;stroke-opacity:1;paint-order:fill markers stroke"
       d="m 22.809694,28.486215 -9.08996,-15.74427 15.401823,8.89225 z"
       id="path15-2" /><path
       style="fill:#426300;fill-opacity:1;stroke:#334b08;stroke-width:2.18237;stroke-linecap:round;stroke-linejoin:round;stroke-miterlimit:5;stroke-dasharray:none;stroke-opacity:1;paint-order:fill markers stroke"
       d="M 34.165539,75.801972 28.996755,94.956118 24.008819,76.200254 Z"
       id="path20-0-6" /><path
       style="fill:#426300;fill-opacity:1;stroke:#334b08;stroke-width:2.18237;stroke-linecap:round;stroke-linejoin:round;stroke-miterlimit:5;stroke-dasharray:none;stroke-opacity:1;paint-order:fill markers stroke"
       d="M 24.67076,77.317026 5.5204911,72.147201 24.272564,67.158262 Z"
       id="path21-6-6" /><path
       style="fill:#426300;fill-opacity:1;stroke:#334b08;stroke-width:2.18237;stroke-linecap:round;stroke-linejoin:round;stroke-miterlimit:5;stroke-dasharray:none;stroke-opacity:1;paint-order:fill markers stroke"
       d="m 24.075068,67.557763 5.168788,-19.154148 4.98792,18.755853 z"
       id="path22-8-8" /><path
       style="fill:#426300;fill-opacity:1;stroke:#334b08;stroke-width:2.18237;stroke-linecap:round;stroke-linejoin:round;stroke-miterlimit:5;stroke-dasharray:none;stroke-opacity:1;paint-order:fill markers stroke"
       d="m 33.569848,66.042709 19.150269,5.169824 -18.752074,4.98894 z"
       id="path23-9-6" /><path
       style="fill:#75ae00;fill-opacity:1;stroke:#6b9d11;stroke-width:1.76101;stroke-linecap:round;stroke-linejoin:round;stroke-miterlimit:5;stroke-dasharray:none;stroke-opacity:1;paint-order:fill markers stroke"
       d="M 33.191447,75.00611 29.020608,90.462124 24.995702,75.32749 Z"
       id="path17-7-0" /><path
       style="fill:#75ae00;fill-opacity:1;stroke:#6b9d11;stroke-width:1.76101;stroke-linecap:round;stroke-linejoin:round;stroke-miterlimit:5;stroke-dasharray:none;stroke-opacity:1;paint-order:fill markers stroke"
       d="M 25.529841,76.228647 10.076953,72.05697 25.208525,68.031257 Z"
       id="path18-3-6" /><path
       style="fill:#75ae00;fill-opacity:1;stroke:#6b9d11;stroke-width:1.76101;stroke-linecap:round;stroke-linejoin:round;stroke-miterlimit:5;stroke-dasharray:none;stroke-opacity:1;paint-order:fill markers stroke"
       d="m 25.04916,68.353625 4.170836,-15.456011 4.024906,15.134622 z"
       id="path16-6-5" /><path
       style="fill:#75ae00;fill-opacity:1;stroke:#6b9d11;stroke-width:1.76101;stroke-linecap:round;stroke-linejoin:round;stroke-miterlimit:5;stroke-dasharray:none;stroke-opacity:1;paint-order:fill markers stroke"
       d="m 32.710763,67.131081 15.452885,4.171677 -15.131572,4.025714 z"
       id="path15-2-2" /><path
       style="fill:#f0dc67;fill-opacity:1;stroke:#d5c309;stroke-width:1.39555;stroke-linecap:round;stroke-linejoin:round;stroke-miterlimit:5;stroke-dasharray:none;stroke-opacity:1;paint-order:fill markers stroke"
       d="m 39.461625,31.617667 c 0,0 4.604458,-2.580355 7.018772,-5.034245 2.414314,-2.45389 2.259977,-4.264365 2.259977,-4.264365 0,0 -1.303575,-0.768663 -4.670434,0.50551 -3.277064,1.240189 -4.665405,1.876046 -6.069857,3.822621 -1.404452,1.946573 -1.582219,2.588055 -1.582219,2.588055 z"
       id="path28-1"
       sodipodi:nodetypes="cscsscc" /><path
       style="fill:#f0dc67;fill-opacity:1;stroke:#d5c309;stroke-width:1.39555;stroke-linecap:round;stroke-linejoin:round;stroke-miterlimit:5;stroke-dasharray:none;stroke-opacity:1;paint-order:fill markers stroke"
       d="m 28.593706,20.389598 c 0,0 0.591584,-5.24493 1.916423,-8.422238 1.324838,-3.177309 3.053352,-3.7375581 3.053352,-3.7375581 0,0 1.21425,0.903189 1.346303,4.5006631 0.128532,3.501528 0.08119,5.027818 -1.167922,7.077538 -1.249113,2.049721 -1.77136,2.462464 -1.77136,2.462464 z"
       id="path28-3"
       sodipodi:nodetypes="cscsscc" /><path
       style="fill:#f0dc67;fill-opacity:1;stroke:#d5c309;stroke-width:1.39555;stroke-linecap:round;stroke-linejoin:round;stroke-miterlimit:5;stroke-dasharray:none;stroke-opacity:1;paint-order:fill markers stroke"
       d="m 36.614737,24.842358 c 0,0 2.730583,-4.516988 3.618898,-7.842853 0.888315,-3.325866 -0.139627,-4.824191 -0.139627,-4.824191 0,0 -1.513118,-0.02498 -3.812184,2.745131 -2.23775,2.696239 -3.13126,3.934561 -3.391762,6.320725 -0.260502,2.386163 -0.09844,3.031789 -0.09844,3.031789 z"
       id="path28-1-8"
       sodipodi:nodetypes="cscsscc" /><path
       style="fill:#f0dc67;fill-opacity:1;stroke:#d5c309;stroke-width:1.39555;stroke-linecap:round;stroke-linejoin:round;stroke-miterlimit:5;stroke-dasharray:none;stroke-opacity:1;paint-order:fill markers stroke"
       d="m 21.316836,22.214524 c 0,0 -2.297607,-4.751868 -2.872009,-8.146063 -0.574402,-3.394193 0.588741,-4.7901649 0.588741,-4.7901649 0,0 1.508858,0.1161789 3.539677,3.0885559 1.976655,2.893106 2.750834,4.209332 2.787757,6.60939 0.03693,2.400055 -0.184619,3.027763 -0.184619,3.027763 z"
       id="path28-5"
       sodipodi:nodetypes="cscsscc" /><path
       style="fill:#f0dc67;fill-opacity:1;stroke:#d5c309;stroke-width:1.39555;stroke-linecap:round;stroke-linejoin:round;stroke-miterlimit:5;stroke-dasharray:none;stroke-opacity:1;paint-order:fill markers stroke"
       d="m 30.476595,21.701837 c 0,0 -0.100067,-5.27724 -1.122936,-8.564216 -1.022874,-3.2869777 -2.691634,-4.0059236 -2.691634,-4.0059236 0,0 -1.293158,0.7860609 -1.760002,4.3555576 -0.454393,3.474298 -0.549543,4.998357 0.503051,7.155595 1.052594,2.15724 1.534089,2.616871 1.534089,2.616871 z"
       id="path28-1-3"
       sodipodi:nodetypes="cscsscc" /><path
       style="fill:#f0dc67;fill-opacity:1;stroke:#d5c309;stroke-width:1.39555;stroke-linecap:round;stroke-linejoin:round;stroke-miterlimit:5;stroke-dasharray:none;stroke-opacity:1;paint-order:fill markers stroke"
       d="m 25.160046,23.014624 c 0,0 -3.480229,-3.968285 -6.381963,-5.820425 -2.901735,-1.852138 -4.6407,-1.325222 -4.6407,-1.325222 0,0 -0.481221,1.434775 1.464306,4.463666 1.893641,2.94811 2.803928,4.174152 4.999708,5.143785 2.195778,0.969634 2.860191,1.010322 2.860191,1.010322 z"
       id="path28-1-8-2"
       sodipodi:nodetypes="cscsscc" /><path
       style="fill:#f0dc67;fill-opacity:1;stroke:#d5c309;stroke-width:1.39555;stroke-linecap:round;stroke-linejoin:round;stroke-miterlimit:5;stroke-dasharray:none;stroke-opacity:1;paint-order:fill markers stroke"
       d="m 23.328701,31.556541 c 0,0 -3.356575,4.073411 -6.199992,6.013891 -2.843417,1.94048 -4.59776,1.467277 -4.59776,1.467277 0,0 -0.525107,-1.419301 1.326374,-4.506576 1.802103,-3.004936 2.674264,-4.258388 4.839194,-5.295074 2.164929,-1.036686 2.827775,-1.097782 2.827775,-1.097782 z"
       id="path28-6"
       sodipodi:nodetypes="cscsscc" /><path
       style="fill:#f0dc67;fill-opacity:1;stroke:#d5c309;stroke-width:1.39555;stroke-linecap:round;stroke-linejoin:round;stroke-miterlimit:5;stroke-dasharray:none;stroke-opacity:1;paint-order:fill markers stroke"
       d="m 20.980012,26.919153 c 0,0 -5.277239,0.100067 -8.564217,1.122937 -3.2869766,1.022873 -4.0059233,2.691633 -4.0059233,2.691633 0,0 0.7860606,1.293159 4.3555583,1.760002 3.474299,0.454393 4.998355,0.549544 7.155595,-0.503051 2.15724,-1.052594 2.61687,-1.534089 2.61687,-1.534089 z"
       id="path28-1-2"
       sodipodi:nodetypes="cscsscc" /><path
       style="fill:#f0dc67;fill-opacity:1;stroke:#d5c309;stroke-width:1.39555;stroke-linecap:round;stroke-linejoin:round;stroke-miterlimit:5;stroke-dasharray:none;stroke-opacity:1;paint-order:fill markers stroke"
       d="m 29.731033,35.67442 c 0,0 -0.591583,5.24493 -1.916423,8.422238 -1.324838,3.177309 -3.053353,3.737557 -3.053353,3.737557 0,0 -1.214248,-0.903188 -1.346303,-4.500661 -0.128531,-3.501529 -0.08119,-5.027819 1.167923,-7.077539 1.249113,-2.04972 1.77136,-2.462465 1.77136,-2.462465 z"
       id="path28-3-2"
       sodipodi:nodetypes="cscsscc" /><path
       style="fill:#f0dc67;fill-opacity:1;stroke:#d5c309;stroke-width:1.39555;stroke-linecap:round;stroke-linejoin:round;stroke-miterlimit:5;stroke-dasharray:none;stroke-opacity:1;paint-order:fill markers stroke"
       d="m 21.710002,31.221659 c 0,0 -2.730583,4.516989 -3.618898,7.842855 -0.888315,3.325864 0.139626,4.82419 0.139626,4.82419 0,0 1.513119,0.02498 3.812186,-2.745132 2.23775,-2.696238 3.131259,-3.93456 3.391761,-6.320724 0.260501,-2.386163 0.09844,-3.03179 0.09844,-3.03179 z"
       id="path28-1-8-4"
       sodipodi:nodetypes="cscsscc" /><path
       style="fill:#f0dc67;fill-opacity:1;stroke:#d5c309;stroke-width:1.39555;stroke-linecap:round;stroke-linejoin:round;stroke-miterlimit:5;stroke-dasharray:none;stroke-opacity:1;paint-order:fill markers stroke"
       d="m 37.007903,33.849494 c 0,0 2.297606,4.751869 2.872009,8.146063 0.574402,3.394193 -0.588741,4.790166 -0.588741,4.790166 0,0 -1.508859,-0.11618 -3.539677,-3.088558 -1.976655,-2.893105 -2.750835,-4.20933 -2.787758,-6.609388 -0.03693,-2.400056 0.184619,-3.027765 0.184619,-3.027765 z"
       id="path28-5-3"
       sodipodi:nodetypes="cscsscc" /><path
       style="fill:#f0dc67;fill-opacity:1;stroke:#d5c309;stroke-width:1.39555;stroke-linecap:round;stroke-linejoin:round;stroke-miterlimit:5;stroke-dasharray:none;stroke-opacity:1;paint-order:fill markers stroke"
       d="m 27.848144,34.362181 c 0,0 0.100067,5.27724 1.122937,8.564216 1.022873,3.286977 2.691632,4.005924 2.691632,4.005924 0,0 1.29316,-0.786062 1.760003,-4.355558 0.454393,-3.474298 0.549543,-4.998357 -0.503052,-7.155595 -1.052593,-2.15724 -1.534088,-2.616872 -1.534088,-2.616872 z"
       id="path28-1-3-8"
       sodipodi:nodetypes="cscsscc" /><path
       style="fill:#f0dc67;fill-opacity:1;stroke:#d5c309;stroke-width:1.39555;stroke-linecap:round;stroke-linejoin:round;stroke-miterlimit:5;stroke-dasharray:none;stroke-opacity:1;paint-order:fill markers stroke"
       d="m 36.751105,25.906551 c 0,0 5.244931,0.591583 8.422239,1.916422 3.177309,1.32484 3.737559,3.053353 3.737559,3.053353 0,0 -0.90319,1.21425 -4.500663,1.346304 -3.501528,0.128531 -5.02782,0.08119 -7.07754,-1.167923 -2.04972,-1.249113 -2.462463,-1.771359 -2.462463,-1.771359 z"
       id="path28-3-5-3"
       sodipodi:nodetypes="cscsscc" /><path
       style="fill:#f0dc67;fill-opacity:1;stroke:#d5c309;stroke-width:1.39555;stroke-linecap:round;stroke-linejoin:round;stroke-miterlimit:5;stroke-dasharray:none;stroke-opacity:1;paint-order:fill markers stroke"
       d="m 33.590684,34.222973 c 0,0 4.516988,2.730584 7.842855,3.618899 3.325866,0.888316 4.82419,-0.139627 4.82419,-0.139627 0,0 0.02498,-1.513119 -2.745131,-3.812184 -2.696239,-2.23775 -3.934561,-3.13126 -6.320725,-3.391762 -2.386164,-0.260503 -3.03179,-0.09844 -3.03179,-0.09844 z"
       id="path28-1-8-2-4"
       sodipodi:nodetypes="cscsscc" /><path
       style="fill:#f0dc67;fill-opacity:1;stroke:#d5c309;stroke-width:1.39555;stroke-linecap:round;stroke-linejoin:round;stroke-miterlimit:5;stroke-dasharray:none;stroke-opacity:1;paint-order:fill markers stroke"
       d="m 21.009065,29.27478 c 0,0 -5.121798,-1.275331 -8.097577,-3.006001 -2.9757812,-1.730671 -3.3041532,-3.517795 -3.3041532,-3.517795 0,0 1.0548452,-1.085105 4.6384982,-0.743522 3.488078,0.332473 4.994929,0.579867 6.862834,2.087371 1.867905,1.507504 2.208481,2.079436 2.208481,2.079436 z"
       id="path28-3-5"
       sodipodi:nodetypes="cscsscc" /><circle
       style="fill:#1b0900;fill-opacity:1;stroke:#0b0400;stroke-width:1.39555;stroke-linecap:round;stroke-linejoin:round;stroke-miterlimit:5;stroke-dasharray:none;stroke-opacity:1;paint-order:fill markers stroke"
       id="path27"
       cx="29.070845"
       cy="27.868351"
       r="9.8170509" /><ellipse
       style="fill:#100500;fill-opacity:1;stroke:#0a0300;stroke-width:0.359939;stroke-linecap:round;stroke-linejoin:round;stroke-miterlimit:5;stroke-dasharray:none;stroke-opacity:1;paint-order:fill markers stroke"
       id="path30"
       cx="17.799259"
       cy="28.930054"
       rx="1.8094451"
       ry="0.49997824"
       transform="rotate(-20.596437)" /><ellipse
       style="fill:#100500;fill-opacity:1;stroke:#0a0300;stroke-width:0.359939;stroke-linecap:round;stroke-linejoin:round;stroke-miterlimit:5;stroke-dasharray:none;stroke-opacity:1;paint-order:fill markers stroke"
       id="ellipse30"
       cx="-9.9767265"
       cy="36.105827"
       rx="1.8094451"
       ry="0.49997824"
       transform="rotate(-68.864938)" /><ellipse
       style="fill:#100500;fill-opacity:1;stroke:#0a0300;stroke-width:0.359939;stroke-linecap:round;stroke-linejoin:round;stroke-miterlimit:5;stroke-dasharray:none;stroke-opacity:1;paint-order:fill markers stroke"
       id="ellipse31"
       cx="-37.604137"
       cy="-13.937125"
       rx="1.8094451"
       ry="0.49997824"
       transform="rotate(-166.90812)" /><ellipse
       style="fill:#100500;fill-opacity:1;stroke:#0a0300;stroke-width:0.359939;stroke-linecap:round;stroke-linejoin:round;stroke-miterlimit:5;stroke-dasharray:none;stroke-opacity:1;paint-order:fill markers stroke"
       id="ellipse32"
       cx="-42.363617"
       cy="10.617858"
       rx="1.8094451"
       ry="0.49997824"
       transform="rotate(-131.21646)" /><ellipse
       style="fill:#100500;fill-opacity:1;stroke:#0a0300;stroke-width:0.359939;stroke-linecap:round;stroke-linejoin:round;stroke-miterlimit:5;stroke-dasharray:none;stroke-opacity:1;paint-order:fill markers stroke"
       id="ellipse33"
       cx="-22.958925"
       cy="-37.792488"
       rx="1.8094451"
       ry="0.49997824"
       transform="rotate(159.40356)" /><ellipse
       style="fill:#100500;fill-opacity:1;stroke:#0a0300;stroke-width:0.359939;stroke-linecap:round;stroke-linejoin:round;stroke-miterlimit:5;stroke-dasharray:none;stroke-opacity:1;paint-order:fill markers stroke"
       id="ellipse34"
       cx="40.005074"
       cy="-7.7465544"
       rx="1.8094451"
       ry="0.49997824"
       transform="rotate(50.41471)" /><ellipse
       style="fill:#100500;fill-opacity:1;stroke:#0a0300;stroke-width:0.359939;stroke-linecap:round;stroke-linejoin:round;stroke-miterlimit:5;stroke-dasharray:none;stroke-opacity:1;paint-order:fill markers stroke"
       id="ellipse35"
       cx="33.318729"
       cy="18.972977"
       rx="1.8094451"
       ry="0.49997824"
       transform="rotate(13.09188)" /><ellipse
       style="fill:#100500;fill-opacity:1;stroke:#0a0300;stroke-width:0.359939;stroke-linecap:round;stroke-linejoin:round;stroke-miterlimit:5;stroke-dasharray:none;stroke-opacity:1;paint-order:fill markers stroke"
       id="ellipse36"
       cx="34.43821"
       cy="-4.0316243"
       rx="1.8094451"
       ry="0.49997824"
       transform="rotate(48.78354)" /><ellipse
       style="fill:#100500;fill-opacity:1;stroke:#0a0300;stroke-width:0.359939;stroke-linecap:round;stroke-linejoin:round;stroke-miterlimit:5;stroke-dasharray:none;stroke-opacity:1;paint-order:fill markers stroke"
       id="ellipse37"
       cx="13.090392"
       cy="34.315018"
       rx="1.8094451"
       ry="0.49997824"
       transform="rotate(-20.596437)" /><ellipse
       style="fill:#100500;fill-opacity:1;stroke:#0a0300;stroke-width:0.359939;stroke-linecap:round;stroke-linejoin:round;stroke-miterlimit:5;stroke-dasharray:none;stroke-opacity:1;paint-order:fill markers stroke"
       id="ellipse38"
       cx="-17.129789"
       cy="36.176182"
       rx="1.8094451"
       ry="0.49997824"
       transform="rotate(-68.864938)" /><ellipse
       style="fill:#100500;fill-opacity:1;stroke:#0a0300;stroke-width:0.359939;stroke-linecap:round;stroke-linejoin:round;stroke-miterlimit:5;stroke-dasharray:none;stroke-opacity:1;paint-order:fill markers stroke"
       id="ellipse40"
       cx="-45.745285"
       cy="4.3142419"
       rx="1.8094451"
       ry="0.49997824"
       transform="rotate(-131.21646)" /><ellipse
       style="fill:#100500;fill-opacity:1;stroke:#0a0300;stroke-width:0.359939;stroke-linecap:round;stroke-linejoin:round;stroke-miterlimit:5;stroke-dasharray:none;stroke-opacity:1;paint-order:fill markers stroke"
       id="ellipse41"
       cx="-18.250059"
       cy="-43.177452"
       rx="1.8094451"
       ry="0.49997824"
       transform="rotate(159.40356)" /><ellipse
       style="fill:#100500;fill-opacity:1;stroke:#0a0300;stroke-width:0.359939;stroke-linecap:round;stroke-linejoin:round;stroke-miterlimit:5;stroke-dasharray:none;stroke-opacity:1;paint-order:fill markers stroke"
       id="ellipse42"
       cx="32.387539"
       cy="26.065517"
       rx="1.8094451"
       ry="0.49997824"
       transform="rotate(13.09188)" /><ellipse
       style="fill:#100500;fill-opacity:1;stroke:#0a0300;stroke-width:0.359939;stroke-linecap:round;stroke-linejoin:round;stroke-miterlimit:5;stroke-dasharray:none;stroke-opacity:1;paint-order:fill markers stroke"
       id="ellipse43"
       cx="37.819878"
       cy="2.271992"
       rx="1.8094451"
       ry="0.49997824"
       transform="rotate(48.78354)" /><ellipse
       style="fill:#100500;fill-opacity:1;stroke:#0a0300;stroke-width:0.36;stroke-linecap:round;stroke-linejoin:round;stroke-miterlimit:5;stroke-dasharray:none;stroke-opacity:1;paint-order:fill markers stroke"
       id="path43"
       cx="30.378521"
       cy="28.408245"
       rx="0.50280082"
       ry="0.3917169" /><ellipse
       style="fill:#100500;fill-opacity:1;stroke:#0a0300;stroke-width:0.36;stroke-linecap:round;stroke-linejoin:round;stroke-miterlimit:5;stroke-dasharray:none;stroke-opacity:1;paint-order:fill markers stroke"
       id="path44"
       cx="35.769012"
       cy="28.940277"
       rx="0.57295901"
       ry="0.40925646" /><ellipse
       style="fill:#100500;fill-opacity:1;stroke:#0a0300;stroke-width:0.36;stroke-linecap:round;stroke-linejoin:round;stroke-miterlimit:5;stroke-dasharray:none;stroke-opacity:1;paint-order:fill markers stroke"
       id="path45"
       cx="25.292048"
       cy="34.319077"
       rx="0.61973119"
       ry="0.46772167" /><ellipse
       style="fill:#100500;fill-opacity:1;stroke:#0a0300;stroke-width:0.36;stroke-linecap:round;stroke-linejoin:round;stroke-miterlimit:5;stroke-dasharray:none;stroke-opacity:1;paint-order:fill markers stroke"
       id="path46"
       cx="23.070372"
       cy="23.87719"
       rx="0.57295901"
       ry="0.51449382" /><path
       style="fill:#f0dc67;fill-opacity:1;stroke:#d5c309;stroke-width:1.39555;stroke-linecap:round;stroke-linejoin:round;stroke-miterlimit:5;stroke-dasharray:none;stroke-opacity:1;paint-order:fill markers stroke"
       d="m 25.596489,64.996422 c 0,0 -4.07341,-3.356574 -6.013891,-6.199992 -1.94048,-2.843417 -1.467278,-4.59776 -1.467278,-4.59776 0,0 1.419302,-0.525108 4.506577,1.326375 3.004937,1.802102 4.258388,2.674264 5.295074,4.839193 1.036686,2.164929 1.097782,2.827775 1.097782,2.827775 z"
       id="path28-64"
       sodipodi:nodetypes="cscsscc" /><path
       style="fill:#f0dc67;fill-opacity:1;stroke:#d5c309;stroke-width:1.39555;stroke-linecap:round;stroke-linejoin:round;stroke-miterlimit:5;stroke-dasharray:none;stroke-opacity:1;paint-order:fill markers stroke"
       d="m 32.706679,60.530835 c 0,0 -2.580355,-4.604458 -5.034245,-7.018772 -2.45389,-2.414314 -4.264365,-2.259977 -4.264365,-2.259977 0,0 -0.768663,1.303575 0.50551,4.670434 1.240189,3.277064 1.876046,4.665405 3.822621,6.069857 1.946573,1.404452 2.588055,1.582219 2.588055,1.582219 z"
       id="path28-1-9"
       sodipodi:nodetypes="cscsscc" /><path
       style="fill:#f0dc67;fill-opacity:1;stroke:#d5c309;stroke-width:1.39555;stroke-linecap:round;stroke-linejoin:round;stroke-miterlimit:5;stroke-dasharray:none;stroke-opacity:1;paint-order:fill markers stroke"
       d="m 21.47861,71.398754 c 0,0 -5.24493,-0.591584 -8.422238,-1.916423 -3.1773094,-1.324838 -3.7375584,-3.053352 -3.7375584,-3.053352 0,0 0.9031894,-1.21425 4.5006634,-1.346303 3.501528,-0.128532 5.027818,-0.08119 7.077538,1.167922 2.049721,1.249113 2.462464,1.77136 2.462464,1.77136 z"
       id="path28-3-1"
       sodipodi:nodetypes="cscsscc" /><path
       style="fill:#f0dc67;fill-opacity:1;stroke:#d5c309;stroke-width:1.39555;stroke-linecap:round;stroke-linejoin:round;stroke-miterlimit:5;stroke-dasharray:none;stroke-opacity:1;paint-order:fill markers stroke"
       d="m 25.93137,63.377723 c 0,0 -4.516988,-2.730583 -7.842853,-3.618898 -3.325866,-0.888315 -4.824191,0.139627 -4.824191,0.139627 0,0 -0.02498,1.513118 2.745131,3.812184 2.696239,2.23775 3.934561,3.13126 6.320725,3.391762 2.386163,0.260502 3.031789,0.09844 3.031789,0.09844 z"
       id="path28-1-8-27"
       sodipodi:nodetypes="cscsscc" /><path
       style="fill:#f0dc67;fill-opacity:1;stroke:#d5c309;stroke-width:1.39555;stroke-linecap:round;stroke-linejoin:round;stroke-miterlimit:5;stroke-dasharray:none;stroke-opacity:1;paint-order:fill markers stroke"
       d="m 23.303536,78.675624 c 0,0 -4.751868,2.297607 -8.146063,2.872009 -3.394193,0.574402 -4.790165,-0.588741 -4.790165,-0.588741 0,0 0.116179,-1.508858 3.088556,-3.539677 2.893106,-1.976655 4.209332,-2.750834 6.60939,-2.787757 2.400055,-0.03693 3.027763,0.184619 3.027763,0.184619 z"
       id="path28-5-6"
       sodipodi:nodetypes="cscsscc" /><path
       style="fill:#f0dc67;fill-opacity:1;stroke:#d5c309;stroke-width:1.39555;stroke-linecap:round;stroke-linejoin:round;stroke-miterlimit:5;stroke-dasharray:none;stroke-opacity:1;paint-order:fill markers stroke"
       d="m 22.790849,69.515865 c 0,0 -5.27724,0.100067 -8.564216,1.122936 -3.286977,1.022874 -4.005923,2.691634 -4.005923,2.691634 0,0 0.786061,1.293158 4.355557,1.760002 3.474298,0.454393 4.998357,0.549543 7.155595,-0.503051 2.15724,-1.052594 2.616871,-1.534089 2.616871,-1.534089 z"
       id="path28-1-3-9"
       sodipodi:nodetypes="cscsscc" /><path
       style="fill:#f0dc67;fill-opacity:1;stroke:#d5c309;stroke-width:1.39555;stroke-linecap:round;stroke-linejoin:round;stroke-miterlimit:5;stroke-dasharray:none;stroke-opacity:1;paint-order:fill markers stroke"
       d="m 24.103636,74.832414 c 0,0 -3.968285,3.480229 -5.820425,6.381963 -1.852138,2.901735 -1.325222,4.6407 -1.325222,4.6407 0,0 1.434775,0.481221 4.463666,-1.464306 2.94811,-1.893641 4.174152,-2.803928 5.143785,-4.999708 0.969634,-2.195778 1.010322,-2.860191 1.010322,-2.860191 z"
       id="path28-1-8-2-6"
       sodipodi:nodetypes="cscsscc" /><path
       style="fill:#f0dc67;fill-opacity:1;stroke:#d5c309;stroke-width:1.39555;stroke-linecap:round;stroke-linejoin:round;stroke-miterlimit:5;stroke-dasharray:none;stroke-opacity:1;paint-order:fill markers stroke"
       d="m 32.645553,76.663759 c 0,0 4.073411,3.356575 6.013891,6.199992 1.94048,2.843417 1.467277,4.59776 1.467277,4.59776 0,0 -1.419301,0.525107 -4.506576,-1.326374 -3.004936,-1.802103 -4.258388,-2.674264 -5.295074,-4.839194 -1.036686,-2.164929 -1.097782,-2.827775 -1.097782,-2.827775 z"
       id="path28-6-2"
       sodipodi:nodetypes="cscsscc" /><path
       style="fill:#f0dc67;fill-opacity:1;stroke:#d5c309;stroke-width:1.39555;stroke-linecap:round;stroke-linejoin:round;stroke-miterlimit:5;stroke-dasharray:none;stroke-opacity:1;paint-order:fill markers stroke"
       d="m 28.008165,79.012448 c 0,0 0.100067,5.277239 1.122937,8.564217 1.022873,3.286977 2.691633,4.005924 2.691633,4.005924 0,0 1.293159,-0.786061 1.760002,-4.355559 0.454393,-3.474299 0.549544,-4.998355 -0.503051,-7.155595 -1.052594,-2.15724 -1.534089,-2.61687 -1.534089,-2.61687 z"
       id="path28-1-2-0"
       sodipodi:nodetypes="cscsscc" /><path
       style="fill:#f0dc67;fill-opacity:1;stroke:#d5c309;stroke-width:1.39555;stroke-linecap:round;stroke-linejoin:round;stroke-miterlimit:5;stroke-dasharray:none;stroke-opacity:1;paint-order:fill markers stroke"
       d="m 36.763432,70.261427 c 0,0 5.24493,0.591583 8.422238,1.916423 3.177309,1.324838 3.737557,3.053353 3.737557,3.053353 0,0 -0.903188,1.214248 -4.500661,1.346303 -3.501529,0.128531 -5.027819,0.08119 -7.077539,-1.167923 -2.04972,-1.249113 -2.462465,-1.77136 -2.462465,-1.77136 z"
       id="path28-3-2-8"
       sodipodi:nodetypes="cscsscc" /><path
       style="fill:#f0dc67;fill-opacity:1;stroke:#d5c309;stroke-width:1.39555;stroke-linecap:round;stroke-linejoin:round;stroke-miterlimit:5;stroke-dasharray:none;stroke-opacity:1;paint-order:fill markers stroke"
       d="m 32.310671,78.282458 c 0,0 4.516989,2.730583 7.842855,3.618898 3.325864,0.888315 4.82419,-0.139626 4.82419,-0.139626 0,0 0.02498,-1.513119 -2.745132,-3.812186 -2.696238,-2.23775 -3.93456,-3.131259 -6.320724,-3.391761 -2.386163,-0.260501 -3.03179,-0.09844 -3.03179,-0.09844 z"
       id="path28-1-8-4-8"
       sodipodi:nodetypes="cscsscc" /><path
       style="fill:#f0dc67;fill-opacity:1;stroke:#d5c309;stroke-width:1.39555;stroke-linecap:round;stroke-linejoin:round;stroke-miterlimit:5;stroke-dasharray:none;stroke-opacity:1;paint-order:fill markers stroke"
       d="m 34.938506,62.984557 c 0,0 4.751869,-2.297606 8.146063,-2.872009 3.394193,-0.574402 4.790166,0.588741 4.790166,0.588741 0,0 -0.11618,1.508859 -3.088558,3.539677 -2.893105,1.976655 -4.20933,2.750835 -6.609388,2.787758 -2.400056,0.03693 -3.027765,-0.184619 -3.027765,-0.184619 z"
       id="path28-5-3-4"
       sodipodi:nodetypes="cscsscc" /><path
       style="fill:#f0dc67;fill-opacity:1;stroke:#d5c309;stroke-width:1.39555;stroke-linecap:round;stroke-linejoin:round;stroke-miterlimit:5;stroke-dasharray:none;stroke-opacity:1;paint-order:fill markers stroke"
       d="m 35.451193,72.144316 c 0,0 5.27724,-0.100067 8.564216,-1.122937 3.286977,-1.022873 4.005924,-2.691632 4.005924,-2.691632 0,0 -0.786062,-1.29316 -4.355558,-1.760003 -3.474298,-0.454393 -4.998357,-0.549543 -7.155595,0.503052 -2.15724,1.052593 -2.616872,1.534088 -2.616872,1.534088 z"
       id="path28-1-3-8-8"
       sodipodi:nodetypes="cscsscc" /><path
       style="fill:#f0dc67;fill-opacity:1;stroke:#d5c309;stroke-width:1.39555;stroke-linecap:round;stroke-linejoin:round;stroke-miterlimit:5;stroke-dasharray:none;stroke-opacity:1;paint-order:fill markers stroke"
       d="m 26.995563,63.241355 c 0,0 0.591583,-5.244931 1.916422,-8.422239 1.32484,-3.177309 3.053353,-3.737559 3.053353,-3.737559 0,0 1.21425,0.90319 1.346304,4.500663 0.128531,3.501528 0.08119,5.02782 -1.167923,7.07754 -1.249113,2.04972 -1.771359,2.462463 -1.771359,2.462463 z"
       id="path28-3-5-3-0"
       sodipodi:nodetypes="cscsscc" /><path
       style="fill:#f0dc67;fill-opacity:1;stroke:#d5c309;stroke-width:1.39555;stroke-linecap:round;stroke-linejoin:round;stroke-miterlimit:5;stroke-dasharray:none;stroke-opacity:1;paint-order:fill markers stroke"
       d="m 35.311985,66.401776 c 0,0 2.730584,-4.516988 3.618899,-7.842855 0.888316,-3.325866 -0.139627,-4.82419 -0.139627,-4.82419 0,0 -1.513119,-0.02498 -3.812184,2.745131 -2.23775,2.696239 -3.13126,3.934561 -3.391762,6.320725 -0.260503,2.386164 -0.09844,3.03179 -0.09844,3.03179 z"
       id="path28-1-8-2-4-5"
       sodipodi:nodetypes="cscsscc" /><path
       style="fill:#f0dc67;fill-opacity:1;stroke:#d5c309;stroke-width:1.39555;stroke-linecap:round;stroke-linejoin:round;stroke-miterlimit:5;stroke-dasharray:none;stroke-opacity:1;paint-order:fill markers stroke"
       d="m 30.363792,78.983395 c 0,0 -1.275331,5.121798 -3.006001,8.097577 -1.730671,2.975782 -3.517795,3.304154 -3.517795,3.304154 0,0 -1.085105,-1.054846 -0.743522,-4.638499 0.332473,-3.488078 0.579867,-4.994929 2.087371,-6.862834 1.507504,-1.867905 2.079436,-2.208481 2.079436,-2.208481 z"
       id="path28-3-5-2"
       sodipodi:nodetypes="cscsscc" /><circle
       style="fill:#1b0900;fill-opacity:1;stroke:#0b0400;stroke-width:1.39555;stroke-linecap:round;stroke-linejoin:round;stroke-miterlimit:5;stroke-dasharray:none;stroke-opacity:1;paint-order:fill markers stroke"
       id="path27-6"
       cx="-70.921616"
       cy="28.957361"
       r="9.8170509"
       transform="rotate(-90)" /><ellipse
       style="fill:#100500;fill-opacity:1;stroke:#0a0300;stroke-width:0.359939;stroke-linecap:round;stroke-linejoin:round;stroke-miterlimit:5;stroke-dasharray:none;stroke-opacity:1;paint-order:fill markers stroke"
       id="path30-8"
       cx="-76.184921"
       cy="-5.2262301"
       rx="1.8094451"
       ry="0.49997824"
       transform="rotate(-110.59644)" /><ellipse
       style="fill:#100500;fill-opacity:1;stroke:#0a0300;stroke-width:0.359939;stroke-linecap:round;stroke-linejoin:round;stroke-miterlimit:5;stroke-dasharray:none;stroke-opacity:1;paint-order:fill markers stroke"
       id="ellipse30-3"
       cx="-47.046532"
       cy="-56.767784"
       rx="1.8094451"
       ry="0.49997824"
       transform="rotate(-158.86494)" /><ellipse
       style="fill:#100500;fill-opacity:1;stroke:#0a0300;stroke-width:0.359939;stroke-linecap:round;stroke-linejoin:round;stroke-miterlimit:5;stroke-dasharray:none;stroke-opacity:1;paint-order:fill markers stroke"
       id="ellipse31-1"
       cx="59.542652"
       cy="-37.647449"
       rx="1.8094451"
       ry="0.49997824"
       transform="rotate(103.09188)" /><ellipse
       style="fill:#100500;fill-opacity:1;stroke:#0a0300;stroke-width:0.359939;stroke-linecap:round;stroke-linejoin:round;stroke-miterlimit:5;stroke-dasharray:none;stroke-opacity:1;paint-order:fill markers stroke"
       id="ellipse32-0"
       cx="22.702793"
       cy="-65.316589"
       rx="1.8094451"
       ry="0.49997824"
       transform="rotate(138.78354)" /><ellipse
       style="fill:#100500;fill-opacity:1;stroke:#0a0300;stroke-width:0.359939;stroke-linecap:round;stroke-linejoin:round;stroke-miterlimit:5;stroke-dasharray:none;stroke-opacity:1;paint-order:fill markers stroke"
       id="ellipse33-9"
       cx="71.025261"
       cy="-3.6361923"
       rx="1.8094451"
       ry="0.49997824"
       transform="rotate(69.40356)" /><ellipse
       style="fill:#100500;fill-opacity:1;stroke:#0a0300;stroke-width:0.359939;stroke-linecap:round;stroke-linejoin:round;stroke-miterlimit:5;stroke-dasharray:none;stroke-opacity:1;paint-order:fill markers stroke"
       id="ellipse34-7"
       cx="-22.873463"
       cy="70.009262"
       rx="1.8094451"
       ry="0.49997824"
       transform="rotate(-39.58529)" /><ellipse
       style="fill:#100500;fill-opacity:1;stroke:#0a0300;stroke-width:0.359939;stroke-linecap:round;stroke-linejoin:round;stroke-miterlimit:5;stroke-dasharray:none;stroke-opacity:1;paint-order:fill markers stroke"
       id="ellipse37-1"
       cx="-80.893791"
       cy="0.15872592"
       rx="1.8094451"
       ry="0.49997824"
       transform="rotate(-110.59644)" /><ellipse
       style="fill:#100500;fill-opacity:1;stroke:#0a0300;stroke-width:0.359939;stroke-linecap:round;stroke-linejoin:round;stroke-miterlimit:5;stroke-dasharray:none;stroke-opacity:1;paint-order:fill markers stroke"
       id="ellipse38-0"
       cx="-54.199593"
       cy="-56.69743"
       rx="1.8094451"
       ry="0.49997824"
       transform="rotate(-158.86494)" /><ellipse
       style="fill:#100500;fill-opacity:1;stroke:#0a0300;stroke-width:0.359939;stroke-linecap:round;stroke-linejoin:round;stroke-miterlimit:5;stroke-dasharray:none;stroke-opacity:1;paint-order:fill markers stroke"
       id="ellipse40-1"
       cx="19.321125"
       cy="-71.620209"
       rx="1.8094451"
       ry="0.49997824"
       transform="rotate(138.78354)" /><ellipse
       style="fill:#100500;fill-opacity:1;stroke:#0a0300;stroke-width:0.359939;stroke-linecap:round;stroke-linejoin:round;stroke-miterlimit:5;stroke-dasharray:none;stroke-opacity:1;paint-order:fill markers stroke"
       id="ellipse41-0"
       cx="75.734123"
       cy="-9.0211563"
       rx="1.8094451"
       ry="0.49997824"
       transform="rotate(69.40356)" /><ellipse
       style="fill:#100500;fill-opacity:1;stroke:#0a0300;stroke-width:0.359939;stroke-linecap:round;stroke-linejoin:round;stroke-miterlimit:5;stroke-dasharray:none;stroke-opacity:1;paint-order:fill markers stroke"
       id="ellipse42-1"
       cx="-64.759247"
       cy="49.775841"
       rx="1.8094451"
       ry="0.49997824"
       transform="rotate(-76.90812)" /><ellipse
       style="fill:#100500;fill-opacity:1;stroke:#0a0300;stroke-width:0.359939;stroke-linecap:round;stroke-linejoin:round;stroke-miterlimit:5;stroke-dasharray:none;stroke-opacity:1;paint-order:fill markers stroke"
       id="ellipse43-9"
       cx="-27.246532"
       cy="78.206444"
       rx="1.8094451"
       ry="0.49997824"
       transform="rotate(-41.21646)" /><ellipse
       style="fill:#100500;fill-opacity:1;stroke:#0a0300;stroke-width:0.36;stroke-linecap:round;stroke-linejoin:round;stroke-miterlimit:5;stroke-dasharray:none;stroke-opacity:1;paint-order:fill markers stroke"
       id="path43-1"
       cx="-69.362045"
       cy="32.058128"
       rx="0.50280082"
       ry="0.3917169"
       transform="rotate(-90)" /><ellipse
       style="fill:#100500;fill-opacity:1;stroke:#0a0300;stroke-width:0.36;stroke-linecap:round;stroke-linejoin:round;stroke-miterlimit:5;stroke-dasharray:none;stroke-opacity:1;paint-order:fill markers stroke"
       id="path44-0"
       cx="-64.22345"
       cy="30.029291"
       rx="0.57295901"
       ry="0.40925646"
       transform="rotate(-90)" /><ellipse
       style="fill:#100500;fill-opacity:1;stroke:#0a0300;stroke-width:0.36;stroke-linecap:round;stroke-linejoin:round;stroke-miterlimit:5;stroke-dasharray:none;stroke-opacity:1;paint-order:fill markers stroke"
       id="path45-3"
       cx="-74.700409"
       cy="35.408089"
       rx="0.61973119"
       ry="0.46772167"
       transform="rotate(-90)" /><ellipse
       style="fill:#100500;fill-opacity:1;stroke:#0a0300;stroke-width:0.36;stroke-linecap:round;stroke-linejoin:round;stroke-miterlimit:5;stroke-dasharray:none;stroke-opacity:1;paint-order:fill markers stroke"
       id="path46-5"
       cx="-76.922089"
       cy="24.966204"
       rx="0.57295901"
       ry="0.51449382"
       transform="rotate(-90)" /></g></svg>
