<?xml version="1.0" encoding="UTF-8" standalone="no"?>
<!-- Created with Inkscape (http://www.inkscape.org/) -->

<svg
   width="16.034187mm"
   height="15.659608mm"
   viewBox="0 0 16.034187 15.659608"
   version="1.1"
   id="svg1"
   xml:space="preserve"
   inkscape:export-filename="flower_white.svg"
   inkscape:export-xdpi="96"
   inkscape:export-ydpi="96"
   xmlns:inkscape="http://www.inkscape.org/namespaces/inkscape"
   xmlns:sodipodi="http://sodipodi.sourceforge.net/DTD/sodipodi-0.dtd"
   xmlns="http://www.w3.org/2000/svg"
   xmlns:svg="http://www.w3.org/2000/svg"><sodipodi:namedview
     id="namedview1"
     pagecolor="#ffffff"
     bordercolor="#000000"
     borderopacity="0.25"
     inkscape:showpageshadow="2"
     inkscape:pageopacity="0.0"
     inkscape:pagecheckerboard="0"
     inkscape:deskcolor="#d1d1d1"
     inkscape:document-units="mm" /><defs
     id="defs1"><inkscape:path-effect
       effect="bspline"
       id="path-effect4"
       is_visible="true"
       lpeversion="1.3"
       weight="33.333333"
       steps="2"
       helper_size="0"
       apply_no_weight="true"
       apply_with_weight="true"
       only_selected="false"
       uniform="false" /><inkscape:path-effect
       effect="bspline"
       id="path-effect4-9"
       is_visible="true"
       lpeversion="1.3"
       weight="33.333333"
       steps="2"
       helper_size="0"
       apply_no_weight="true"
       apply_with_weight="true"
       only_selected="false"
       uniform="false" /><inkscape:path-effect
       effect="bspline"
       id="path-effect4-4"
       is_visible="true"
       lpeversion="1.3"
       weight="33.333333"
       steps="2"
       helper_size="0"
       apply_no_weight="true"
       apply_with_weight="true"
       only_selected="false"
       uniform="false" /><inkscape:path-effect
       effect="bspline"
       id="path-effect4-4-5"
       is_visible="true"
       lpeversion="1.3"
       weight="33.333333"
       steps="2"
       helper_size="0"
       apply_no_weight="true"
       apply_with_weight="true"
       only_selected="false"
       uniform="false" /></defs><g
     inkscape:label="Layer 1"
     inkscape:groupmode="layer"
     id="layer1"><path
       style="fill:#f6f5f0;fill-opacity:1;stroke:#c6c6c6;stroke-width:0.441193;stroke-linecap:round;stroke-miterlimit:1;stroke-opacity:1"
       d="m 8.3324327,7.6426295 c 0,0 -0.75103,-0.421387 -1.493339,-1.098495 -0.755191,-0.688863 -1.366182,-1.139022 -1.854567,-1.989794 -0.638387,-1.112076 -0.519738,-1.574049 -0.433964,-1.613491 0.04289,-0.01972 0.734218,0.213488 1.341259,0.817069 0.6328,0.629191 1.365415,1.35103 1.769746,1.984606 0.899958,1.410222 0.972075,1.498488 0.972075,1.498488 z"
       id="path1-6"
       sodipodi:nodetypes="cssssscc" /><path
       style="fill:#f6f5f0;fill-opacity:1;stroke:#c6c6c6;stroke-width:0.441193;stroke-linecap:round;stroke-miterlimit:1;stroke-opacity:1"
       d="m 7.0439877,7.4989355 c 0,0 0.284572,-0.812795 0.822491,-1.661401 0.547259,-0.863341 0.884482,-1.543216 1.637535,-2.171904 0.9843273,-0.821802 1.4598913,-0.785171 1.5136283,-0.70755 0.02686,0.03881 -0.08276,0.760132 -0.571752,1.462762 -0.5097453,0.732445 -1.0933993,1.579278 -1.6471483,2.087479 -1.232518,1.131174 -1.306925,1.217516 -1.306925,1.217516 z"
       id="path1-6-4"
       sodipodi:nodetypes="cssssscc" /><path
       style="fill:#f6f5f0;fill-opacity:1;stroke:#c6c6c6;stroke-width:0.58838;stroke-linecap:round;stroke-miterlimit:1;stroke-opacity:1"
       d="m 7.5825677,7.7999905 c 0,0 0.663577,-0.937351 1.665109,-1.827487 1.0189133,-0.905584 1.7011293,-1.653197 2.8975883,-2.182341 1.56395,-0.691667 2.16012,-0.469908 2.20048,-0.350646 0.0201,0.05965 -0.3855,0.944036 -1.27066,1.665017 -0.92271,0.751576 -1.982205,1.622617 -2.87889,2.070564 -1.9958343,0.997027 -2.1229533,1.080379 -2.1229533,1.080379 z"
       id="path1-61-8-1"
       sodipodi:nodetypes="cssssscc" /><path
       style="fill:#f6f5f0;fill-opacity:1;stroke:#c6c6c6;stroke-width:6.61458;stroke-linecap:round;stroke-miterlimit:1;stroke-opacity:1"
       d="m -249.24971,61.514222 c -1.76054,1.596416 0.11936,6.251383 2.34243,10.026114 2.22307,3.774731 4.78922,6.66911 9.10109,10.921301 4.31188,4.252191 10.36918,9.86191 14.86006,13.621712 4.49088,3.759802 7.4151,5.669501 11.77174,8.086531 4.35663,2.41703 10.14538,5.34125 15.29275,7.59415 5.14736,2.2529 9.65304,3.83436 12.01037,4.47591 2.35733,0.64155 2.5662,0.34316 3.3868,-0.71616 0.8206,-1.05932 2.25287,-2.8795 2.76014,-3.99848 0.50727,-1.11899 0.0895,-1.53674 -1.4174,-3.83442 -1.50692,-2.29769 -4.10291,-6.47515 -7.65386,-10.742245 -3.55095,-4.267097 -8.05663,-8.623584 -13.06973,-12.69672 -5.0131,-4.073137 -10.5333,-7.862681 -16.75492,-11.38378 -6.22161,-3.521099 -13.14425,-6.773546 -19.30617,-9.130883 -6.16192,-2.357338 -11.56277,-3.819446 -13.3233,-2.22303 z"
       id="path3"
       inkscape:path-effect="#path-effect4"
       inkscape:original-d="m -252.89014,58.455668 c 1.8799,4.654968 3.75979,9.309936 5.63968,13.964906 2.56625,2.894494 5.1324,5.788872 7.6986,8.683308 6.05755,5.609944 12.11485,11.219666 18.17228,16.829502 2.92433,1.909768 5.84855,3.819466 8.77283,5.729196 5.78899,2.92433 11.57774,5.84855 17.36661,8.77282 4.50586,1.58153 9.01154,3.16299 13.51732,4.74449 0.20888,-0.2984 0.41775,-0.59679 0.62663,-0.89519 1.43232,-1.82024 2.86459,-3.64042 4.29689,-5.46063 -0.41776,-0.41776 -0.83551,-0.83551 -1.25326,-1.25326 -2.59609,-4.17762 -5.19208,-8.35508 -7.78812,-12.532612 -4.50586,-4.35666 -9.01154,-8.713147 -13.51731,-13.06972 -5.52043,-3.789699 -11.04063,-7.579246 -16.56095,-11.368868 -6.92291,-3.252573 -13.84555,-6.505019 -20.76832,-9.757529 -5.40107,-1.462167 -10.80192,-2.924276 -16.20288,-4.386413 z"
       transform="matrix(0.0889518,0,0,0.0889518,23.191465,-2.174263)" /><path
       style="fill:#f6f5f0;fill-opacity:1;stroke:#c6c6c6;stroke-width:6.61458;stroke-linecap:round;stroke-miterlimit:1;stroke-opacity:1"
       d="m -249.24971,61.514222 c -1.76054,1.596416 0.11936,6.251383 2.34243,10.026114 2.22307,3.774731 4.78922,6.66911 9.10109,10.921301 4.31188,4.252191 10.36918,9.86191 14.86006,13.621712 4.49088,3.759802 7.4151,5.669501 11.77174,8.086531 4.35663,2.41703 10.14538,5.34125 15.29275,7.59415 5.14736,2.2529 9.65304,3.83436 12.01037,4.47591 2.35733,0.64155 2.5662,0.34316 3.3868,-0.71616 0.8206,-1.05932 2.25287,-2.8795 2.76014,-3.99848 0.50727,-1.11899 0.0895,-1.53674 -1.4174,-3.83442 -1.50692,-2.29769 -4.10291,-6.47515 -7.65386,-10.742245 -3.55095,-4.267097 -8.05663,-8.623584 -13.06973,-12.69672 -5.0131,-4.073137 -10.5333,-7.862681 -16.75492,-11.38378 -6.22161,-3.521099 -13.14425,-6.773546 -19.30617,-9.130883 -6.16192,-2.357338 -11.56277,-3.819446 -13.3233,-2.22303 z"
       id="path3-9"
       inkscape:path-effect="#path-effect4-4"
       inkscape:original-d="m -252.89014,58.455668 c 1.8799,4.654968 3.75979,9.309936 5.63968,13.964906 2.56625,2.894494 5.1324,5.788872 7.6986,8.683308 6.05755,5.609944 12.11485,11.219666 18.17228,16.829502 2.92433,1.909768 5.84855,3.819466 8.77283,5.729196 5.78899,2.92433 11.57774,5.84855 17.36661,8.77282 4.50586,1.58153 9.01154,3.16299 13.51732,4.74449 0.20888,-0.2984 0.41775,-0.59679 0.62663,-0.89519 1.43232,-1.82024 2.86459,-3.64042 4.29689,-5.46063 -0.41776,-0.41776 -0.83551,-0.83551 -1.25326,-1.25326 -2.59609,-4.17762 -5.19208,-8.35508 -7.78812,-12.532612 -4.50586,-4.35666 -9.01154,-8.713147 -13.51731,-13.06972 -5.52043,-3.789699 -11.04063,-7.579246 -16.56095,-11.368868 -6.92291,-3.252573 -13.84555,-6.505019 -20.76832,-9.757529 -5.40107,-1.462167 -10.80192,-2.924276 -16.20288,-4.386413 z"
       transform="matrix(0.08347131,-0.05630211,0.05630211,0.08347131,17.679625,-11.759321)" /><path
       style="fill:#f6f5f0;fill-opacity:1;stroke:#c6c6c6;stroke-width:6.61458;stroke-linecap:round;stroke-miterlimit:1;stroke-opacity:1"
       d="m -249.24971,61.514222 c -1.76054,1.596416 0.11936,6.251383 2.34243,10.026114 2.22307,3.774731 4.78922,6.66911 9.10109,10.921301 4.31188,4.252191 10.36918,9.86191 14.86006,13.621712 4.49088,3.759802 7.4151,5.669501 11.77174,8.086531 4.35663,2.41703 10.14538,5.34125 15.29275,7.59415 5.14736,2.2529 9.65304,3.83436 12.01037,4.47591 2.35733,0.64155 2.5662,0.34316 3.3868,-0.71616 0.8206,-1.05932 2.25287,-2.8795 2.76014,-3.99848 0.50727,-1.11899 0.0895,-1.53674 -1.4174,-3.83442 -1.50692,-2.29769 -4.10291,-6.47515 -7.65386,-10.742245 -3.55095,-4.267097 -8.05663,-8.623584 -13.06973,-12.69672 -5.0131,-4.073137 -10.5333,-7.862681 -16.75492,-11.38378 -6.22161,-3.521099 -13.14425,-6.773546 -19.30617,-9.130883 -6.16192,-2.357338 -11.56277,-3.819446 -13.3233,-2.22303 z"
       id="path3-9-6"
       inkscape:path-effect="#path-effect4-4-5"
       inkscape:original-d="m -252.89014,58.455668 c 1.8799,4.654968 3.75979,9.309936 5.63968,13.964906 2.56625,2.894494 5.1324,5.788872 7.6986,8.683308 6.05755,5.609944 12.11485,11.219666 18.17228,16.829502 2.92433,1.909768 5.84855,3.819466 8.77283,5.729196 5.78899,2.92433 11.57774,5.84855 17.36661,8.77282 4.50586,1.58153 9.01154,3.16299 13.51732,4.74449 0.20888,-0.2984 0.41775,-0.59679 0.62663,-0.89519 1.43232,-1.82024 2.86459,-3.64042 4.29689,-5.46063 -0.41776,-0.41776 -0.83551,-0.83551 -1.25326,-1.25326 -2.59609,-4.17762 -5.19208,-8.35508 -7.78812,-12.532612 -4.50586,-4.35666 -9.01154,-8.713147 -13.51731,-13.06972 -5.52043,-3.789699 -11.04063,-7.579246 -16.56095,-11.368868 -6.92291,-3.252573 -13.84555,-6.505019 -20.76832,-9.757529 -5.40107,-1.462167 -10.80192,-2.924276 -16.20288,-4.386413 z"
       transform="matrix(-0.08347131,0.05630211,-0.05630211,-0.08347131,-1.6454356,27.030173)" /><path
       style="fill:#f6f5f0;fill-opacity:1;stroke:#c6c6c6;stroke-width:6.61458;stroke-linecap:round;stroke-miterlimit:1;stroke-opacity:1"
       d="m -249.24971,61.514222 c -1.76054,1.596416 0.11936,6.251383 2.34243,10.026114 2.22307,3.774731 4.78922,6.66911 9.10109,10.921301 4.31188,4.252191 10.36918,9.86191 14.86006,13.621712 4.49088,3.759802 7.4151,5.669501 11.77174,8.086531 4.35663,2.41703 10.14538,5.34125 15.29275,7.59415 5.14736,2.2529 9.65304,3.83436 12.01037,4.47591 2.35733,0.64155 2.5662,0.34316 3.3868,-0.71616 0.8206,-1.05932 2.25287,-2.8795 2.76014,-3.99848 0.50727,-1.11899 0.0895,-1.53674 -1.4174,-3.83442 -1.50692,-2.29769 -4.10291,-6.47515 -7.65386,-10.742245 -3.55095,-4.267097 -8.05663,-8.623584 -13.06973,-12.69672 -5.0131,-4.073137 -10.5333,-7.862681 -16.75492,-11.38378 -6.22161,-3.521099 -13.14425,-6.773546 -19.30617,-9.130883 -6.16192,-2.357338 -11.56277,-3.819446 -13.3233,-2.22303 z"
       id="path3-7"
       inkscape:path-effect="#path-effect4-9"
       inkscape:original-d="m -252.89014,58.455668 c 1.8799,4.654968 3.75979,9.309936 5.63968,13.964906 2.56625,2.894494 5.1324,5.788872 7.6986,8.683308 6.05755,5.609944 12.11485,11.219666 18.17228,16.829502 2.92433,1.909768 5.84855,3.819466 8.77283,5.729196 5.78899,2.92433 11.57774,5.84855 17.36661,8.77282 4.50586,1.58153 9.01154,3.16299 13.51732,4.74449 0.20888,-0.2984 0.41775,-0.59679 0.62663,-0.89519 1.43232,-1.82024 2.86459,-3.64042 4.29689,-5.46063 -0.41776,-0.41776 -0.83551,-0.83551 -1.25326,-1.25326 -2.59609,-4.17762 -5.19208,-8.35508 -7.78812,-12.532612 -4.50586,-4.35666 -9.01154,-8.713147 -13.51731,-13.06972 -5.52043,-3.789699 -11.04063,-7.579246 -16.56095,-11.368868 -6.92291,-3.252573 -13.84555,-6.505019 -20.76832,-9.757529 -5.40107,-1.462167 -10.80192,-2.924276 -16.20288,-4.386413 z"
       transform="matrix(0.05228456,0.07196352,-0.07196352,0.05228456,25.171445,15.017925)" /><path
       style="fill:#f6f5f0;fill-opacity:1;stroke:#c6c6c6;stroke-width:0.58838;stroke-linecap:round;stroke-miterlimit:1;stroke-opacity:1"
       d="m 8.2952557,7.5896195 c 0,0 1.083949,0.379503 2.2156623,1.096882 1.151357,0.729829 2.058047,1.17955 2.896487,2.1838095 1.09596,1.312708 1.04711,1.946917 0.9436,2.018581 -0.0518,0.03583 -1.01373,-0.110356 -1.95076,-0.762489 -0.9768,-0.679805 -2.106134,-1.458171 -2.7838873,-2.1966485 -1.508533,-1.643697 -1.62369,-1.742922 -1.62369,-1.742922 z"
       id="path1-5"
       sodipodi:nodetypes="cssssscc" /><path
       style="fill:#f6f5f0;fill-opacity:1;stroke:#c6c6c6;stroke-width:0.58838;stroke-linecap:round;stroke-miterlimit:1;stroke-opacity:1"
       d="m 7.9727897,7.3119685 c 0,0 0.406031,1.074293 0.583937,2.402354 0.180997,1.3511145 0.419303,2.3347575 0.188931,3.6225645 -0.301128,1.683343 -0.818352,2.053589 -0.939789,2.020357 -0.06072,-0.01662 -0.567073,-0.847493 -0.669822,-1.984485 -0.107112,-1.185238 -0.236774,-2.550687 -0.106716,-3.5445585 0.28948,-2.212153 0.291464,-2.364146 0.291464,-2.364146 z"
       id="path1-61-2"
       sodipodi:nodetypes="cssssscc" /><path
       style="fill:#f6f5f0;fill-opacity:1;stroke:#c6c6c6;stroke-width:0.441193;stroke-linecap:round;stroke-miterlimit:1;stroke-opacity:1"
       d="m 7.3611997,7.7660635 c 0,0 0.75103,0.421387 1.49334,1.098495 0.755191,0.688863 1.3661823,1.1390215 1.8545673,1.9897945 0.638388,1.112076 0.519737,1.574049 0.433962,1.61349 -0.04289,0.01973 -0.734215,-0.213486 -1.3412563,-0.817068 -0.632801,-0.629191 -1.365417,-1.35103 -1.769748,-1.9846065 -0.899958,-1.410222 -0.972075,-1.498488 -0.972075,-1.498488 z"
       id="path1-6-5"
       sodipodi:nodetypes="cssssscc" /><path
       style="fill:#f6f5f0;fill-opacity:1;stroke:#c6c6c6;stroke-width:0.441193;stroke-linecap:round;stroke-miterlimit:1;stroke-opacity:1"
       d="m 8.6496457,7.9097565 c 0,0 -0.284573,0.812796 -0.822492,1.661402 -0.547259,0.8633405 -0.884484,1.5432165 -1.637535,2.1719035 -0.984326,0.821803 -1.45989,0.785172 -1.513628,0.707549 -0.02686,-0.03881 0.08276,-0.760129 0.571751,-1.46276 0.509745,-0.732445 1.0934,-1.5792785 1.64715,-2.0874795 1.232517,-1.131174 1.306924,-1.217516 1.306924,-1.217516 z"
       id="path1-6-4-8"
       sodipodi:nodetypes="cssssscc" /><path
       style="fill:#f6f5f0;fill-opacity:1;stroke:#c6c6c6;stroke-width:0.58838;stroke-linecap:round;stroke-miterlimit:1;stroke-opacity:1"
       d="m 8.1561097,7.7438355 c 0,0 -0.663578,0.937352 -1.665109,1.827488 -1.018913,0.9055835 -1.70113,1.6531975 -2.897589,2.1823405 -1.563947,0.691665 -2.160123,0.469908 -2.20048,0.350648 -0.02013,-0.05965 0.385498,-0.944037 1.270656,-1.665018 0.922709,-0.7515775 1.982209,-1.6226185 2.878895,-2.0705645 1.995834,-0.997027 2.122952,-1.080379 2.122952,-1.080379 z"
       id="path1-61-8-1-0"
       sodipodi:nodetypes="cssssscc" /><ellipse
       style="fill:#dca93e;fill-opacity:1;stroke:#bf8d19;stroke-width:0.631051;stroke-linecap:round;stroke-miterlimit:1;stroke-opacity:1"
       id="path2"
       cx="7.9555659"
       cy="7.5272307"
       rx="1.5097333"
       ry="1.539928" /></g></svg>
