<?xml version="1.0" encoding="UTF-8" standalone="no"?>
<!-- Created with Inkscape (http://www.inkscape.org/) -->

<svg
   width="57.750336mm"
   height="99.823486mm"
   viewBox="0 0 57.750336 99.823487"
   version="1.1"
   id="svg1"
   inkscape:export-filename="flower_garden.svg"
   inkscape:export-xdpi="96"
   inkscape:export-ydpi="96"
   xml:space="preserve"
   sodipodi:docname="flower_garden_2.svg"
   xmlns:inkscape="http://www.inkscape.org/namespaces/inkscape"
   xmlns:sodipodi="http://sodipodi.sourceforge.net/DTD/sodipodi-0.dtd"
   xmlns="http://www.w3.org/2000/svg"
   xmlns:svg="http://www.w3.org/2000/svg"><sodipodi:namedview
     id="namedview1"
     pagecolor="#ffffff"
     bordercolor="#000000"
     borderopacity="0.25"
     inkscape:showpageshadow="2"
     inkscape:pageopacity="0.0"
     inkscape:pagecheckerboard="0"
     inkscape:deskcolor="#d1d1d1"
     inkscape:document-units="mm" /><defs
     id="defs1"><inkscape:path-effect
       effect="bspline"
       id="path-effect96"
       is_visible="true"
       lpeversion="1.3"
       weight="33.333333"
       steps="2"
       helper_size="0"
       apply_no_weight="true"
       apply_with_weight="true"
       only_selected="false"
       uniform="false" /><inkscape:path-effect
       effect="bspline"
       id="path-effect96-8"
       is_visible="true"
       lpeversion="1.3"
       weight="33.333333"
       steps="2"
       helper_size="0"
       apply_no_weight="true"
       apply_with_weight="true"
       only_selected="false"
       uniform="false" /></defs><g
     inkscape:label="Layer 1"
     inkscape:groupmode="layer"
     id="layer1"><rect
       style="fill:#451e02;fill-opacity:1;stroke:#803902;stroke-width:3.20563;stroke-linecap:round;stroke-linejoin:miter;stroke-miterlimit:5;stroke-dasharray:none;stroke-opacity:1;paint-order:fill markers stroke"
       id="rect3"
       width="90.521805"
       height="47.559875"
       x="-95.172646"
       y="5.0825372"
       ry="0"
       transform="rotate(-90)"
       sodipodi:insensitive="true" /><rect
       style="fill:none;fill-opacity:1;stroke:#181818;stroke-width:3.53016;stroke-linecap:round;stroke-linejoin:round;stroke-miterlimit:5;stroke-dasharray:none;stroke-opacity:1;paint-order:fill markers stroke"
       id="rect2"
       width="96.29332"
       height="54.220173"
       x="-98.058403"
       y="1.76508"
       ry="0"
       transform="rotate(-90)"
       sodipodi:insensitive="true" /><path
       style="fill:#3e1b02;fill-opacity:1;stroke:#341702;stroke-width:3;stroke-linecap:round;stroke-linejoin:miter;stroke-miterlimit:5;stroke-dasharray:none;stroke-opacity:1;paint-order:fill markers stroke"
       d="m 81.774799,293.93495 c 0.224113,-2.25982 2.42791,-4.46362 6.462025,-5.64022 4.034114,-1.1766 9.898313,-1.32601 17.088736,-1.55013 7.19042,-0.22412 15.70659,-0.52293 19.70329,1.51281 3.99669,2.03574 3.47377,6.40589 1.9423,10.53336 -1.53147,4.12747 -4.07139,8.01206 -4.07137,11.41116 3e-5,3.39909 2.53994,6.31251 1.53138,9.59956 -1.00856,3.28705 -5.56545,6.94751 -11.7847,8.64704 -6.21926,1.69953 -14.100452,1.43807 -19.572602,2.01704 -5.472149,0.57898 -8.534988,1.99835 -10.327903,-0.0561 -1.792916,-2.05445 -2.315844,-7.58247 -1.718187,-13.09201 0.597656,-5.50954 2.315831,-11.00022 2.297139,-14.90356 -0.01869,-3.90335 -1.774221,-6.21914 -1.550108,-8.47896 z"
       id="path95"
       transform="matrix(0,-0.79151333,0.79151333,0,-215.10848,151.56413)"
       inkscape:original-d="m 79.79512,293.87892 c 2.203794,-2.20379 4.407588,-4.40759 6.611381,-6.61138 5.864437,-0.14941 11.728636,-0.29882 17.592969,-0.44823 8.51651,-0.29882 17.03268,-0.59764 25.54901,-0.89646 -0.52295,4.3703 -1.04587,8.74045 -1.56879,13.11068 -2.54,3.88472 -5.07992,7.76931 -7.6199,11.65395 2.54003,2.91353 5.07992,5.82697 7.6199,8.74045 -4.55708,3.66062 -9.11397,7.32108 -13.67097,10.98161 -7.88152,-0.26148 -15.762712,-0.52295 -23.644067,-0.78441 -3.062949,1.41941 -6.125792,2.83877 -9.188662,4.25818 -0.522949,-5.52828 -1.045871,-11.0563 -1.56882,-16.58445 1.718257,-5.49093 3.436434,-10.98161 5.154639,-16.47241 -1.75559,-2.31589 -3.511127,-4.63168 -5.26669,-6.94753 z"
       inkscape:path-effect="#path-effect96" /><circle
       style="fill:#4e7400;fill-opacity:1;stroke:#6b9d11;stroke-width:2.89427;stroke-linecap:round;stroke-linejoin:round;stroke-miterlimit:5;stroke-dasharray:none;stroke-opacity:1;paint-order:fill markers stroke"
       id="path10"
       cx="28.641146"
       cy="69.982292"
       r="8.9978542" /><ellipse
       style="fill:#75ae00;fill-opacity:1;stroke:#6b9d11;stroke-width:1.53203;stroke-linecap:round;stroke-linejoin:round;stroke-miterlimit:5;stroke-dasharray:none;stroke-opacity:1;paint-order:fill markers stroke"
       id="path19"
       cx="29.092289"
       cy="68.848625"
       rx="15.047861"
       ry="14.546267" /><path
       style="fill:#426300;fill-opacity:1;stroke:#334b08;stroke-width:2.47854;stroke-linecap:round;stroke-linejoin:round;stroke-miterlimit:5;stroke-dasharray:none;stroke-opacity:1;paint-order:fill markers stroke"
       d="M 28.59969,62.171406 48.111069,50.906506 37.091192,69.993492 Z"
       id="path20" /><path
       style="fill:#426300;fill-opacity:1;stroke:#334b08;stroke-width:2.47854;stroke-linecap:round;stroke-linejoin:round;stroke-miterlimit:5;stroke-dasharray:none;stroke-opacity:1;paint-order:fill markers stroke"
       d="M 37.453702,68.564434 48.718602,88.075815 29.631616,77.055936 Z"
       id="path21" /><path
       style="fill:#426300;fill-opacity:1;stroke:#334b08;stroke-width:2.47854;stroke-linecap:round;stroke-linejoin:round;stroke-miterlimit:5;stroke-dasharray:none;stroke-opacity:1;paint-order:fill markers stroke"
       d="M 30.110733,76.892886 10.599354,88.157786 21.619231,69.0708 Z"
       id="path22" /><path
       style="fill:#426300;fill-opacity:1;stroke:#334b08;stroke-width:2.47854;stroke-linecap:round;stroke-linejoin:round;stroke-miterlimit:5;stroke-dasharray:none;stroke-opacity:1;paint-order:fill markers stroke"
       d="M 21.256721,70.499858 9.9918209,50.988479 29.078807,62.008356 Z"
       id="path23" /><path
       style="fill:#75ae00;fill-opacity:1;stroke:#6b9d11;stroke-width:2;stroke-linecap:round;stroke-linejoin:round;stroke-miterlimit:5;stroke-dasharray:none;stroke-opacity:1;paint-order:fill markers stroke"
       d="M 28.74556,63.592559 44.489837,54.502597 35.59759,69.904419 Z"
       id="path17" /><path
       style="fill:#ee63e6;fill-opacity:1;stroke:#c015b7;stroke-width:2.5547;stroke-linecap:round;stroke-linejoin:round;stroke-miterlimit:5;stroke-dasharray:none;stroke-opacity:1;paint-order:fill markers stroke"
       d="m 29.153757,64.408276 20.57277,5.512458 -20.81598,5.509706 c 0,0 -0.154429,-10.226677 0.07427,-10.6842 z"
       id="path24"
       sodipodi:nodetypes="cccsc" /><path
       style="fill:#ee63e6;fill-opacity:1;stroke:#c015b7;stroke-width:2.5547;stroke-linecap:round;stroke-linejoin:round;stroke-miterlimit:5;stroke-dasharray:none;stroke-opacity:1;paint-order:fill markers stroke"
       d="M 28.224656,75.430426 7.6518855,69.917968 28.467866,64.408262 c 0,0 0.154429,10.226676 -0.07427,10.684199 z"
       id="path25"
       sodipodi:nodetypes="cccsc" /><path
       style="fill:#ee63e6;fill-opacity:1;stroke:#c015b7;stroke-width:2.5547;stroke-linecap:round;stroke-linejoin:round;stroke-miterlimit:5;stroke-dasharray:none;stroke-opacity:1;paint-order:fill markers stroke"
       d="M 34.257022,69.68374 28.744565,90.25651 23.234859,69.44053 c 0,0 10.226676,-0.154429 10.684199,0.07427 z"
       id="path26"
       sodipodi:nodetypes="cccsc" /><path
       style="fill:#ee63e6;fill-opacity:1;stroke:#c015b7;stroke-width:2.5547;stroke-linecap:round;stroke-linejoin:round;stroke-miterlimit:5;stroke-dasharray:none;stroke-opacity:1;paint-order:fill markers stroke"
       d="m 23.234873,69.515059 5.512457,-20.57277 5.509706,20.81598 c 0,0 -10.226676,0.154429 -10.684199,-0.07426 z"
       id="path27"
       sodipodi:nodetypes="cccsc" /><path
       style="fill:#75ae00;fill-opacity:1;stroke:#6b9d11;stroke-width:2;stroke-linecap:round;stroke-linejoin:round;stroke-miterlimit:5;stroke-dasharray:none;stroke-opacity:1;paint-order:fill markers stroke"
       d="M 35.89011,68.751272 44.980072,84.49555 29.57825,75.603302 Z"
       id="path18" /><path
       style="fill:#75ae00;fill-opacity:1;stroke:#6b9d11;stroke-width:2;stroke-linecap:round;stroke-linejoin:round;stroke-miterlimit:5;stroke-dasharray:none;stroke-opacity:1;paint-order:fill markers stroke"
       d="M 29.964863,75.471733 14.220586,84.561695 23.112833,69.159873 Z"
       id="path16" /><path
       style="fill:#75ae00;fill-opacity:1;stroke:#6b9d11;stroke-width:2;stroke-linecap:round;stroke-linejoin:round;stroke-miterlimit:5;stroke-dasharray:none;stroke-opacity:1;paint-order:fill markers stroke"
       d="M 22.820313,70.31302 13.730351,54.568743 29.132173,63.46099 Z"
       id="path15" /><path
       style="fill:#ee63e6;fill-opacity:1;stroke:#e722dc;stroke-width:2;stroke-linecap:round;stroke-linejoin:round;stroke-miterlimit:5;stroke-dasharray:none;stroke-opacity:1;paint-order:fill markers stroke"
       d="m 29.05289,65.535413 16.105851,4.31555 -16.296253,4.313396 c 0,0 -0.120898,-8.006181 0.05814,-8.364363 z"
       id="path14"
       sodipodi:nodetypes="cccsc" /><path
       style="fill:#ee63e6;fill-opacity:1;stroke:#e722dc;stroke-width:2;stroke-linecap:round;stroke-linejoin:round;stroke-miterlimit:5;stroke-dasharray:none;stroke-opacity:1;paint-order:fill markers stroke"
       d="m 28.325523,74.164348 -16.105851,-4.31555 16.296253,-4.313396 c 0,0 0.120898,8.006181 -0.05814,8.364363 z"
       id="path12"
       sodipodi:nodetypes="cccsc" /><path
       style="fill:#ee63e6;fill-opacity:1;stroke:#e722dc;stroke-width:2;stroke-linecap:round;stroke-linejoin:round;stroke-miterlimit:5;stroke-dasharray:none;stroke-opacity:1;paint-order:fill markers stroke"
       d="m 33.048095,69.665427 -4.31555,16.105851 -4.313396,-16.296253 c 0,0 8.006181,-0.120898 8.364363,0.05814 z"
       id="path13"
       sodipodi:nodetypes="cccsc" /><path
       style="fill:#ee63e6;fill-opacity:1;stroke:#e722dc;stroke-width:2;stroke-linecap:round;stroke-linejoin:round;stroke-miterlimit:5;stroke-dasharray:none;stroke-opacity:1;paint-order:fill markers stroke"
       d="m 24.41916,69.533372 4.31555,-16.105851 4.313396,16.296253 c 0,0 -8.006181,0.120898 -8.364363,-0.05814 z"
       id="path11"
       sodipodi:nodetypes="cccsc" /><path
       style="fill:#3e1b02;fill-opacity:1;stroke:#341702;stroke-width:3;stroke-linecap:round;stroke-linejoin:miter;stroke-miterlimit:5;stroke-dasharray:none;stroke-opacity:1;paint-order:fill markers stroke"
       d="m 81.774799,293.93495 c 0.224113,-2.25982 2.42791,-4.46362 6.462025,-5.64022 4.034114,-1.1766 9.898313,-1.32601 17.088736,-1.55013 7.19042,-0.22412 15.70659,-0.52293 19.70329,1.51281 3.99669,2.03574 3.47377,6.40589 1.9423,10.53336 -1.53147,4.12747 -4.07139,8.01206 -4.07137,11.41116 3e-5,3.39909 2.53994,6.31251 1.53138,9.59956 -1.00856,3.28705 -5.56545,6.94751 -11.7847,8.64704 -6.21926,1.69953 -14.100452,1.43807 -19.572602,2.01704 -5.472149,0.57898 -8.534988,1.99835 -10.327903,-0.0561 -1.792916,-2.05445 -2.315844,-7.58247 -1.718187,-13.09201 0.597656,-5.50954 2.315831,-11.00022 2.297139,-14.90356 -0.01869,-3.90335 -1.774221,-6.21914 -1.550108,-8.47896 z"
       id="path95-1"
       transform="matrix(-0.79151333,0,0,-0.79151333,110.42579,270.20679)"
       inkscape:original-d="m 79.79512,293.87892 c 2.203794,-2.20379 4.407588,-4.40759 6.611381,-6.61138 5.864437,-0.14941 11.728636,-0.29882 17.592969,-0.44823 8.51651,-0.29882 17.03268,-0.59764 25.54901,-0.89646 -0.52295,4.3703 -1.04587,8.74045 -1.56879,13.11068 -2.54,3.88472 -5.07992,7.76931 -7.6199,11.65395 2.54003,2.91353 5.07992,5.82697 7.6199,8.74045 -4.55708,3.66062 -9.11397,7.32108 -13.67097,10.98161 -7.88152,-0.26148 -15.762712,-0.52295 -23.644067,-0.78441 -3.062949,1.41941 -6.125792,2.83877 -9.188662,4.25818 -0.522949,-5.52828 -1.045871,-11.0563 -1.56882,-16.58445 1.718257,-5.49093 3.436434,-10.98161 5.154639,-16.47241 -1.75559,-2.31589 -3.511127,-4.63168 -5.26669,-6.94753 z"
       inkscape:path-effect="#path-effect96-8" /><circle
       style="fill:#4e7400;fill-opacity:1;stroke:#6b9d11;stroke-width:2.89427;stroke-linecap:round;stroke-linejoin:round;stroke-miterlimit:5;stroke-dasharray:none;stroke-opacity:1;paint-order:fill markers stroke"
       id="path10-7"
       cx="-26.457169"
       cy="28.843952"
       r="8.9978542"
       transform="rotate(-90)" /><ellipse
       style="fill:#75ae00;fill-opacity:1;stroke:#6b9d11;stroke-width:1.53203;stroke-linecap:round;stroke-linejoin:round;stroke-miterlimit:5;stroke-dasharray:none;stroke-opacity:1;paint-order:fill markers stroke"
       id="path19-1"
       cx="-26.006025"
       cy="27.710285"
       rx="15.047861"
       ry="14.546267"
       transform="rotate(-90)" /><path
       style="fill:#426300;fill-opacity:1;stroke:#334b08;stroke-width:2.47854;stroke-linecap:round;stroke-linejoin:round;stroke-miterlimit:5;stroke-dasharray:none;stroke-opacity:1;paint-order:fill markers stroke"
       d="M 21.033067,26.498622 9.7681667,6.9872436 28.855153,18.00712 Z"
       id="path20-3" /><path
       style="fill:#426300;fill-opacity:1;stroke:#334b08;stroke-width:2.47854;stroke-linecap:round;stroke-linejoin:round;stroke-miterlimit:5;stroke-dasharray:none;stroke-opacity:1;paint-order:fill markers stroke"
       d="M 27.426095,17.64461 46.937476,6.3797106 35.917597,25.466696 Z"
       id="path21-1" /><path
       style="fill:#426300;fill-opacity:1;stroke:#334b08;stroke-width:2.47854;stroke-linecap:round;stroke-linejoin:round;stroke-miterlimit:5;stroke-dasharray:none;stroke-opacity:1;paint-order:fill markers stroke"
       d="M 35.754547,24.987579 47.019447,44.498958 27.932461,33.479081 Z"
       id="path22-6" /><path
       style="fill:#426300;fill-opacity:1;stroke:#334b08;stroke-width:2.47854;stroke-linecap:round;stroke-linejoin:round;stroke-miterlimit:5;stroke-dasharray:none;stroke-opacity:1;paint-order:fill markers stroke"
       d="M 29.361519,33.841591 9.8501397,45.106492 20.870017,26.019505 Z"
       id="path23-6" /><path
       style="fill:#75ae00;fill-opacity:1;stroke:#6b9d11;stroke-width:2;stroke-linecap:round;stroke-linejoin:round;stroke-miterlimit:5;stroke-dasharray:none;stroke-opacity:1;paint-order:fill markers stroke"
       d="M 22.45422,26.352752 13.364258,10.608475 28.76608,19.500722 Z"
       id="path17-2" /><path
       style="fill:#ee63e6;fill-opacity:1;stroke:#c015b7;stroke-width:2.5547;stroke-linecap:round;stroke-linejoin:round;stroke-miterlimit:5;stroke-dasharray:none;stroke-opacity:1;paint-order:fill markers stroke"
       d="M 23.269937,25.944555 28.782395,5.3717856 34.292101,26.187765 c 0,0 -10.226677,0.154429 -10.6842,-0.07427 z"
       id="path24-6"
       sodipodi:nodetypes="cccsc" /><path
       style="fill:#ee63e6;fill-opacity:1;stroke:#c015b7;stroke-width:2.5547;stroke-linecap:round;stroke-linejoin:round;stroke-miterlimit:5;stroke-dasharray:none;stroke-opacity:1;paint-order:fill markers stroke"
       d="M 34.292087,26.873656 28.779629,47.446427 23.269923,26.630446 c 0,0 10.226676,-0.154429 10.684199,0.07427 z"
       id="path25-9"
       sodipodi:nodetypes="cccsc" /><path
       style="fill:#ee63e6;fill-opacity:1;stroke:#c015b7;stroke-width:2.5547;stroke-linecap:round;stroke-linejoin:round;stroke-miterlimit:5;stroke-dasharray:none;stroke-opacity:1;paint-order:fill markers stroke"
       d="m 28.545401,20.84129 20.57277,5.512457 -20.81598,5.509706 c 0,0 -0.154429,-10.226676 0.07427,-10.684199 z"
       id="path26-8"
       sodipodi:nodetypes="cccsc" /><path
       style="fill:#ee63e6;fill-opacity:1;stroke:#c015b7;stroke-width:2.5547;stroke-linecap:round;stroke-linejoin:round;stroke-miterlimit:5;stroke-dasharray:none;stroke-opacity:1;paint-order:fill markers stroke"
       d="M 28.37672,31.863439 7.8039497,26.350982 28.61993,20.841276 c 0,0 0.154429,10.226676 -0.07426,10.684199 z"
       id="path27-6"
       sodipodi:nodetypes="cccsc" /><path
       style="fill:#75ae00;fill-opacity:1;stroke:#6b9d11;stroke-width:2;stroke-linecap:round;stroke-linejoin:round;stroke-miterlimit:5;stroke-dasharray:none;stroke-opacity:1;paint-order:fill markers stroke"
       d="M 27.612933,19.208202 43.357211,10.118241 34.464963,25.520062 Z"
       id="path18-3" /><path
       style="fill:#75ae00;fill-opacity:1;stroke:#6b9d11;stroke-width:2;stroke-linecap:round;stroke-linejoin:round;stroke-miterlimit:5;stroke-dasharray:none;stroke-opacity:1;paint-order:fill markers stroke"
       d="M 34.333394,25.133449 43.423356,40.877726 28.021534,31.985479 Z"
       id="path16-2" /><path
       style="fill:#75ae00;fill-opacity:1;stroke:#6b9d11;stroke-width:2;stroke-linecap:round;stroke-linejoin:round;stroke-miterlimit:5;stroke-dasharray:none;stroke-opacity:1;paint-order:fill markers stroke"
       d="M 29.174681,32.277999 13.430404,41.367961 22.322651,25.966139 Z"
       id="path15-7" /><path
       style="fill:#ee63e6;fill-opacity:1;stroke:#e722dc;stroke-width:2;stroke-linecap:round;stroke-linejoin:round;stroke-miterlimit:5;stroke-dasharray:none;stroke-opacity:1;paint-order:fill markers stroke"
       d="M 24.397074,26.045422 28.712624,9.9395716 33.02602,26.235824 c 0,0 -8.006181,0.120898 -8.364363,-0.05814 z"
       id="path14-6"
       sodipodi:nodetypes="cccsc" /><path
       style="fill:#ee63e6;fill-opacity:1;stroke:#e722dc;stroke-width:2;stroke-linecap:round;stroke-linejoin:round;stroke-miterlimit:5;stroke-dasharray:none;stroke-opacity:1;paint-order:fill markers stroke"
       d="M 33.026009,26.772789 28.710459,42.87864 24.397063,26.582387 c 0,0 8.006181,-0.120898 8.364363,0.05814 z"
       id="path12-6"
       sodipodi:nodetypes="cccsc" /><path
       style="fill:#ee63e6;fill-opacity:1;stroke:#e722dc;stroke-width:2;stroke-linecap:round;stroke-linejoin:round;stroke-miterlimit:5;stroke-dasharray:none;stroke-opacity:1;paint-order:fill markers stroke"
       d="m 28.527088,22.050217 16.105851,4.31555 -16.296253,4.313396 c 0,0 -0.120898,-8.006181 0.05814,-8.364363 z"
       id="path13-9"
       sodipodi:nodetypes="cccsc" /><path
       style="fill:#ee63e6;fill-opacity:1;stroke:#e722dc;stroke-width:2;stroke-linecap:round;stroke-linejoin:round;stroke-miterlimit:5;stroke-dasharray:none;stroke-opacity:1;paint-order:fill markers stroke"
       d="m 28.395033,30.679152 -16.105851,-4.31555 16.296253,-4.313396 c 0,0 0.120898,8.006181 -0.05814,8.364363 z"
       id="path11-9"
       sodipodi:nodetypes="cccsc" /></g></svg>
