<?xml version="1.0" encoding="UTF-8" standalone="no"?>
<!-- Created with Inkscape (http://www.inkscape.org/) -->

<svg
   width="57.750336mm"
   height="99.823479mm"
   viewBox="0 0 57.750336 99.823479"
   version="1.1"
   id="svg1"
   inkscape:export-filename="flower_garden.svg"
   inkscape:export-xdpi="96"
   inkscape:export-ydpi="96"
   xmlns:inkscape="http://www.inkscape.org/namespaces/inkscape"
   xmlns:sodipodi="http://sodipodi.sourceforge.net/DTD/sodipodi-0.dtd"
   xmlns="http://www.w3.org/2000/svg"
   xmlns:svg="http://www.w3.org/2000/svg">
  <sodipodi:namedview
     id="namedview1"
     pagecolor="#ffffff"
     bordercolor="#000000"
     borderopacity="0.25"
     inkscape:showpageshadow="2"
     inkscape:pageopacity="0.0"
     inkscape:pagecheckerboard="0"
     inkscape:deskcolor="#d1d1d1"
     inkscape:document-units="mm" />
  <defs
     id="defs1">
    <inkscape:path-effect
       effect="bspline"
       id="path-effect96"
       is_visible="true"
       lpeversion="1.3"
       weight="33.333333"
       steps="2"
       helper_size="0"
       apply_no_weight="true"
       apply_with_weight="true"
       only_selected="false"
       uniform="false" />
    <inkscape:path-effect
       effect="bspline"
       id="path-effect17"
       is_visible="true"
       lpeversion="1.3"
       weight="33.333333"
       steps="2"
       helper_size="0"
       apply_no_weight="true"
       apply_with_weight="true"
       only_selected="false"
       uniform="false" />
    <inkscape:path-effect
       effect="bspline"
       id="path-effect35"
       is_visible="true"
       lpeversion="1.3"
       weight="33.333333"
       steps="2"
       helper_size="0"
       apply_no_weight="true"
       apply_with_weight="true"
       only_selected="false"
       uniform="false" />
    <inkscape:path-effect
       effect="bspline"
       id="path-effect97"
       is_visible="true"
       lpeversion="1.3"
       weight="33.333333"
       steps="2"
       helper_size="0"
       apply_no_weight="true"
       apply_with_weight="true"
       only_selected="false"
       uniform="false" />
    <inkscape:path-effect
       effect="bspline"
       id="path-effect31"
       is_visible="true"
       lpeversion="1.3"
       weight="33.333333"
       steps="2"
       helper_size="0"
       apply_no_weight="true"
       apply_with_weight="true"
       only_selected="false"
       uniform="false" />
    <inkscape:path-effect
       effect="bspline"
       id="path-effect33"
       is_visible="true"
       lpeversion="1.3"
       weight="33.333333"
       steps="2"
       helper_size="0"
       apply_no_weight="true"
       apply_with_weight="true"
       only_selected="false"
       uniform="false" />
    <inkscape:path-effect
       effect="bspline"
       id="path-effect29"
       is_visible="true"
       lpeversion="1.3"
       weight="33.333333"
       steps="2"
       helper_size="0"
       apply_no_weight="true"
       apply_with_weight="true"
       only_selected="false"
       uniform="false" />
    <inkscape:path-effect
       effect="bspline"
       id="path-effect5"
       is_visible="true"
       lpeversion="1.3"
       weight="33.333333"
       steps="2"
       helper_size="0"
       apply_no_weight="true"
       apply_with_weight="true"
       only_selected="false"
       uniform="false" />
    <inkscape:path-effect
       effect="bspline"
       id="path-effect85"
       is_visible="true"
       lpeversion="1.3"
       weight="33.333333"
       steps="2"
       helper_size="0"
       apply_no_weight="true"
       apply_with_weight="true"
       only_selected="false"
       uniform="false" />
    <inkscape:path-effect
       effect="bspline"
       id="path-effect87"
       is_visible="true"
       lpeversion="1.3"
       weight="33.333333"
       steps="2"
       helper_size="0"
       apply_no_weight="true"
       apply_with_weight="true"
       only_selected="false"
       uniform="false" />
    <inkscape:path-effect
       effect="bspline"
       id="path-effect89"
       is_visible="true"
       lpeversion="1.3"
       weight="33.333333"
       steps="2"
       helper_size="0"
       apply_no_weight="true"
       apply_with_weight="true"
       only_selected="false"
       uniform="false" />
    <inkscape:path-effect
       effect="bspline"
       id="path-effect91"
       is_visible="true"
       lpeversion="1.3"
       weight="33.333333"
       steps="2"
       helper_size="0"
       apply_no_weight="true"
       apply_with_weight="true"
       only_selected="false"
       uniform="false" />
    <inkscape:path-effect
       effect="bspline"
       id="path-effect93"
       is_visible="true"
       lpeversion="1.3"
       weight="33.333333"
       steps="2"
       helper_size="0"
       apply_no_weight="true"
       apply_with_weight="true"
       only_selected="false"
       uniform="false" />
    <inkscape:path-effect
       effect="bspline"
       id="path-effect95"
       is_visible="true"
       lpeversion="1.3"
       weight="33.333333"
       steps="2"
       helper_size="0"
       apply_no_weight="true"
       apply_with_weight="true"
       only_selected="false"
       uniform="false" />
  </defs>
  <g
     inkscape:label="Layer 1"
     inkscape:groupmode="layer"
     id="layer1">
    <rect
       style="fill:#451e02;fill-opacity:1;stroke:#803902;stroke-width:3.20563;stroke-linecap:round;stroke-linejoin:miter;stroke-miterlimit:5;stroke-dasharray:none;stroke-opacity:1;paint-order:fill markers stroke"
       id="rect3"
       width="90.521805"
       height="47.559875"
       x="-95.172646"
       y="5.0825372"
       ry="0"
       transform="rotate(-90)"
       sodipodi:insensitive="true" />
    <rect
       style="fill:none;fill-opacity:1;stroke:#181818;stroke-width:3.53016;stroke-linecap:round;stroke-linejoin:round;stroke-miterlimit:5;stroke-dasharray:none;stroke-opacity:1;paint-order:fill markers stroke"
       id="rect2"
       width="96.29332"
       height="54.220173"
       x="-98.058403"
       y="1.76508"
       ry="0"
       transform="rotate(-90)"
       sodipodi:insensitive="true" />
    <path
       style="fill:#3e1b02;fill-opacity:1;stroke:#341702;stroke-width:3;stroke-linecap:round;stroke-linejoin:miter;stroke-miterlimit:5;stroke-dasharray:none;stroke-opacity:1;paint-order:fill markers stroke"
       d="m 81.774799,293.93495 c 0.224113,-2.25982 2.42791,-4.46362 6.462025,-5.64022 4.034114,-1.1766 9.898313,-1.32601 17.088736,-1.55013 7.19042,-0.22412 15.70659,-0.52293 19.70329,1.51281 3.99669,2.03574 3.47377,6.40589 1.9423,10.53336 -1.53147,4.12747 -4.07139,8.01206 -4.07137,11.41116 3e-5,3.39909 2.53994,6.31251 1.53138,9.59956 -1.00856,3.28705 -5.56545,6.94751 -11.7847,8.64704 -6.21926,1.69953 -14.100452,1.43807 -19.572602,2.01704 -5.472149,0.57898 -8.534988,1.99835 -10.327903,-0.0561 -1.792916,-2.05445 -2.315844,-7.58247 -1.718187,-13.09201 0.597656,-5.50954 2.315831,-11.00022 2.297139,-14.90356 -0.01869,-3.90335 -1.774221,-6.21914 -1.550108,-8.47896 z"
       id="path95"
       transform="matrix(0,-0.79151333,0.79151333,0,-215.10848,151.56413)"
       inkscape:original-d="m 79.79512,293.87892 c 2.203794,-2.20379 4.407588,-4.40759 6.611381,-6.61138 5.864437,-0.14941 11.728636,-0.29882 17.592969,-0.44823 8.51651,-0.29882 17.03268,-0.59764 25.54901,-0.89646 -0.52295,4.3703 -1.04587,8.74045 -1.56879,13.11068 -2.54,3.88472 -5.07992,7.76931 -7.6199,11.65395 2.54003,2.91353 5.07992,5.82697 7.6199,8.74045 -4.55708,3.66062 -9.11397,7.32108 -13.67097,10.98161 -7.88152,-0.26148 -15.762712,-0.52295 -23.644067,-0.78441 -3.062949,1.41941 -6.125792,2.83877 -9.188662,4.25818 -0.522949,-5.52828 -1.045871,-11.0563 -1.56882,-16.58445 1.718257,-5.49093 3.436434,-10.98161 5.154639,-16.47241 -1.75559,-2.31589 -3.511127,-4.63168 -5.26669,-6.94753 z"
       inkscape:path-effect="#path-effect96" />
    <path
       style="fill:#75ae00;fill-opacity:1;stroke:#6b9d11;stroke-width:1.83072;stroke-linecap:round;stroke-linejoin:miter;stroke-miterlimit:5;stroke-dasharray:none;stroke-opacity:1;paint-order:fill markers stroke"
       d="m 29.727917,58.340733 8.212132,-5.631142 5.148019,12.415694 z"
       id="path39" />
    <path
       style="fill:#75ae00;fill-opacity:1;stroke:#6b9d11;stroke-width:1.83072;stroke-linecap:round;stroke-linejoin:miter;stroke-miterlimit:5;stroke-dasharray:none;stroke-opacity:1;paint-order:fill markers stroke"
       d="M 40.22112,76.649059 42.063581,86.434465 28.62613,86.140099 Z"
       id="path38" />
    <path
       style="fill:#75ae00;fill-opacity:1;stroke:#6b9d11;stroke-width:1.83072;stroke-linecap:round;stroke-linejoin:miter;stroke-miterlimit:5;stroke-dasharray:none;stroke-opacity:1;paint-order:fill markers stroke"
       d="M 28.303185,83.27093 20.091052,88.902072 14.943033,76.486371 Z"
       id="path37" />
    <path
       style="fill:#75ae00;fill-opacity:1;stroke:#6b9d11;stroke-width:1.83072;stroke-linecap:round;stroke-linejoin:miter;stroke-miterlimit:5;stroke-dasharray:none;stroke-opacity:1;paint-order:fill markers stroke"
       d="m 15.989469,62.480538 1.732488,-9.805473 12.467428,5.021471 z"
       id="path36" />
    <path
       style="fill:#fe3f62;fill-opacity:1;stroke:#bd0f50;stroke-width:2.56;stroke-linecap:round;stroke-linejoin:miter;stroke-miterlimit:5;stroke-dasharray:none;stroke-opacity:1;paint-order:fill markers stroke"
       d="m 13.886854,303.25436 c -1.008522,-0.80307 -0.97117,-0.97116 -1.045876,-2.71743 -0.07471,-1.74626 -0.261463,-5.07054 0.597655,-7.80662 0.859118,-2.73608 2.764067,-4.88381 4.314209,-6.05107 1.550142,-1.16727 2.745372,-1.35402 4.230146,-1.13924 1.484774,0.21478 3.258989,0.83109 4.687726,1.59681 1.428736,0.76573 2.511934,1.68085 3.249646,2.82946 0.737713,1.1486 1.129901,2.5306 1.185931,3.96868 0.05603,1.43807 -0.224108,2.93215 -0.924479,4.26751 -0.70037,1.33536 -1.820926,2.51194 -3.268348,3.66987 -1.447422,1.15793 -3.221625,2.29716 -4.594325,3.13759 -1.3727,0.84043 -2.343854,1.38204 -3.856642,0.9338 -1.512788,-0.44825 -3.56712,-1.88629 -4.575643,-2.68936 z"
       id="path16"
       inkscape:path-effect="#path-effect17"
       inkscape:original-d="m 12.840985,302.61935 c 0.03736,-0.16806 0.07472,-0.33615 0.112051,-0.50424 -0.186769,-3.32444 -0.373512,-6.64872 -0.560282,-9.9731 1.905,-2.14778 3.809948,-4.29551 5.714921,-6.44327 1.195308,-0.18677 2.390537,-0.37353 3.585819,-0.56028 1.774269,0.61632 3.548485,1.23262 5.322728,1.84894 1.083231,0.91514 2.166435,1.83025 3.249639,2.74539 0.392218,1.38208 0.78441,2.76408 1.176602,4.14613 -0.280141,1.4941 -0.560281,2.98818 -0.840422,4.48228 -1.12059,1.17663 -2.241153,2.3532 -3.361717,3.52978 -1.774269,1.1393 -3.548486,2.27851 -5.322702,3.41775 -0.97118,0.54163 -1.942333,1.08324 -2.913486,1.62484 -2.054436,-1.43809 -4.108767,-2.87613 -6.163151,-4.31422 z"
       transform="matrix(-0.61388926,-0.36679918,0.36679918,-0.61388926,-75.608459,265.38573)" />
    <path
       style="fill:#fe3f62;fill-opacity:1;stroke:#bd0f50;stroke-width:2.56;stroke-linecap:round;stroke-linejoin:miter;stroke-miterlimit:5;stroke-dasharray:none;stroke-opacity:1;paint-order:fill markers stroke"
       d="m 13.468068,303.36078 c -0.206867,-0.2538 -0.620675,-0.76149 -0.834379,-2.67365 -0.213704,-1.91215 -0.22732,-5.22857 0.71837,-7.96074 0.94569,-2.73216 2.850639,-4.87989 4.400781,-6.04715 1.550142,-1.16727 2.745372,-1.35402 4.230146,-1.13924 1.484774,0.21478 3.258989,0.83109 4.687726,1.59681 1.428736,0.76573 2.511934,1.68085 3.249646,2.82946 0.737713,1.1486 1.129901,2.5306 1.185931,3.96868 0.05603,1.43807 -0.224108,2.93215 -0.924479,4.26751 -0.70037,1.33536 -1.820926,2.51194 -3.268348,3.66987 -1.447422,1.15793 -3.221625,2.29716 -4.560106,2.9419 -1.338482,0.64475 -2.241199,0.79499 -3.614962,0.51263 -1.373763,-0.28235 -3.218813,-0.99739 -4.141136,-1.35484 -0.922324,-0.35744 -0.922322,-0.35744 -1.12919,-0.61124 z"
       id="path33"
       inkscape:path-effect="#path-effect35"
       inkscape:original-d="m 13.674936,303.61458 c -0.413736,-0.5076 -0.827543,-1.01529 -1.241334,-1.52296 -0.01362,-3.31664 -0.02723,-6.63306 -0.04085,-9.94961 1.905,-2.14778 3.809948,-4.29551 5.714921,-6.44327 1.195308,-0.18677 2.390537,-0.37353 3.585819,-0.56028 1.774269,0.61632 3.548485,1.23262 5.322728,1.84894 1.083231,0.91514 2.166435,1.83025 3.249639,2.74539 0.392218,1.38208 0.78441,2.76408 1.176602,4.14613 -0.280141,1.4941 -0.560281,2.98818 -0.840422,4.48228 -1.12059,1.17663 -2.241153,2.3532 -3.361717,3.52978 -1.774269,1.1393 -3.548486,2.27851 -5.322702,3.41775 -0.902745,0.15025 -1.805463,0.30049 -2.708176,0.45073 -1.844813,-0.71495 -3.68986,-1.43 -5.53451,-2.14488 z"
       transform="matrix(-0.62028465,0.35587726,-0.35587726,-0.62028465,146.94861,235.67062)"
       sodipodi:nodetypes="ccccccccccccc" />
    <path
       style="fill:#3e1b02;fill-opacity:1;stroke:#341702;stroke-width:3;stroke-linecap:round;stroke-linejoin:miter;stroke-miterlimit:5;stroke-dasharray:none;stroke-opacity:1;paint-order:fill markers stroke"
       d="m 136.27191,302.0404 c -0.0374,-2.93215 -0.18677,-3.08156 -1.92368,-4.46362 -1.73692,-1.38206 -5.06121,-3.99668 -3.75381,-6.25652 1.3074,-2.25984 7.24629,-4.16477 14.73553,-5.34138 7.48924,-1.17661 16.52834,-1.62483 21.06665,0.84048 4.53831,2.46531 4.57566,7.84394 7.07833,11.48582 2.50266,3.64188 7.47042,5.54681 7.89993,9.30079 0.42952,3.75397 -3.67916,9.3567 -9.05797,14.32462 -5.37882,4.96791 -12.0274,9.3007 -17.3875,10.40257 -5.3601,1.10187 -9.43143,-1.02717 -14.30598,-1.64348 -4.87455,-0.6163 -10.55198,0.28015 -11.42972,-1.84899 -0.87773,-2.12915 3.04418,-7.28367 5.04253,-12.7185 1.99834,-5.43482 2.07304,-11.14963 2.03569,-14.08179 z"
       id="path96"
       inkscape:path-effect="#path-effect97"
       inkscape:original-d="m 136.38396,299.25766 c -0.14941,-0.14941 -0.29882,-0.29882 -0.44823,-0.44823 -3.32441,-2.61472 -6.64871,-5.22933 -9.97307,-7.844 5.93916,-1.90502 11.87805,-3.80994 17.8171,-5.71492 9.03943,-0.44823 18.07853,-0.89646 27.1178,-1.34469 0.0374,5.37885 0.0747,10.75748 0.11205,16.13622 4.96798,1.90503 9.93574,3.80995 14.90361,5.71493 -4.10884,5.60297 -8.21751,11.20571 -12.32627,16.80855 -6.64888,4.33298 -13.29746,8.66577 -19.94617,12.99864 -4.07149,-2.12913 -8.14282,-4.25818 -12.21423,-6.38726 -5.67769,0.89649 -11.35512,1.79293 -17.03268,2.68939 3.92208,-5.15475 7.84399,-10.30928 11.76599,-15.46389 0.0747,-5.71503 0.14941,-11.42984 0.2241,-17.14474 z"
       transform="matrix(0,-0.79151333,0.79151333,0,-215.64065,151.20935)" />
    <path
       style="fill:#fe3f62;fill-opacity:1;stroke:#bd0f50;stroke-width:2.56;stroke-linecap:round;stroke-linejoin:miter;stroke-miterlimit:5;stroke-dasharray:none;stroke-opacity:1;paint-order:fill markers stroke"
       d="m 13.886854,303.25436 c -1.008522,-0.80307 -0.97117,-0.97116 -1.045876,-2.71743 -0.07471,-1.74626 -0.261463,-5.07054 0.597655,-7.80662 0.859118,-2.73608 2.764067,-4.88381 4.314209,-6.05107 1.550142,-1.16727 2.745372,-1.35402 4.230146,-1.13924 1.484774,0.21478 3.258989,0.83109 4.687726,1.59681 1.428736,0.76573 2.511934,1.68085 3.249646,2.82946 0.737713,1.1486 1.129901,2.5306 1.185931,3.96868 0.05603,1.43807 -0.224108,2.93215 -0.924479,4.26751 -0.70037,1.33536 -1.820926,2.51194 -3.268348,3.66987 -1.447422,1.15793 -3.221625,2.29716 -4.594325,3.13759 -1.3727,0.84043 -2.343854,1.38204 -3.856642,0.9338 -1.512788,-0.44825 -3.56712,-1.88629 -4.575643,-2.68936 z"
       id="path18"
       inkscape:path-effect="#path-effect31"
       inkscape:original-d="m 12.840985,302.61935 c 0.03736,-0.16806 0.07472,-0.33615 0.112051,-0.50424 -0.186769,-3.32444 -0.373512,-6.64872 -0.560282,-9.9731 1.905,-2.14778 3.809948,-4.29551 5.714921,-6.44327 1.195308,-0.18677 2.390537,-0.37353 3.585819,-0.56028 1.774269,0.61632 3.548485,1.23262 5.322728,1.84894 1.083231,0.91514 2.166435,1.83025 3.249639,2.74539 0.392218,1.38208 0.78441,2.76408 1.176602,4.14613 -0.280141,1.4941 -0.560281,2.98818 -0.840422,4.48228 -1.12059,1.17663 -2.241153,2.3532 -3.361717,3.52978 -1.774269,1.1393 -3.548486,2.27851 -5.322702,3.41775 -0.97118,0.54163 -1.942333,1.08324 -2.913486,1.62484 -2.054436,-1.43809 -4.108767,-2.87613 -6.163151,-4.31422 z"
       transform="matrix(0.61388927,0.36679918,-0.36679918,0.61388927,132.97919,-124.35389)" />
    <path
       style="fill:#fe3f62;fill-opacity:1;stroke:#bd0f50;stroke-width:2.56;stroke-linecap:round;stroke-linejoin:miter;stroke-miterlimit:5;stroke-dasharray:none;stroke-opacity:1;paint-order:fill markers stroke"
       d="m 13.886854,303.25436 c -1.008522,-0.80307 -0.97117,-0.97116 -1.045876,-2.71743 -0.07471,-1.74626 -0.261463,-5.07054 0.597655,-7.80662 0.859118,-2.73608 2.764067,-4.88381 4.314209,-6.05107 1.550142,-1.16727 2.745372,-1.35402 4.230146,-1.13924 1.484774,0.21478 3.258989,0.83109 4.687726,1.59681 1.428736,0.76573 2.511934,1.68085 3.249646,2.82946 0.737713,1.1486 1.129901,2.5306 1.185931,3.96868 0.05603,1.43807 -0.224108,2.93215 -0.924479,4.26751 -0.70037,1.33536 -1.820926,2.51194 -3.268348,3.66987 -1.447422,1.15793 -3.221625,2.29716 -4.594325,3.13759 -1.3727,0.84043 -2.343854,1.38204 -3.856642,0.9338 -1.512788,-0.44825 -3.56712,-1.88629 -4.575643,-2.68936 z"
       id="path31"
       inkscape:path-effect="#path-effect33"
       inkscape:original-d="m 12.840985,302.61935 c 0.03736,-0.16806 0.07472,-0.33615 0.112051,-0.50424 -0.186769,-3.32444 -0.373512,-6.64872 -0.560282,-9.9731 1.905,-2.14778 3.809948,-4.29551 5.714921,-6.44327 1.195308,-0.18677 2.390537,-0.37353 3.585819,-0.56028 1.774269,0.61632 3.548485,1.23262 5.322728,1.84894 1.083231,0.91514 2.166435,1.83025 3.249639,2.74539 0.392218,1.38208 0.78441,2.76408 1.176602,4.14613 -0.280141,1.4941 -0.560281,2.98818 -0.840422,4.48228 -1.12059,1.17663 -2.241153,2.3532 -3.361717,3.52978 -1.774269,1.1393 -3.548486,2.27851 -5.322702,3.41775 -0.97118,0.54163 -1.942333,1.08324 -2.913486,1.62484 -2.054436,-1.43809 -4.108767,-2.87613 -6.163151,-4.31422 z"
       transform="matrix(-0.62028465,0.35587726,-0.35587726,-0.62028465,147.0688,257.34704)" />
    <path
       style="fill:#fe3f62;fill-opacity:1;stroke:#bd0f50;stroke-width:2.56;stroke-linecap:round;stroke-linejoin:miter;stroke-miterlimit:5;stroke-dasharray:none;stroke-opacity:1;paint-order:fill markers stroke"
       d="m 13.886854,303.25436 c -1.008522,-0.80307 -0.97117,-0.97116 -1.045876,-2.71743 -0.07471,-1.74626 -0.261463,-5.07054 0.597655,-7.80662 0.859118,-2.73608 2.764067,-4.88381 4.314209,-6.05107 1.550142,-1.16727 2.745372,-1.35402 4.230146,-1.13924 1.484774,0.21478 3.258989,0.83109 4.687726,1.59681 1.428736,0.76573 2.511934,1.68085 3.249646,2.82946 0.737713,1.1486 1.129901,2.5306 1.185931,3.96868 0.05603,1.43807 -0.224108,2.93215 -0.924479,4.26751 -0.70037,1.33536 -1.820926,2.51194 -3.268348,3.66987 -1.447422,1.15793 -3.221625,2.29716 -4.594325,3.13759 -1.3727,0.84043 -2.343854,1.38204 -3.856642,0.9338 -1.512788,-0.44825 -3.56712,-1.88629 -4.575643,-2.68936 z"
       id="path17"
       inkscape:path-effect="#path-effect29"
       inkscape:original-d="m 12.840985,302.61935 c 0.03736,-0.16806 0.07472,-0.33615 0.112051,-0.50424 -0.186769,-3.32444 -0.373512,-6.64872 -0.560282,-9.9731 1.905,-2.14778 3.809948,-4.29551 5.714921,-6.44327 1.195308,-0.18677 2.390537,-0.37353 3.585819,-0.56028 1.774269,0.61632 3.548485,1.23262 5.322728,1.84894 1.083231,0.91514 2.166435,1.83025 3.249639,2.74539 0.392218,1.38208 0.78441,2.76408 1.176602,4.14613 -0.280141,1.4941 -0.560281,2.98818 -0.840422,4.48228 -1.12059,1.17663 -2.241153,2.3532 -3.361717,3.52978 -1.774269,1.1393 -3.548486,2.27851 -5.322702,3.41775 -0.97118,0.54163 -1.942333,1.08324 -2.913486,1.62484 -2.054436,-1.43809 -4.108767,-2.87613 -6.163151,-4.31422 z"
       transform="matrix(0,0.71512354,-0.71512354,0,249.14802,60.584127)" />
    <path
       style="fill:#fe3f62;fill-opacity:1;stroke:#bd0f50;stroke-width:2.56;stroke-linecap:round;stroke-linejoin:miter;stroke-miterlimit:5;stroke-dasharray:none;stroke-opacity:1;paint-order:fill markers stroke"
       d="m 13.886854,303.25436 c -1.008522,-0.80307 -0.97117,-0.97116 -1.045876,-2.71743 -0.07471,-1.74626 -0.261463,-5.07054 0.597655,-7.80662 0.859118,-2.73608 2.764067,-4.88381 4.314209,-6.05107 1.550142,-1.16727 2.745372,-1.35402 4.230146,-1.13924 1.484774,0.21478 3.258989,0.83109 4.687726,1.59681 1.428736,0.76573 2.511934,1.68085 3.249646,2.82946 0.737713,1.1486 1.129901,2.5306 1.185931,3.96868 0.05603,1.43807 -0.224108,2.93215 -0.924479,4.26751 -0.70037,1.33536 -1.820926,2.51194 -3.268348,3.66987 -1.447422,1.15793 -3.221625,2.29716 -4.594325,3.13759 -1.3727,0.84043 -2.343854,1.38204 -3.856642,0.9338 -1.512788,-0.44825 -3.56712,-1.88629 -4.575643,-2.68936 z"
       id="path5"
       inkscape:path-effect="#path-effect5"
       inkscape:original-d="m 12.840985,302.61935 c 0.03736,-0.16806 0.07472,-0.33615 0.112051,-0.50424 -0.186769,-3.32444 -0.373512,-6.64872 -0.560282,-9.9731 1.905,-2.14778 3.809948,-4.29551 5.714921,-6.44327 1.195308,-0.18677 2.390537,-0.37353 3.585819,-0.56028 1.774269,0.61632 3.548485,1.23262 5.322728,1.84894 1.083231,0.91514 2.166435,1.83025 3.249639,2.74539 0.392218,1.38208 0.78441,2.76408 1.176602,4.14613 -0.280141,1.4941 -0.560281,2.98818 -0.840422,4.48228 -1.12059,1.17663 -2.241153,2.3532 -3.361717,3.52978 -1.774269,1.1393 -3.548486,2.27851 -5.322702,3.41775 -0.97118,0.54163 -1.942333,1.08324 -2.913486,1.62484 -2.054436,-1.43809 -4.108767,-2.87613 -6.163151,-4.31422 z"
       transform="matrix(0,-0.71512354,0.71512354,0,-191.90554,80.308046)" />
    <circle
       style="fill:#8c0447;fill-opacity:1;stroke:#fb649e;stroke-width:1.64537;stroke-linecap:round;stroke-linejoin:miter;stroke-miterlimit:5;stroke-dasharray:none;stroke-opacity:1;paint-order:fill markers stroke"
       id="path15"
       cx="-70.123489"
       cy="28.711779"
       r="3.9792039"
       transform="rotate(-90)" />
    <circle
       style="fill:#ffc615;fill-opacity:1;stroke:#cb9a00;stroke-width:0.715124;stroke-linecap:round;stroke-linejoin:miter;stroke-miterlimit:5;stroke-dasharray:none;stroke-opacity:1;paint-order:fill markers stroke"
       id="path40"
       cx="-64.393883"
       cy="16.491245"
       r="1.4824917"
       transform="rotate(-90)" />
    <circle
       style="fill:#ffc615;fill-opacity:1;stroke:#cb9a00;stroke-width:0.428839;stroke-linecap:round;stroke-linejoin:miter;stroke-miterlimit:5;stroke-dasharray:none;stroke-opacity:1;paint-order:fill markers stroke"
       id="circle40"
       cx="-66.320442"
       cy="20.061052"
       r="0.88900536"
       transform="rotate(-90)" />
    <circle
       style="fill:#ffc615;fill-opacity:1;stroke:#cb9a00;stroke-width:0.880337;stroke-linecap:round;stroke-linejoin:miter;stroke-miterlimit:5;stroke-dasharray:none;stroke-opacity:1;paint-order:fill markers stroke"
       id="circle41"
       cx="-44.427708"
       cy="-66.346245"
       r="1.8249913"
       transform="rotate(-159.525)" />
    <circle
       style="fill:#ffc615;fill-opacity:1;stroke:#cb9a00;stroke-width:0.660139;stroke-linecap:round;stroke-linejoin:miter;stroke-miterlimit:5;stroke-dasharray:none;stroke-opacity:1;paint-order:fill markers stroke"
       id="circle42"
       cx="-45.984081"
       cy="-61.946888"
       r="1.3685046"
       transform="rotate(-159.525)" />
    <circle
       style="fill:#ffc615;fill-opacity:1;stroke:#cb9a00;stroke-width:0.715124;stroke-linecap:round;stroke-linejoin:miter;stroke-miterlimit:5;stroke-dasharray:none;stroke-opacity:1;paint-order:fill markers stroke"
       id="circle43"
       cx="-56.848667"
       cy="-69.238777"
       r="1.4824917"
       transform="rotate(-159.525)" />
    <circle
       style="fill:#ffc615;fill-opacity:1;stroke:#cb9a00;stroke-width:0.505939;stroke-linecap:round;stroke-linejoin:miter;stroke-miterlimit:5;stroke-dasharray:none;stroke-opacity:1;paint-order:fill markers stroke"
       id="circle44"
       cx="-52.585178"
       cy="-65.046738"
       r="1.0488385"
       transform="rotate(-159.525)" />
    <circle
       style="fill:#ffc615;fill-opacity:1;stroke:#cb9a00;stroke-width:0.439766;stroke-linecap:round;stroke-linejoin:miter;stroke-miterlimit:5;stroke-dasharray:none;stroke-opacity:1;paint-order:fill markers stroke"
       id="circle45"
       cx="-56.014355"
       cy="-65.951424"
       r="0.91165924"
       transform="rotate(-159.525)" />
    <circle
       style="fill:#ffc615;fill-opacity:1;stroke:#cb9a00;stroke-width:0.715124;stroke-linecap:round;stroke-linejoin:miter;stroke-miterlimit:5;stroke-dasharray:none;stroke-opacity:1;paint-order:fill markers stroke"
       id="circle46"
       cx="-20.651367"
       cy="60.732986"
       r="1.4824917"
       transform="rotate(-43.827904)" />
    <circle
       style="fill:#ffc615;fill-opacity:1;stroke:#cb9a00;stroke-width:0.428839;stroke-linecap:round;stroke-linejoin:miter;stroke-miterlimit:5;stroke-dasharray:none;stroke-opacity:1;paint-order:fill markers stroke"
       id="circle47"
       cx="-22.577929"
       cy="64.302826"
       r="0.88900536"
       transform="rotate(-43.827904)" />
    <circle
       style="fill:#ffc615;fill-opacity:1;stroke:#cb9a00;stroke-width:0.428839;stroke-linecap:round;stroke-linejoin:miter;stroke-miterlimit:5;stroke-dasharray:none;stroke-opacity:1;paint-order:fill markers stroke"
       id="circle48"
       cx="-18.977543"
       cy="63.988712"
       r="0.88900536"
       transform="rotate(-43.827904)" />
    <circle
       style="fill:#ffc615;fill-opacity:1;stroke:#cb9a00;stroke-width:0.925327;stroke-linecap:round;stroke-linejoin:miter;stroke-miterlimit:5;stroke-dasharray:none;stroke-opacity:1;paint-order:fill markers stroke"
       id="circle49"
       cx="48.129299"
       cy="-72.802803"
       transform="rotate(119.70056)"
       r="1.9182587" />
    <circle
       style="fill:#ffc615;fill-opacity:1;stroke:#cb9a00;stroke-width:0.772805;stroke-linecap:round;stroke-linejoin:miter;stroke-miterlimit:5;stroke-dasharray:none;stroke-opacity:1;paint-order:fill markers stroke"
       id="circle50"
       cx="46.334961"
       cy="-67.502487"
       transform="rotate(119.70056)"
       r="1.6020665" />
    <circle
       style="fill:#ffc615;fill-opacity:1;stroke:#cb9a00;stroke-width:0.593967;stroke-linecap:round;stroke-linejoin:miter;stroke-miterlimit:5;stroke-dasharray:none;stroke-opacity:1;paint-order:fill markers stroke"
       id="circle51"
       cx="-54.922878"
       cy="-49.907093"
       r="1.2313255"
       transform="rotate(-159.525)" />
    <circle
       style="fill:#ffc615;fill-opacity:1;stroke:#cb9a00;stroke-width:0.428839;stroke-linecap:round;stroke-linejoin:miter;stroke-miterlimit:5;stroke-dasharray:none;stroke-opacity:1;paint-order:fill markers stroke"
       id="circle52"
       cx="-18.298691"
       cy="69.745728"
       r="0.88900536"
       transform="rotate(-43.827904)" />
    <circle
       style="fill:#ffc615;fill-opacity:1;stroke:#cb9a00;stroke-width:0.902539;stroke-linecap:round;stroke-linejoin:miter;stroke-miterlimit:5;stroke-dasharray:none;stroke-opacity:1;paint-order:fill markers stroke"
       id="circle53"
       cx="-16.907238"
       cy="73.320328"
       r="1.8710138"
       transform="rotate(-43.827904)" />
    <path
       style="fill:#75ae00;fill-opacity:1;stroke:#6b9d11;stroke-width:1.83072;stroke-linecap:round;stroke-linejoin:miter;stroke-miterlimit:5;stroke-dasharray:none;stroke-opacity:1;paint-order:fill markers stroke"
       d="m 29.49036,16.887569 8.212133,-5.631134 5.148018,12.41569 z"
       id="path53" />
    <path
       style="fill:#75ae00;fill-opacity:1;stroke:#6b9d11;stroke-width:1.83072;stroke-linecap:round;stroke-linejoin:miter;stroke-miterlimit:5;stroke-dasharray:none;stroke-opacity:1;paint-order:fill markers stroke"
       d="m 39.983563,35.195894 1.842453,9.785408 -13.437443,-0.294364 z"
       id="path54" />
    <path
       style="fill:#75ae00;fill-opacity:1;stroke:#6b9d11;stroke-width:1.83072;stroke-linecap:round;stroke-linejoin:miter;stroke-miterlimit:5;stroke-dasharray:none;stroke-opacity:1;paint-order:fill markers stroke"
       d="M 28.065628,41.817766 19.853495,47.448908 14.705476,35.033214 Z"
       id="path62" />
    <path
       style="fill:#75ae00;fill-opacity:1;stroke:#6b9d11;stroke-width:1.83072;stroke-linecap:round;stroke-linejoin:miter;stroke-miterlimit:5;stroke-dasharray:none;stroke-opacity:1;paint-order:fill markers stroke"
       d="M 15.751912,21.02737 17.4844,11.221901 29.95182,16.243372 Z"
       id="path63" />
    <path
       style="fill:#fe3f62;fill-opacity:1;stroke:#bd0f50;stroke-width:2.56;stroke-linecap:round;stroke-linejoin:miter;stroke-miterlimit:5;stroke-dasharray:none;stroke-opacity:1;paint-order:fill markers stroke"
       d="m 13.886854,303.25436 c -1.008522,-0.80307 -0.97117,-0.97116 -1.045876,-2.71743 -0.07471,-1.74626 -0.261463,-5.07054 0.597655,-7.80662 0.859118,-2.73608 2.764067,-4.88381 4.314209,-6.05107 1.550142,-1.16727 2.745372,-1.35402 4.230146,-1.13924 1.484774,0.21478 3.258989,0.83109 4.687726,1.59681 1.428736,0.76573 2.511934,1.68085 3.249646,2.82946 0.737713,1.1486 1.129901,2.5306 1.185931,3.96868 0.05603,1.43807 -0.224108,2.93215 -0.924479,4.26751 -0.70037,1.33536 -1.820926,2.51194 -3.268348,3.66987 -1.447422,1.15793 -3.221625,2.29716 -4.594325,3.13759 -1.3727,0.84043 -2.343854,1.38204 -3.856642,0.9338 -1.512788,-0.44825 -3.56712,-1.88629 -4.575643,-2.68936 z"
       id="path64"
       inkscape:path-effect="#path-effect85"
       inkscape:original-d="m 12.840985,302.61935 c 0.03736,-0.16806 0.07472,-0.33615 0.112051,-0.50424 -0.186769,-3.32444 -0.373512,-6.64872 -0.560282,-9.9731 1.905,-2.14778 3.809948,-4.29551 5.714921,-6.44327 1.195308,-0.18677 2.390537,-0.37353 3.585819,-0.56028 1.774269,0.61632 3.548485,1.23262 5.322728,1.84894 1.083231,0.91514 2.166435,1.83025 3.249639,2.74539 0.392218,1.38208 0.78441,2.76408 1.176602,4.14613 -0.280141,1.4941 -0.560281,2.98818 -0.840422,4.48228 -1.12059,1.17663 -2.241153,2.3532 -3.361717,3.52978 -1.774269,1.1393 -3.548486,2.27851 -5.322702,3.41775 -0.97118,0.54163 -1.942333,1.08324 -2.913486,1.62484 -2.054436,-1.43809 -4.108767,-2.87613 -6.163151,-4.31422 z"
       transform="matrix(-0.61388926,-0.36679918,0.36679918,-0.61388926,-75.846024,223.93256)" />
    <path
       style="fill:#fe3f62;fill-opacity:1;stroke:#bd0f50;stroke-width:2.56;stroke-linecap:round;stroke-linejoin:miter;stroke-miterlimit:5;stroke-dasharray:none;stroke-opacity:1;paint-order:fill markers stroke"
       d="m 13.468068,303.36078 c -0.206867,-0.2538 -0.620675,-0.76149 -0.834379,-2.67365 -0.213704,-1.91215 -0.22732,-5.22857 0.71837,-7.96074 0.94569,-2.73216 2.850639,-4.87989 4.400781,-6.04715 1.550142,-1.16727 2.745372,-1.35402 4.230146,-1.13924 1.484774,0.21478 3.258989,0.83109 4.687726,1.59681 1.428736,0.76573 2.511934,1.68085 3.249646,2.82946 0.737713,1.1486 1.129901,2.5306 1.185931,3.96868 0.05603,1.43807 -0.224108,2.93215 -0.924479,4.26751 -0.70037,1.33536 -1.820926,2.51194 -3.268348,3.66987 -1.447422,1.15793 -3.221625,2.29716 -4.560106,2.9419 -1.338482,0.64475 -2.241199,0.79499 -3.614962,0.51263 -1.373763,-0.28235 -3.218813,-0.99739 -4.141136,-1.35484 -0.922324,-0.35744 -0.922322,-0.35744 -1.12919,-0.61124 z"
       id="path65"
       inkscape:path-effect="#path-effect87"
       inkscape:original-d="m 13.674936,303.61458 c -0.413736,-0.5076 -0.827543,-1.01529 -1.241334,-1.52296 -0.01362,-3.31664 -0.02723,-6.63306 -0.04085,-9.94961 1.905,-2.14778 3.809948,-4.29551 5.714921,-6.44327 1.195308,-0.18677 2.390537,-0.37353 3.585819,-0.56028 1.774269,0.61632 3.548485,1.23262 5.322728,1.84894 1.083231,0.91514 2.166435,1.83025 3.249639,2.74539 0.392218,1.38208 0.78441,2.76408 1.176602,4.14613 -0.280141,1.4941 -0.560281,2.98818 -0.840422,4.48228 -1.12059,1.17663 -2.241153,2.3532 -3.361717,3.52978 -1.774269,1.1393 -3.548486,2.27851 -5.322702,3.41775 -0.902745,0.15025 -1.805463,0.30049 -2.708176,0.45073 -1.844813,-0.71495 -3.68986,-1.43 -5.53451,-2.14488 z"
       transform="matrix(-0.62028465,0.35587726,-0.35587726,-0.62028465,146.71106,194.21745)"
       sodipodi:nodetypes="ccccccccccccc" />
    <path
       style="fill:#fe3f62;fill-opacity:1;stroke:#bd0f50;stroke-width:2.56;stroke-linecap:round;stroke-linejoin:miter;stroke-miterlimit:5;stroke-dasharray:none;stroke-opacity:1;paint-order:fill markers stroke"
       d="m 13.886854,303.25436 c -1.008522,-0.80307 -0.97117,-0.97116 -1.045876,-2.71743 -0.07471,-1.74626 -0.261463,-5.07054 0.597655,-7.80662 0.859118,-2.73608 2.764067,-4.88381 4.314209,-6.05107 1.550142,-1.16727 2.745372,-1.35402 4.230146,-1.13924 1.484774,0.21478 3.258989,0.83109 4.687726,1.59681 1.428736,0.76573 2.511934,1.68085 3.249646,2.82946 0.737713,1.1486 1.129901,2.5306 1.185931,3.96868 0.05603,1.43807 -0.224108,2.93215 -0.924479,4.26751 -0.70037,1.33536 -1.820926,2.51194 -3.268348,3.66987 -1.447422,1.15793 -3.221625,2.29716 -4.594325,3.13759 -1.3727,0.84043 -2.343854,1.38204 -3.856642,0.9338 -1.512788,-0.44825 -3.56712,-1.88629 -4.575643,-2.68936 z"
       id="path66"
       inkscape:path-effect="#path-effect89"
       inkscape:original-d="m 12.840985,302.61935 c 0.03736,-0.16806 0.07472,-0.33615 0.112051,-0.50424 -0.186769,-3.32444 -0.373512,-6.64872 -0.560282,-9.9731 1.905,-2.14778 3.809948,-4.29551 5.714921,-6.44327 1.195308,-0.18677 2.390537,-0.37353 3.585819,-0.56028 1.774269,0.61632 3.548485,1.23262 5.322728,1.84894 1.083231,0.91514 2.166435,1.83025 3.249639,2.74539 0.392218,1.38208 0.78441,2.76408 1.176602,4.14613 -0.280141,1.4941 -0.560281,2.98818 -0.840422,4.48228 -1.12059,1.17663 -2.241153,2.3532 -3.361717,3.52978 -1.774269,1.1393 -3.548486,2.27851 -5.322702,3.41775 -0.97118,0.54163 -1.942333,1.08324 -2.913486,1.62484 -2.054436,-1.43809 -4.108767,-2.87613 -6.163151,-4.31422 z"
       transform="matrix(0.61388927,0.36679918,-0.36679918,0.61388927,132.74163,-165.80705)" />
    <path
       style="fill:#fe3f62;fill-opacity:1;stroke:#bd0f50;stroke-width:2.56;stroke-linecap:round;stroke-linejoin:miter;stroke-miterlimit:5;stroke-dasharray:none;stroke-opacity:1;paint-order:fill markers stroke"
       d="m 13.886854,303.25436 c -1.008522,-0.80307 -0.97117,-0.97116 -1.045876,-2.71743 -0.07471,-1.74626 -0.261463,-5.07054 0.597655,-7.80662 0.859118,-2.73608 2.764067,-4.88381 4.314209,-6.05107 1.550142,-1.16727 2.745372,-1.35402 4.230146,-1.13924 1.484774,0.21478 3.258989,0.83109 4.687726,1.59681 1.428736,0.76573 2.511934,1.68085 3.249646,2.82946 0.737713,1.1486 1.129901,2.5306 1.185931,3.96868 0.05603,1.43807 -0.224108,2.93215 -0.924479,4.26751 -0.70037,1.33536 -1.820926,2.51194 -3.268348,3.66987 -1.447422,1.15793 -3.221625,2.29716 -4.594325,3.13759 -1.3727,0.84043 -2.343854,1.38204 -3.856642,0.9338 -1.512788,-0.44825 -3.56712,-1.88629 -4.575643,-2.68936 z"
       id="path67"
       inkscape:path-effect="#path-effect91"
       inkscape:original-d="m 12.840985,302.61935 c 0.03736,-0.16806 0.07472,-0.33615 0.112051,-0.50424 -0.186769,-3.32444 -0.373512,-6.64872 -0.560282,-9.9731 1.905,-2.14778 3.809948,-4.29551 5.714921,-6.44327 1.195308,-0.18677 2.390537,-0.37353 3.585819,-0.56028 1.774269,0.61632 3.548485,1.23262 5.322728,1.84894 1.083231,0.91514 2.166435,1.83025 3.249639,2.74539 0.392218,1.38208 0.78441,2.76408 1.176602,4.14613 -0.280141,1.4941 -0.560281,2.98818 -0.840422,4.48228 -1.12059,1.17663 -2.241153,2.3532 -3.361717,3.52978 -1.774269,1.1393 -3.548486,2.27851 -5.322702,3.41775 -0.97118,0.54163 -1.942333,1.08324 -2.913486,1.62484 -2.054436,-1.43809 -4.108767,-2.87613 -6.163151,-4.31422 z"
       transform="matrix(-0.62028465,0.35587726,-0.35587726,-0.62028465,146.83125,215.89387)" />
    <path
       style="fill:#fe3f62;fill-opacity:1;stroke:#bd0f50;stroke-width:2.56;stroke-linecap:round;stroke-linejoin:miter;stroke-miterlimit:5;stroke-dasharray:none;stroke-opacity:1;paint-order:fill markers stroke"
       d="m 13.886854,303.25436 c -1.008522,-0.80307 -0.97117,-0.97116 -1.045876,-2.71743 -0.07471,-1.74626 -0.261463,-5.07054 0.597655,-7.80662 0.859118,-2.73608 2.764067,-4.88381 4.314209,-6.05107 1.550142,-1.16727 2.745372,-1.35402 4.230146,-1.13924 1.484774,0.21478 3.258989,0.83109 4.687726,1.59681 1.428736,0.76573 2.511934,1.68085 3.249646,2.82946 0.737713,1.1486 1.129901,2.5306 1.185931,3.96868 0.05603,1.43807 -0.224108,2.93215 -0.924479,4.26751 -0.70037,1.33536 -1.820926,2.51194 -3.268348,3.66987 -1.447422,1.15793 -3.221625,2.29716 -4.594325,3.13759 -1.3727,0.84043 -2.343854,1.38204 -3.856642,0.9338 -1.512788,-0.44825 -3.56712,-1.88629 -4.575643,-2.68936 z"
       id="path68"
       inkscape:path-effect="#path-effect93"
       inkscape:original-d="m 12.840985,302.61935 c 0.03736,-0.16806 0.07472,-0.33615 0.112051,-0.50424 -0.186769,-3.32444 -0.373512,-6.64872 -0.560282,-9.9731 1.905,-2.14778 3.809948,-4.29551 5.714921,-6.44327 1.195308,-0.18677 2.390537,-0.37353 3.585819,-0.56028 1.774269,0.61632 3.548485,1.23262 5.322728,1.84894 1.083231,0.91514 2.166435,1.83025 3.249639,2.74539 0.392218,1.38208 0.78441,2.76408 1.176602,4.14613 -0.280141,1.4941 -0.560281,2.98818 -0.840422,4.48228 -1.12059,1.17663 -2.241153,2.3532 -3.361717,3.52978 -1.774269,1.1393 -3.548486,2.27851 -5.322702,3.41775 -0.97118,0.54163 -1.942333,1.08324 -2.913486,1.62484 -2.054436,-1.43809 -4.108767,-2.87613 -6.163151,-4.31422 z"
       transform="matrix(0,0.71512354,-0.71512354,0,248.91047,19.130963)" />
    <path
       style="fill:#fe3f62;fill-opacity:1;stroke:#bd0f50;stroke-width:2.56;stroke-linecap:round;stroke-linejoin:miter;stroke-miterlimit:5;stroke-dasharray:none;stroke-opacity:1;paint-order:fill markers stroke"
       d="m 13.886854,303.25436 c -1.008522,-0.80307 -0.97117,-0.97116 -1.045876,-2.71743 -0.07471,-1.74626 -0.261463,-5.07054 0.597655,-7.80662 0.859118,-2.73608 2.764067,-4.88381 4.314209,-6.05107 1.550142,-1.16727 2.745372,-1.35402 4.230146,-1.13924 1.484774,0.21478 3.258989,0.83109 4.687726,1.59681 1.428736,0.76573 2.511934,1.68085 3.249646,2.82946 0.737713,1.1486 1.129901,2.5306 1.185931,3.96868 0.05603,1.43807 -0.224108,2.93215 -0.924479,4.26751 -0.70037,1.33536 -1.820926,2.51194 -3.268348,3.66987 -1.447422,1.15793 -3.221625,2.29716 -4.594325,3.13759 -1.3727,0.84043 -2.343854,1.38204 -3.856642,0.9338 -1.512788,-0.44825 -3.56712,-1.88629 -4.575643,-2.68936 z"
       id="path69"
       inkscape:path-effect="#path-effect95"
       inkscape:original-d="m 12.840985,302.61935 c 0.03736,-0.16806 0.07472,-0.33615 0.112051,-0.50424 -0.186769,-3.32444 -0.373512,-6.64872 -0.560282,-9.9731 1.905,-2.14778 3.809948,-4.29551 5.714921,-6.44327 1.195308,-0.18677 2.390537,-0.37353 3.585819,-0.56028 1.774269,0.61632 3.548485,1.23262 5.322728,1.84894 1.083231,0.91514 2.166435,1.83025 3.249639,2.74539 0.392218,1.38208 0.78441,2.76408 1.176602,4.14613 -0.280141,1.4941 -0.560281,2.98818 -0.840422,4.48228 -1.12059,1.17663 -2.241153,2.3532 -3.361717,3.52978 -1.774269,1.1393 -3.548486,2.27851 -5.322702,3.41775 -0.97118,0.54163 -1.942333,1.08324 -2.913486,1.62484 -2.054436,-1.43809 -4.108767,-2.87613 -6.163151,-4.31422 z"
       transform="matrix(0,-0.71512354,0.71512354,0,-192.1431,38.854886)" />
    <circle
       style="fill:#8c0447;fill-opacity:1;stroke:#fb649e;stroke-width:1.64537;stroke-linecap:round;stroke-linejoin:miter;stroke-miterlimit:5;stroke-dasharray:none;stroke-opacity:1;paint-order:fill markers stroke"
       id="circle69"
       cx="-28.67033"
       cy="28.474215"
       r="3.9792039"
       transform="rotate(-90)" />
    <circle
       style="fill:#ffc615;fill-opacity:1;stroke:#cb9a00;stroke-width:0.715124;stroke-linecap:round;stroke-linejoin:miter;stroke-miterlimit:5;stroke-dasharray:none;stroke-opacity:1;paint-order:fill markers stroke"
       id="circle70"
       cx="-22.940716"
       cy="16.253681"
       r="1.4824917"
       transform="rotate(-90)" />
    <circle
       style="fill:#ffc615;fill-opacity:1;stroke:#cb9a00;stroke-width:0.428839;stroke-linecap:round;stroke-linejoin:miter;stroke-miterlimit:5;stroke-dasharray:none;stroke-opacity:1;paint-order:fill markers stroke"
       id="circle71"
       cx="-24.867283"
       cy="19.823511"
       r="0.88900536"
       transform="rotate(-90)" />
    <circle
       style="fill:#ffc615;fill-opacity:1;stroke:#cb9a00;stroke-width:0.880337;stroke-linecap:round;stroke-linejoin:miter;stroke-miterlimit:5;stroke-dasharray:none;stroke-opacity:1;paint-order:fill markers stroke"
       id="circle72"
       cx="-29.704895"
       cy="-27.594978"
       r="1.8249913"
       transform="rotate(-159.525)" />
    <circle
       style="fill:#ffc615;fill-opacity:1;stroke:#cb9a00;stroke-width:0.660139;stroke-linecap:round;stroke-linejoin:miter;stroke-miterlimit:5;stroke-dasharray:none;stroke-opacity:1;paint-order:fill markers stroke"
       id="circle73"
       cx="-31.261265"
       cy="-23.195618"
       r="1.3685046"
       transform="rotate(-159.525)" />
    <circle
       style="fill:#ffc615;fill-opacity:1;stroke:#cb9a00;stroke-width:0.715124;stroke-linecap:round;stroke-linejoin:miter;stroke-miterlimit:5;stroke-dasharray:none;stroke-opacity:1;paint-order:fill markers stroke"
       id="circle74"
       cx="-42.125866"
       cy="-30.487526"
       r="1.4824917"
       transform="rotate(-159.525)" />
    <circle
       style="fill:#ffc615;fill-opacity:1;stroke:#cb9a00;stroke-width:0.505939;stroke-linecap:round;stroke-linejoin:miter;stroke-miterlimit:5;stroke-dasharray:none;stroke-opacity:1;paint-order:fill markers stroke"
       id="circle75"
       cx="-37.862358"
       cy="-26.295486"
       r="1.0488385"
       transform="rotate(-159.525)" />
    <circle
       style="fill:#ffc615;fill-opacity:1;stroke:#cb9a00;stroke-width:0.439766;stroke-linecap:round;stroke-linejoin:miter;stroke-miterlimit:5;stroke-dasharray:none;stroke-opacity:1;paint-order:fill markers stroke"
       id="circle76"
       cx="-41.291561"
       cy="-27.20018"
       r="0.91165924"
       transform="rotate(-159.525)" />
    <circle
       style="fill:#ffc615;fill-opacity:1;stroke:#cb9a00;stroke-width:0.715124;stroke-linecap:round;stroke-linejoin:miter;stroke-miterlimit:5;stroke-dasharray:none;stroke-opacity:1;paint-order:fill markers stroke"
       id="circle77"
       cx="7.8833513"
       cy="30.663223"
       r="1.4824917"
       transform="rotate(-43.827904)" />
    <circle
       style="fill:#ffc615;fill-opacity:1;stroke:#cb9a00;stroke-width:0.428839;stroke-linecap:round;stroke-linejoin:miter;stroke-miterlimit:5;stroke-dasharray:none;stroke-opacity:1;paint-order:fill markers stroke"
       id="circle78"
       cx="5.9567914"
       cy="34.233055"
       r="0.88900536"
       transform="rotate(-43.827904)" />
    <circle
       style="fill:#ffc615;fill-opacity:1;stroke:#cb9a00;stroke-width:0.428839;stroke-linecap:round;stroke-linejoin:miter;stroke-miterlimit:5;stroke-dasharray:none;stroke-opacity:1;paint-order:fill markers stroke"
       id="circle79"
       cx="9.5571709"
       cy="33.918934"
       r="0.88900536"
       transform="rotate(-43.827904)" />
    <circle
       style="fill:#ffc615;fill-opacity:1;stroke:#cb9a00;stroke-width:0.925327;stroke-linecap:round;stroke-linejoin:miter;stroke-miterlimit:5;stroke-dasharray:none;stroke-opacity:1;paint-order:fill markers stroke"
       id="circle80"
       cx="12.239679"
       cy="-52.057774"
       transform="rotate(119.70056)"
       r="1.9182587" />
    <circle
       style="fill:#ffc615;fill-opacity:1;stroke:#cb9a00;stroke-width:0.772805;stroke-linecap:round;stroke-linejoin:miter;stroke-miterlimit:5;stroke-dasharray:none;stroke-opacity:1;paint-order:fill markers stroke"
       id="circle81"
       cx="10.445348"
       cy="-46.757462"
       transform="rotate(119.70056)"
       r="1.6020665" />
    <circle
       style="fill:#ffc615;fill-opacity:1;stroke:#cb9a00;stroke-width:0.593967;stroke-linecap:round;stroke-linejoin:miter;stroke-miterlimit:5;stroke-dasharray:none;stroke-opacity:1;paint-order:fill markers stroke"
       id="circle82"
       cx="-40.200073"
       cy="-11.155846"
       r="1.2313255"
       transform="rotate(-159.525)" />
    <circle
       style="fill:#ffc615;fill-opacity:1;stroke:#cb9a00;stroke-width:0.428839;stroke-linecap:round;stroke-linejoin:miter;stroke-miterlimit:5;stroke-dasharray:none;stroke-opacity:1;paint-order:fill markers stroke"
       id="circle83"
       cx="10.236027"
       cy="39.675953"
       r="0.88900536"
       transform="rotate(-43.827904)" />
    <circle
       style="fill:#ffc615;fill-opacity:1;stroke:#cb9a00;stroke-width:0.902539;stroke-linecap:round;stroke-linejoin:miter;stroke-miterlimit:5;stroke-dasharray:none;stroke-opacity:1;paint-order:fill markers stroke"
       id="circle84"
       cx="11.627483"
       cy="43.250546"
       r="1.8710138"
       transform="rotate(-43.827904)" />
  </g>
</svg>
