<?xml version="1.0" encoding="UTF-8" standalone="no"?>
<svg
   width="146.89838"
   height="146.89838"
   viewBox="0 0 38.866845 38.866845"
   version="1.1"
   id="svg2"
   sodipodi:docname="flower_pot.svg"
   inkscape:export-filename="flower_pot.svg"
   inkscape:export-xdpi="96"
   inkscape:export-ydpi="96"
   inkscape:version="1.3 (0e150ed6c4, 2023-07-21)"
   xmlns:inkscape="http://www.inkscape.org/namespaces/inkscape"
   xmlns:sodipodi="http://sodipodi.sourceforge.net/DTD/sodipodi-0.dtd"
   xmlns="http://www.w3.org/2000/svg"
   xmlns:svg="http://www.w3.org/2000/svg">
  <defs
     id="defs2" />
  <sodipodi:namedview
     id="namedview2"
     pagecolor="#ffffff"
     bordercolor="#000000"
     borderopacity="0.25"
     inkscape:showpageshadow="2"
     inkscape:pageopacity="0.0"
     inkscape:pagecheckerboard="0"
     inkscape:deskcolor="#d1d1d1"
     inkscape:zoom="1.4115817"
     inkscape:cx="143.10188"
     inkscape:cy="109.45169"
     inkscape:window-width="1350"
     inkscape:window-height="1237"
     inkscape:window-x="1234"
     inkscape:window-y="82"
     inkscape:window-maximized="0"
     inkscape:current-layer="svg2" />
  <circle
     cy="19.433422"
     cx="19.433422"
     fill="#7d4114"
     stroke="#1e1e1e"
     stroke-width="2.21075"
     id="circle1"
     style="fill:#960602;fill-opacity:1;stroke:#241811;stroke-opacity:1"
     r="18.328047" />
  <g
     id="g5"
     transform="matrix(-1.5893207,0,0,-1.5893207,39.617992,39.618415)">
    <path
       style="color:#000000;fill:#ebe8eb;-inkscape-stroke:none"
       d="m 21.16,17.584 -5.188,0.784 -3.272,4.1 -3.272,-4.1 L 4.24,17.584 6.155,12.7 4.24,7.816 9.428,7.032 l 3.272,-4.1 3.272,4.1 5.188,0.784 -1.915,4.884 z"
       id="path4" />
    <path
       style="color:#000000;fill:#e1dede;-inkscape-stroke:none"
       d="m 12.699219,2.7460938 c -1.781663,2.54e-4 -3.3339846,4.1777343 -3.3339846,4.1777343 0,0 -4.3959312,-0.744756 -5.2871094,0.7988281 -0.8908913,1.5430872 1.9511719,4.9765628 1.9511719,4.9765628 0,0 -2.842469,3.434963 -1.9511719,4.978515 0.891281,1.543525 5.2871094,0.798828 5.2871094,0.798828 0,0 1.5523216,4.177481 3.3339846,4.177735 1.782069,2.54e-4 3.335937,-4.177735 3.335937,-4.177735 l 5.28711,-0.798828 c -0.65297,-1.658738 -1.302399,-3.31889 -1.953127,-4.978515 0,0 2.843873,-3.4331182 1.953125,-4.9765628 -0.890916,-1.5437358 -5.28711,-0.7988281 -5.28711,-0.7988281 0,0 -1.553866,-4.1779884 -3.335935,-4.1777343 z m 0,0.3710937 3.210937,4.0234375 5.087891,0.7695312 -1.878906,4.7890628 1.878906,4.791015 -5.087891,0.769532 L 12.699219,22.28125 9.4902344,18.259766 4.4003906,17.490234 6.2792969,12.699219 4.4003906,7.9101562 9.4902344,7.140625 Z"
       id="path5"
       sodipodi:nodetypes="scscscscccscsccccccccccccc" />
  </g>
  <g
     id="path1"
     transform="matrix(1.5893207,0,0,1.5893207,-0.75095008,-0.75095008)">
    <path
       style="color:#000000;fill:#e1dede;fill-opacity:1;-inkscape-stroke:none"
       d="m 21.16,17.584 -5.188,0.784 -3.272,4.1 -3.272,-4.1 L 4.24,17.584 6.155,12.7 4.24,7.816 9.428,7.032 l 3.272,-4.1 3.272,4.1 5.188,0.784 -1.915,4.884 z"
       id="path2" />
    <path
       style="color:#000000;fill:#e1dede;-inkscape-stroke:none"
       d="m 12.699219,2.7460938 c -1.781663,2.54e-4 -3.3339846,4.1777343 -3.3339846,4.1777343 0,0 -4.3959312,-0.744756 -5.2871094,0.7988281 -0.8908913,1.5430872 1.9511719,4.9765628 1.9511719,4.9765628 0,0 -2.842469,3.434963 -1.9511719,4.978515 0.891281,1.543525 5.2871094,0.798828 5.2871094,0.798828 0,0 1.5523216,4.177481 3.3339846,4.177735 1.782069,2.54e-4 3.335937,-4.177735 3.335937,-4.177735 l 5.28711,-0.798828 c -0.65297,-1.658738 -1.302399,-3.31889 -1.953127,-4.978515 0,0 2.843873,-3.4331182 1.953125,-4.9765628 -0.890916,-1.5437358 -5.28711,-0.7988281 -5.28711,-0.7988281 0,0 -1.553866,-4.1779884 -3.335935,-4.1777343 z m 0,0.3710937 3.210937,4.0234375 5.087891,0.7695312 -1.878906,4.7890628 1.878906,4.791015 -5.087891,0.769532 L 12.699219,22.28125 9.4902344,18.259766 4.4003906,17.490234 6.2792969,12.699219 4.4003906,7.9101562 9.4902344,7.140625 Z"
       id="path3"
       sodipodi:nodetypes="scscscscccscsccccccccccccc" />
  </g>
  <circle
     cy="19.433422"
     cx="19.433422"
     stroke="#502a0d"
     stroke-width="1.391"
     id="circle2"
     style="fill:#020000;fill-opacity:1;stroke:#680401;stroke-width:2.21061;stroke-dasharray:none;stroke-opacity:0.945098"
     r="8.6872272" />
</svg>
