<?xml version="1.0" encoding="UTF-8" standalone="no"?>
<!-- Created with Inkscape (http://www.inkscape.org/) -->

<svg
   width="57.750336mm"
   height="99.823479mm"
   viewBox="0 0 57.750336 99.823479"
   version="1.1"
   id="svg1"
   inkscape:export-filename="flower_garden_2.svg"
   inkscape:export-xdpi="96"
   inkscape:export-ydpi="96"
   xml:space="preserve"
   xmlns:inkscape="http://www.inkscape.org/namespaces/inkscape"
   xmlns:sodipodi="http://sodipodi.sourceforge.net/DTD/sodipodi-0.dtd"
   xmlns="http://www.w3.org/2000/svg"
   xmlns:svg="http://www.w3.org/2000/svg"><sodipodi:namedview
     id="namedview1"
     pagecolor="#ffffff"
     bordercolor="#000000"
     borderopacity="0.25"
     inkscape:showpageshadow="2"
     inkscape:pageopacity="0.0"
     inkscape:pagecheckerboard="0"
     inkscape:deskcolor="#d1d1d1"
     inkscape:document-units="mm" /><defs
     id="defs1"><inkscape:path-effect
       effect="bspline"
       id="path-effect96"
       is_visible="true"
       lpeversion="1.3"
       weight="33.333333"
       steps="2"
       helper_size="0"
       apply_no_weight="true"
       apply_with_weight="true"
       only_selected="false"
       uniform="false" /><inkscape:path-effect
       effect="bspline"
       id="path-effect96-6"
       is_visible="true"
       lpeversion="1.3"
       weight="33.333333"
       steps="2"
       helper_size="0"
       apply_no_weight="true"
       apply_with_weight="true"
       only_selected="false"
       uniform="false" /></defs><g
     inkscape:label="Layer 1"
     inkscape:groupmode="layer"
     id="layer1"><rect
       style="fill:#451e02;fill-opacity:1;stroke:#803902;stroke-width:3.20563;stroke-linecap:round;stroke-linejoin:miter;stroke-miterlimit:5;stroke-dasharray:none;stroke-opacity:1;paint-order:fill markers stroke"
       id="rect3"
       width="90.521805"
       height="47.559875"
       x="-95.172646"
       y="5.0825372"
       ry="0"
       transform="rotate(-90)"
       sodipodi:insensitive="true" /><rect
       style="fill:none;fill-opacity:1;stroke:#181818;stroke-width:3.53016;stroke-linecap:round;stroke-linejoin:round;stroke-miterlimit:5;stroke-dasharray:none;stroke-opacity:1;paint-order:fill markers stroke"
       id="rect2"
       width="96.29332"
       height="54.220173"
       x="-98.058403"
       y="1.76508"
       ry="0"
       transform="rotate(-90)"
       sodipodi:insensitive="true" /><path
       style="fill:#3e1b02;fill-opacity:1;stroke:#341702;stroke-width:3;stroke-linecap:round;stroke-linejoin:miter;stroke-miterlimit:5;stroke-dasharray:none;stroke-opacity:1;paint-order:fill markers stroke"
       d="m 81.774799,293.93495 c 0.224113,-2.25982 2.42791,-4.46362 6.462025,-5.64022 4.034114,-1.1766 9.898313,-1.32601 17.088736,-1.55013 7.19042,-0.22412 15.70659,-0.52293 19.70329,1.51281 3.99669,2.03574 3.47377,6.40589 1.9423,10.53336 -1.53147,4.12747 -4.07139,8.01206 -4.07137,11.41116 3e-5,3.39909 2.53994,6.31251 1.53138,9.59956 -1.00856,3.28705 -5.56545,6.94751 -11.7847,8.64704 -6.21926,1.69953 -14.100452,1.43807 -19.572602,2.01704 -5.472149,0.57898 -8.534988,1.99835 -10.327903,-0.0561 -1.792916,-2.05445 -2.315844,-7.58247 -1.718187,-13.09201 0.597656,-5.50954 2.315831,-11.00022 2.297139,-14.90356 -0.01869,-3.90335 -1.774221,-6.21914 -1.550108,-8.47896 z"
       id="path95"
       transform="matrix(0,-0.79151333,0.79151333,0,-215.10848,151.56413)"
       inkscape:original-d="m 79.79512,293.87892 c 2.203794,-2.20379 4.407588,-4.40759 6.611381,-6.61138 5.864437,-0.14941 11.728636,-0.29882 17.592969,-0.44823 8.51651,-0.29882 17.03268,-0.59764 25.54901,-0.89646 -0.52295,4.3703 -1.04587,8.74045 -1.56879,13.11068 -2.54,3.88472 -5.07992,7.76931 -7.6199,11.65395 2.54003,2.91353 5.07992,5.82697 7.6199,8.74045 -4.55708,3.66062 -9.11397,7.32108 -13.67097,10.98161 -7.88152,-0.26148 -15.762712,-0.52295 -23.644067,-0.78441 -3.062949,1.41941 -6.125792,2.83877 -9.188662,4.25818 -0.522949,-5.52828 -1.045871,-11.0563 -1.56882,-16.58445 1.718257,-5.49093 3.436434,-10.98161 5.154639,-16.47241 -1.75559,-2.31589 -3.511127,-4.63168 -5.26669,-6.94753 z"
       inkscape:path-effect="#path-effect96" /><circle
       style="fill:#4e7400;fill-opacity:1;stroke:#6b9d11;stroke-width:2.89427;stroke-linecap:round;stroke-linejoin:round;stroke-miterlimit:5;stroke-dasharray:none;stroke-opacity:1;paint-order:fill markers stroke"
       id="path10"
       cx="28.641146"
       cy="69.982292"
       r="8.9978542" /><ellipse
       style="fill:#75ae00;fill-opacity:1;stroke:#6b9d11;stroke-width:1.53203;stroke-linecap:round;stroke-linejoin:round;stroke-miterlimit:5;stroke-dasharray:none;stroke-opacity:1;paint-order:fill markers stroke"
       id="path19"
       cx="29.092289"
       cy="68.848625"
       rx="15.047861"
       ry="14.546267" /><path
       style="fill:#426300;fill-opacity:1;stroke:#334b08;stroke-width:2.47854;stroke-linecap:round;stroke-linejoin:round;stroke-miterlimit:5;stroke-dasharray:none;stroke-opacity:1;paint-order:fill markers stroke"
       d="M 28.59969,62.171406 48.111069,50.906506 37.091192,69.993492 Z"
       id="path20" /><path
       style="fill:#426300;fill-opacity:1;stroke:#334b08;stroke-width:2.47854;stroke-linecap:round;stroke-linejoin:round;stroke-miterlimit:5;stroke-dasharray:none;stroke-opacity:1;paint-order:fill markers stroke"
       d="M 37.453702,68.564434 48.718602,88.075815 29.631616,77.055936 Z"
       id="path21" /><path
       style="fill:#426300;fill-opacity:1;stroke:#334b08;stroke-width:2.47854;stroke-linecap:round;stroke-linejoin:round;stroke-miterlimit:5;stroke-dasharray:none;stroke-opacity:1;paint-order:fill markers stroke"
       d="M 30.110733,76.892886 10.599354,88.157786 21.619231,69.0708 Z"
       id="path22" /><path
       style="fill:#426300;fill-opacity:1;stroke:#334b08;stroke-width:2.47854;stroke-linecap:round;stroke-linejoin:round;stroke-miterlimit:5;stroke-dasharray:none;stroke-opacity:1;paint-order:fill markers stroke"
       d="M 21.256721,70.499858 9.9918209,50.988479 29.078807,62.008356 Z"
       id="path23" /><path
       style="fill:#75ae00;fill-opacity:1;stroke:#6b9d11;stroke-width:2;stroke-linecap:round;stroke-linejoin:round;stroke-miterlimit:5;stroke-dasharray:none;stroke-opacity:1;paint-order:fill markers stroke"
       d="M 28.74556,63.592559 44.489837,54.502597 35.59759,69.904419 Z"
       id="path17" /><path
       style="fill:#ee63e6;fill-opacity:1;stroke:#c015b7;stroke-width:2.5547;stroke-linecap:round;stroke-linejoin:round;stroke-miterlimit:5;stroke-dasharray:none;stroke-opacity:1;paint-order:fill markers stroke"
       d="m 29.153757,64.408276 20.57277,5.512458 -20.81598,5.509706 c 0,0 -0.154429,-10.226677 0.07427,-10.6842 z"
       id="path24"
       sodipodi:nodetypes="cccsc" /><path
       style="fill:#ee63e6;fill-opacity:1;stroke:#c015b7;stroke-width:2.5547;stroke-linecap:round;stroke-linejoin:round;stroke-miterlimit:5;stroke-dasharray:none;stroke-opacity:1;paint-order:fill markers stroke"
       d="M 28.224656,75.430426 7.6518855,69.917968 28.467866,64.408262 c 0,0 0.154429,10.226676 -0.07427,10.684199 z"
       id="path25"
       sodipodi:nodetypes="cccsc" /><path
       style="fill:#ee63e6;fill-opacity:1;stroke:#c015b7;stroke-width:2.5547;stroke-linecap:round;stroke-linejoin:round;stroke-miterlimit:5;stroke-dasharray:none;stroke-opacity:1;paint-order:fill markers stroke"
       d="M 34.257022,69.68374 28.744565,90.25651 23.234859,69.44053 c 0,0 10.226676,-0.154429 10.684199,0.07427 z"
       id="path26"
       sodipodi:nodetypes="cccsc" /><path
       style="fill:#ee63e6;fill-opacity:1;stroke:#c015b7;stroke-width:2.5547;stroke-linecap:round;stroke-linejoin:round;stroke-miterlimit:5;stroke-dasharray:none;stroke-opacity:1;paint-order:fill markers stroke"
       d="m 23.234873,69.515059 5.512457,-20.57277 5.509706,20.81598 c 0,0 -10.226676,0.154429 -10.684199,-0.07426 z"
       id="path27"
       sodipodi:nodetypes="cccsc" /><path
       style="fill:#75ae00;fill-opacity:1;stroke:#6b9d11;stroke-width:2;stroke-linecap:round;stroke-linejoin:round;stroke-miterlimit:5;stroke-dasharray:none;stroke-opacity:1;paint-order:fill markers stroke"
       d="M 35.89011,68.751272 44.980072,84.49555 29.57825,75.603302 Z"
       id="path18" /><path
       style="fill:#75ae00;fill-opacity:1;stroke:#6b9d11;stroke-width:2;stroke-linecap:round;stroke-linejoin:round;stroke-miterlimit:5;stroke-dasharray:none;stroke-opacity:1;paint-order:fill markers stroke"
       d="M 29.964863,75.471733 14.220586,84.561695 23.112833,69.159873 Z"
       id="path16" /><path
       style="fill:#75ae00;fill-opacity:1;stroke:#6b9d11;stroke-width:2;stroke-linecap:round;stroke-linejoin:round;stroke-miterlimit:5;stroke-dasharray:none;stroke-opacity:1;paint-order:fill markers stroke"
       d="M 22.820313,70.31302 13.730351,54.568743 29.132173,63.46099 Z"
       id="path15" /><path
       style="fill:#ee63e6;fill-opacity:1;stroke:#e722dc;stroke-width:2;stroke-linecap:round;stroke-linejoin:round;stroke-miterlimit:5;stroke-dasharray:none;stroke-opacity:1;paint-order:fill markers stroke"
       d="m 29.05289,65.535413 16.105851,4.31555 -16.296253,4.313396 c 0,0 -0.120898,-8.006181 0.05814,-8.364363 z"
       id="path14"
       sodipodi:nodetypes="cccsc" /><path
       style="fill:#ee63e6;fill-opacity:1;stroke:#e722dc;stroke-width:2;stroke-linecap:round;stroke-linejoin:round;stroke-miterlimit:5;stroke-dasharray:none;stroke-opacity:1;paint-order:fill markers stroke"
       d="m 28.325523,74.164348 -16.105851,-4.31555 16.296253,-4.313396 c 0,0 0.120898,8.006181 -0.05814,8.364363 z"
       id="path12"
       sodipodi:nodetypes="cccsc" /><path
       style="fill:#ee63e6;fill-opacity:1;stroke:#e722dc;stroke-width:2;stroke-linecap:round;stroke-linejoin:round;stroke-miterlimit:5;stroke-dasharray:none;stroke-opacity:1;paint-order:fill markers stroke"
       d="m 33.048095,69.665427 -4.31555,16.105851 -4.313396,-16.296253 c 0,0 8.006181,-0.120898 8.364363,0.05814 z"
       id="path13"
       sodipodi:nodetypes="cccsc" /><path
       style="fill:#ee63e6;fill-opacity:1;stroke:#e722dc;stroke-width:2;stroke-linecap:round;stroke-linejoin:round;stroke-miterlimit:5;stroke-dasharray:none;stroke-opacity:1;paint-order:fill markers stroke"
       d="m 24.41916,69.533372 4.31555,-16.105851 4.313396,16.296253 c 0,0 -8.006181,0.120898 -8.364363,-0.05814 z"
       id="path11"
       sodipodi:nodetypes="cccsc" /><path
       style="fill:#3e1b02;fill-opacity:1;stroke:#341702;stroke-width:3;stroke-linecap:round;stroke-linejoin:miter;stroke-miterlimit:5;stroke-dasharray:none;stroke-opacity:1;paint-order:fill markers stroke"
       d="m 80.590905,294.506 c 1.408007,-2.83087 3.611804,-5.03467 6.378433,-7.39519 2.766629,-2.36051 6.095902,-4.87761 13.286382,-5.10173 7.19047,-0.22411 18.24151,1.84481 23.50567,5.06444 5.26415,3.21963 4.74123,7.58978 5.57758,11.31333 0.83636,3.72355 3.03188,6.80026 3.19902,10.99331 0.16714,4.19305 -1.69411,9.50196 -6.3101,11.64691 -4.616,2.14494 -11.98617,1.12567 -17.45333,3.13166 -5.46717,2.006 -9.030732,7.03712 -13.26325,9.1621 -4.232517,2.12499 -9.13393,1.34373 -10.731823,-1.82496 -1.597893,-3.1687 0.107587,-8.72444 -0.478681,-13.66298 -0.586268,-4.93854 -3.46422,-9.2592 -4.597168,-13.14867 -1.132947,-3.88946 -0.520739,-7.34734 0.887267,-10.17822 z"
       id="path95-9"
       transform="matrix(0,-0.79151333,0.79151333,0,-215.18201,111.16357)"
       inkscape:original-d="m 79.79512,293.87892 c 2.203794,-2.20379 4.407588,-4.40759 6.611381,-6.61138 3.329467,-2.51724 6.658737,-5.03434 9.988207,-7.55158 11.051482,2.06901 22.102522,4.13793 33.153772,6.20689 -0.52295,4.3703 -1.04587,8.74045 -1.56879,13.11068 2.19564,3.07687 4.39116,6.15358 6.5868,9.23045 -1.86136,5.30923 -3.72261,10.61814 -5.58397,15.92737 -7.37063,-1.01934 -14.7408,-2.03861 -22.11142,-3.05795 -3.56371,5.03133 -7.127272,10.06245 -10.690905,15.09367 -4.901401,-0.78126 -9.802815,-1.56251 -14.704204,-2.34376 1.705602,-5.55614 3.411084,-11.11188 5.116685,-16.66802 -2.878139,-4.32094 -5.756091,-8.6416 -8.634215,-12.96252 0.612231,-3.45801 1.224438,-6.91589 1.836659,-10.37385 z"
       inkscape:path-effect="#path-effect96-6"
       sodipodi:nodetypes="ccccccccccccc" /><circle
       style="fill:#4e7400;fill-opacity:1;stroke:#6b9d11;stroke-width:2.89427;stroke-linecap:round;stroke-linejoin:round;stroke-miterlimit:5;stroke-dasharray:none;stroke-opacity:1;paint-order:fill markers stroke"
       id="path10-8"
       cx="28.567621"
       cy="29.581738"
       r="8.9978542" /><ellipse
       style="fill:#75ae00;fill-opacity:1;stroke:#6b9d11;stroke-width:1.53203;stroke-linecap:round;stroke-linejoin:round;stroke-miterlimit:5;stroke-dasharray:none;stroke-opacity:1;paint-order:fill markers stroke"
       id="path19-7"
       cx="29.018763"
       cy="28.448071"
       rx="15.047861"
       ry="14.546267" /><path
       style="fill:#426300;fill-opacity:1;stroke:#334b08;stroke-width:2.47854;stroke-linecap:round;stroke-linejoin:round;stroke-miterlimit:5;stroke-dasharray:none;stroke-opacity:1;paint-order:fill markers stroke"
       d="M 28.526165,21.770849 48.037544,10.505949 37.017667,29.592935 Z"
       id="path20-2" /><path
       style="fill:#426300;fill-opacity:1;stroke:#334b08;stroke-width:2.47854;stroke-linecap:round;stroke-linejoin:round;stroke-miterlimit:5;stroke-dasharray:none;stroke-opacity:1;paint-order:fill markers stroke"
       d="M 37.380177,28.163877 48.645077,47.675258 29.558091,36.655379 Z"
       id="path21-1" /><path
       style="fill:#426300;fill-opacity:1;stroke:#334b08;stroke-width:2.47854;stroke-linecap:round;stroke-linejoin:round;stroke-miterlimit:5;stroke-dasharray:none;stroke-opacity:1;paint-order:fill markers stroke"
       d="M 30.037208,36.492329 10.525829,47.757229 21.545706,28.670243 Z"
       id="path22-8" /><path
       style="fill:#426300;fill-opacity:1;stroke:#334b08;stroke-width:2.47854;stroke-linecap:round;stroke-linejoin:round;stroke-miterlimit:5;stroke-dasharray:none;stroke-opacity:1;paint-order:fill markers stroke"
       d="M 21.183196,30.099301 9.9182959,10.587922 29.005282,21.607799 Z"
       id="path23-5" /><path
       style="fill:#75ae00;fill-opacity:1;stroke:#6b9d11;stroke-width:2;stroke-linecap:round;stroke-linejoin:round;stroke-miterlimit:5;stroke-dasharray:none;stroke-opacity:1;paint-order:fill markers stroke"
       d="M 28.672035,23.192002 44.416312,14.10204 35.524065,29.503862 Z"
       id="path17-9" /><path
       style="fill:#ee63e6;fill-opacity:1;stroke:#c015b7;stroke-width:2.5547;stroke-linecap:round;stroke-linejoin:round;stroke-miterlimit:5;stroke-dasharray:none;stroke-opacity:1;paint-order:fill markers stroke"
       d="m 29.080232,24.007719 20.57277,5.512458 -20.81598,5.509706 c 0,0 -0.154429,-10.226677 0.07427,-10.6842 z"
       id="path24-5"
       sodipodi:nodetypes="cccsc" /><path
       style="fill:#ee63e6;fill-opacity:1;stroke:#c015b7;stroke-width:2.5547;stroke-linecap:round;stroke-linejoin:round;stroke-miterlimit:5;stroke-dasharray:none;stroke-opacity:1;paint-order:fill markers stroke"
       d="M 28.151131,35.029869 7.5783599,29.517411 28.394341,24.007705 c 0,0 0.154429,10.226676 -0.07427,10.684199 z"
       id="path25-9"
       sodipodi:nodetypes="cccsc" /><path
       style="fill:#ee63e6;fill-opacity:1;stroke:#c015b7;stroke-width:2.5547;stroke-linecap:round;stroke-linejoin:round;stroke-miterlimit:5;stroke-dasharray:none;stroke-opacity:1;paint-order:fill markers stroke"
       d="m 34.183497,29.283183 -5.512457,20.57277 -5.509706,-20.81598 c 0,0 10.226676,-0.154429 10.684199,0.07427 z"
       id="path26-6"
       sodipodi:nodetypes="cccsc" /><path
       style="fill:#ee63e6;fill-opacity:1;stroke:#c015b7;stroke-width:2.5547;stroke-linecap:round;stroke-linejoin:round;stroke-miterlimit:5;stroke-dasharray:none;stroke-opacity:1;paint-order:fill markers stroke"
       d="M 23.161348,29.114502 28.673805,8.5417323 34.183511,29.357712 c 0,0 -10.226676,0.154429 -10.684199,-0.07426 z"
       id="path27-0"
       sodipodi:nodetypes="cccsc" /><path
       style="fill:#75ae00;fill-opacity:1;stroke:#6b9d11;stroke-width:2;stroke-linecap:round;stroke-linejoin:round;stroke-miterlimit:5;stroke-dasharray:none;stroke-opacity:1;paint-order:fill markers stroke"
       d="M 35.816585,28.350715 44.906547,44.094993 29.504725,35.202745 Z"
       id="path18-7" /><path
       style="fill:#75ae00;fill-opacity:1;stroke:#6b9d11;stroke-width:2;stroke-linecap:round;stroke-linejoin:round;stroke-miterlimit:5;stroke-dasharray:none;stroke-opacity:1;paint-order:fill markers stroke"
       d="M 29.891338,35.071176 14.147061,44.161138 23.039308,28.759316 Z"
       id="path16-9" /><path
       style="fill:#75ae00;fill-opacity:1;stroke:#6b9d11;stroke-width:2;stroke-linecap:round;stroke-linejoin:round;stroke-miterlimit:5;stroke-dasharray:none;stroke-opacity:1;paint-order:fill markers stroke"
       d="M 22.746788,29.912463 13.656826,14.168186 29.058648,23.060433 Z"
       id="path15-0" /><path
       style="fill:#ee63e6;fill-opacity:1;stroke:#e722dc;stroke-width:2;stroke-linecap:round;stroke-linejoin:round;stroke-miterlimit:5;stroke-dasharray:none;stroke-opacity:1;paint-order:fill markers stroke"
       d="m 24.551695,28.835159 4.31555,-16.105851 4.313396,16.296253 c 0,0 -8.006181,0.120898 -8.364363,-0.05814 z"
       id="path14-9"
       sodipodi:nodetypes="cccsc" /><path
       style="fill:#ee63e6;fill-opacity:1;stroke:#e722dc;stroke-width:2;stroke-linecap:round;stroke-linejoin:round;stroke-miterlimit:5;stroke-dasharray:none;stroke-opacity:1;paint-order:fill markers stroke"
       d="M 33.18063,29.562526 28.86508,45.668377 24.551684,29.372124 c 0,0 8.006181,-0.120898 8.364363,0.05814 z"
       id="path12-9"
       sodipodi:nodetypes="cccsc" /><path
       style="fill:#ee63e6;fill-opacity:1;stroke:#e722dc;stroke-width:2;stroke-linecap:round;stroke-linejoin:round;stroke-miterlimit:5;stroke-dasharray:none;stroke-opacity:1;paint-order:fill markers stroke"
       d="M 28.681709,24.839954 44.78756,29.155504 28.491307,33.4689 c 0,0 -0.120898,-8.006181 0.05814,-8.364363 z"
       id="path13-0"
       sodipodi:nodetypes="cccsc" /><path
       style="fill:#ee63e6;fill-opacity:1;stroke:#e722dc;stroke-width:2;stroke-linecap:round;stroke-linejoin:round;stroke-miterlimit:5;stroke-dasharray:none;stroke-opacity:1;paint-order:fill markers stroke"
       d="m 28.549654,33.468889 -16.105851,-4.31555 16.296253,-4.313396 c 0,0 0.120898,8.006181 -0.05814,8.364363 z"
       id="path11-4"
       sodipodi:nodetypes="cccsc" /></g></svg>
