<?xml version="1.0" encoding="UTF-8" standalone="no"?>
<svg
   width="522.39148"
   height="582.15509"
   viewBox="0 0 522.39148 582.15509"
   fill="none"
   version="1.1"
   id="svg52"
   sodipodi:docname="oak_tree_1.svg"
   inkscape:version="1.3 (0e150ed6c4, 2023-07-21)"
   xmlns:inkscape="http://www.inkscape.org/namespaces/inkscape"
   xmlns:sodipodi="http://sodipodi.sourceforge.net/DTD/sodipodi-0.dtd"
   xmlns="http://www.w3.org/2000/svg"
   xmlns:svg="http://www.w3.org/2000/svg">
  <defs
     id="defs56" />
  <sodipodi:namedview
     id="namedview54"
     pagecolor="#505050"
     bordercolor="#ffffff"
     borderopacity="1"
     inkscape:pageshadow="0"
     inkscape:pageopacity="0"
     inkscape:pagecheckerboard="1"
     showgrid="false"
     inkscape:zoom="1.5334507"
     inkscape:cx="411.49024"
     inkscape:cy="383.44891"
     inkscape:window-width="1350"
     inkscape:window-height="746"
     inkscape:window-x="1239"
     inkscape:window-y="619"
     inkscape:window-maximized="0"
     inkscape:current-layer="svg52"
     height="609.877px"
     inkscape:showpageshadow="2"
     inkscape:deskcolor="#505050" />
  <path
     d="m 293.11918,124.5144 -62.87065,115.53244 c 0,0 -22.69183,19.07205 -36.74179,31.84288 -28.36437,25.77982 -69.40122,69.40184 -69.40122,69.40184 l 3.26601,68.17608 16.35158,-56.31893 82.85227,-44.5172 31.4343,73.89215 -73.22282,50.69936 -10.87574,75.855 30.38102,-56.34972 c 0,0 38.73543,-21.02669 56.57557,-32.64568 18.97145,-12.35608 29.80202,-24.49453 29.80202,-24.49453 l 20.41073,28.57627 -13.06238,75.52444 43.83761,-82.89128 -70.37505,-108.98113 83.68997,-54.70512 14.69671,-61.23713 -32.11801,41.16312 -67.90096,26.19661 41.23211,-109.3507 52.33369,-29.77122 z"
     fill="#5b3e24"
     id="path2"
     style="opacity:0.9;stroke-width:2.05319" />
  <path
     d="m 230.27112,239.63825 5.71607,-40.0082 -20.00421,-68.17629 42.45787,-61.644891 -12.65585,72.667431 31.84288,57.15375 -7.34836,59.60177 86.54801,17.55475 55.92882,-29.39343 66.5438,24.08594 -66.5438,8.16553 -55.92882,40.00841 -83.68997,-11.02357 c 13.59826,34.90213 20.81932,88.99746 20.81932,88.99746 l -26.94398,55.11371 -11.83868,50.21274 -15.51388,-61.64489 15.51388,-54.29654 c 0,0 -11.41982,-50.42628 -28.16973,-78.38248 l -45.31404,16.33105 c -25.75478,1.54605 -61.57899,-8.76916 -61.57899,-8.76916 L 72.888149,336.72321 110.87211,291.7153 h 51.6313 l 31.02633,-20.23622 -24.08635,-31.84083 -15.43155,-40.0082 -46.19672,-33.94021 66.72859,19.50528 c 0,0 30.79761,48.25072 55.72741,54.44313 z"
     fill="#6d4a2c"
     stroke="#1b1917"
     stroke-width="12.3191"
     stroke-miterlimit="16"
     stroke-linejoin="round"
     id="path4"
     style="stroke:#312114;stroke-width:9;stroke-miterlimit:16;stroke-dasharray:none;stroke-opacity:1" />
  <path
     opacity="0.95"
     d="m 120.43155,425.39011 c 66.51259,0 120.43196,-53.73602 120.43196,-120.02317 0,-66.28715 -53.91937,-120.02399 -120.43196,-120.02399 C 53.919162,185.34295 0,239.07979 0,305.36694 0,371.65409 53.919162,425.39011 120.43155,425.39011 Z"
     fill="#3a4f3f"
     id="path6"
     style="fill:#ffa4d0;fill-opacity:0.772549;stroke-width:2.05319" />
  <path
     opacity="0.95"
     d="m 256.02014,253.17286 c 70.14919,0 127.01632,-56.67515 127.01632,-126.58659 C 383.03646,56.674835 326.16933,0 256.02014,0 185.87115,0 129.00402,56.674835 129.00402,126.58627 c 0,69.91144 56.86713,126.58659 127.01612,126.58659 z"
     fill="#3a4f3f"
     id="path8"
     style="fill:#ffa4d0;fill-opacity:0.772549;stroke-width:2.05319" />
  <path
     opacity="0.95"
     d="m 267.3989,582.15506 c 66.513,0 120.43176,-53.73601 120.43176,-120.02317 0,-66.28715 -53.91876,-120.02317 -120.43176,-120.02317 -66.51259,0 -120.43155,53.73602 -120.43155,120.02317 0,66.28716 53.91896,120.02317 120.43155,120.02317 z"
     fill="#3a4f3f"
     id="path10"
     style="fill:#ffa4d0;fill-opacity:0.772549;stroke-width:2.05319" />
  <path
     opacity="0.95"
     d="m 401.95974,385.5567 c 66.513,0 120.43175,-53.73602 120.43175,-120.02317 0,-66.28715 -53.91875,-120.02399 -120.43175,-120.02399 -66.513,0 -120.43176,53.73684 -120.43176,120.02399 0,66.28715 53.91876,120.02317 120.43176,120.02317 z"
     fill="#3a4f3f"
     id="path12"
     style="fill:#ffa4d0;fill-opacity:0.77254903;stroke-width:2.05319" />
  <path
     opacity="0.85"
     d="m 146.55918,263.72419 c 45.76965,0 82.87218,-36.92041 82.87218,-82.46462 0,-45.54421 -37.10253,-82.465034 -82.87218,-82.465034 -45.76965,0 -82.873211,36.920824 -82.873211,82.465034 0,45.54421 37.103561,82.46462 82.873211,82.46462 z"
     fill="#485e52"
     id="path14"
     style="opacity:0.8;fill:#ff89c7;fill-opacity:0.772549;stroke-width:2.05319" />
  <path
     opacity="0.85"
     d="m 261.68283,567.4563 c 45.76965,0 82.8728,-36.92042 82.8728,-82.46422 0,-45.5438 -37.10315,-82.46627 -82.8728,-82.46627 -45.76965,0 -82.87342,36.92247 -82.87342,82.46627 0,45.5438 37.10377,82.46422 82.87342,82.46422 z"
     fill="#485e52"
     id="path16"
     style="opacity:0.8;fill:#ff89c7;fill-opacity:0.772549;stroke-width:2.05319" />
  <path
     opacity="0.85"
     d="m 432.79057,365.77408 c 45.76965,0 82.8728,-36.92042 82.8728,-82.46422 0,-45.5438 -37.10315,-82.46544 -82.8728,-82.46544 -45.76965,0 -82.8728,36.92164 -82.8728,82.46544 0,45.5438 37.10315,82.46422 82.8728,82.46422 z"
     fill="#485e52"
     id="path18"
     style="opacity:0.8;fill:#ff89c7;fill-opacity:0.771154;stroke-width:2.05319" />
  <path
     opacity="0.85"
     d="m 276.3816,137.85375 c 30.88815,0 55.92882,-24.85794 55.92882,-55.521259 0,-30.663531 -25.04067,-55.521265 -55.92882,-55.521265 -30.89021,0 -55.93088,24.857734 -55.93088,55.521265 0,30.663319 25.04067,55.521259 55.93088,55.521259 z"
     fill="#485e52"
     id="path20"
     style="opacity:0.8;fill:#ff89c7;fill-opacity:0.772549;stroke-width:2.05319" />
  <path
     opacity="0.85"
     d="m 82.87321,432.73641 c 45.76965,0 82.87321,-36.92041 82.87321,-82.46421 0,-45.54586 -37.10356,-82.46627 -82.87321,-82.46627 C 37.103764,267.80593 0,304.72634 0,350.2722 c 0,45.5438 37.103764,82.46421 82.87321,82.46421 z"
     fill="#485e52"
     id="path22"
     style="opacity:0.8;fill:#ff89c7;fill-opacity:0.772549;stroke-width:2.05319" />
  <path
     d="m 10.310285,413.15927 c 15.83685,2.81697 50.093664,-4.59093 40.02586,-23.56443 -11.703167,-18.01261 -34.807232,8.3421 -40.031321,23.55622 l -0.0078,0.004 c 0.0028,0 0.01109,0.002 0.01326,0.004 z"
     fill="#77a37a"
     id="path24"
     style="fill:#ff6ab7;fill-opacity:0.772549;stroke-width:2.05319" />
  <path
     d="m 35.194505,448.08809 0.0041,-0.0144 c 17.2092,-11.95981 41.957293,-50.25997 15.137945,-58.47888 -27.438385,-5.83105 -24.391044,39.66553 -15.150059,58.47477 l -0.0041,0.0144 c 0.0014,-0.002 0.0055,-0.004 0.0068,-0.006 10e-4,0.004 0.0029,0.006 0.0053,0.0103 z"
     fill="#5f926a"
     id="path26"
     style="fill:#ff6ab7;fill-opacity:0.772549;stroke-width:2.05319" />
  <path
     d="m 305.43214,472.74071 c -3.74501,15.64324 -24.22761,44.08399 -37.59796,27.27249 -11.83252,-17.92638 21.56052,-28.57215 37.5918,-27.2807 l 0.008,-0.006 c 0,0.004 -0.002,0.0123 -0.002,0.0144 z"
     fill="#5f926a"
     id="path28"
     style="fill:#ff6ab7;fill-opacity:0.772549;stroke-width:2.05319" />
  <path
     d="m 289.44397,556.43684 -0.006,-0.0123 c -18.44172,-9.95385 -47.33007,-45.23377 -21.60363,-56.41132 26.61136,-8.87388 28.68918,36.68019 21.61595,56.40516 l 0.006,0.0144 c -0.002,-0.002 -0.006,-0.004 -0.008,-0.004 0,0.004 -0.002,0.006 -0.004,0.008 z"
     fill="#587e60"
     id="path30"
     style="fill:#ff6ab7;fill-opacity:0.772549;stroke-width:2.05319" />
  <path
     d="m 244.36214,528.95288 0.006,-0.008 c -0.6447,-13.1404 9.00117,-39.68195 23.46588,-28.93146 13.50586,11.93107 -10.46921,26.85364 -23.45972,28.93762 0,0 -0.008,0 -0.0123,0.002 z"
     fill="#77a37a"
     id="path32"
     style="fill:#ff6ab7;fill-opacity:0.772549;stroke-width:2.05319" />
  <path
     d="m 202.33545,35.94832 -0.002,0.0076 c -13.26688,9.094799 -32.49888,38.39604 -12.01587,44.86666 20.97392,4.637534 18.96796,-30.353705 12.02613,-44.863785 -0.002,-0.0027 -0.006,-0.0066 -0.008,-0.01047 z"
     fill="#5f926a"
     id="path34"
     style="fill:#ff6ab7;fill-opacity:0.772549;stroke-width:2.05319" />
  <path
     d="m 160.10139,28.500794 0.007,0.01314 c -3.88586,20.592853 5.32207,65.253167 30.20834,52.309875 23.6519,-15.080456 -10.42116,-45.384679 -30.19746,-52.316034 l -0.007,-0.01314 c 2.1e-4,0.0023 -4.1e-4,0.0074 -8.2e-4,0.0088 -0.004,-0.0025 -0.006,-0.0025 -0.01,-0.0027 z"
     fill="#587e60"
     id="path36"
     style="fill:#ff6ab7;fill-opacity:0.772549;stroke-width:2.05319" />
  <path
     d="m 154.32598,90.472146 0.008,-0.0025 c 11.73786,5.942335 39.90698,7.94255 35.98211,-9.645668 -5.39496,-17.194417 -28.7898,-1.376457 -35.98417,9.637661 -8.2e-4,0.0012 -0.003,0.0076 -0.006,0.01047 z"
     fill="#77a37a"
     id="path38"
     style="fill:#ff6ab7;fill-opacity:0.772549;stroke-width:2.05319" />
  <path
     d="m 210.49276,262.23974 c 7.32783,14.32098 10.26594,49.2457 -10.82543,45.17012 -20.64808,-5.92345 -2.20409,-35.72546 10.81517,-45.17217 l 0.002,-0.006 c 0.002,0.002 0.006,0.008 0.008,0.008 z"
     fill="#5f926a"
     id="path40"
     style="fill:#ff6ab7;fill-opacity:0.772549;stroke-width:2.05319" />
  <path
     d="m 226.70473,333.05006 -0.006,-0.006 c -13.15067,-0.37162 -38.86643,-12.04399 -27.03144,-25.63199 12.94041,-12.54292 25.96378,12.51418 27.0376,25.62583 0,0.002 0,0.008 0,0.0123 z"
     fill="#77a37a"
     id="path42"
     style="fill:#ff6ab7;fill-opacity:0.772549;stroke-width:2.05319" />
  <path
     d="m 251.17256,275.82157 -0.0164,0.006 c -6.40184,19.95493 -35.78706,54.82421 -51.4923,31.58418 -13.60216,-24.53353 30.79617,-34.92882 51.48614,-31.59444 l 0.0144,-0.008 c 0,0.002 -0.002,0.008 -0.002,0.008 0.004,0 0.008,0.002 0.0103,0.004 z"
     fill="#587e60"
     id="path44"
     style="fill:#ff6ab7;fill-opacity:0.772549;stroke-width:2.05319" />
  <path
     d="m 507.29472,287.79624 c -9.09562,-13.2677 -38.39665,-32.4999 -44.86624,-12.01731 -4.63816,20.97331 30.35226,18.9694 44.86419,12.02757 l 0.006,0.002 c 0,-0.004 -0.004,-0.0103 -0.004,-0.0123 z"
     fill="#5f926a"
     id="path46"
     style="fill:#ff6ab7;fill-opacity:0.772549;stroke-width:2.05319" />
  <path
     d="m 497.19778,222.1451 -0.008,0.0144 c -19.7763,6.92951 -53.851,37.23455 -30.19828,52.31521 24.88669,12.94329 34.09318,-31.71764 30.20855,-52.30905 l 0.008,-0.0144 c -0.002,0.002 -0.006,0.004 -0.008,0.004 0,-0.004 -0.002,-0.006 -0.002,-0.0103 z"
     fill="#587e60"
     id="path48"
     style="fill:#ff6ab7;fill-opacity:0.772549;stroke-width:2.05319" />
  <path
     d="m 457.34336,238.48436 0.002,0.008 c -5.94193,11.73602 -7.94173,39.90575 9.64587,35.98211 17.19545,-5.39577 1.37769,-28.79184 -9.63766,-35.98621 l -0.002,-0.006 c 0.002,-0.002 0,0 0,0 -0.002,-0.002 -0.006,0.004 -0.008,0.002 z"
     fill="#77a37a"
     id="path50"
     style="fill:#ff6ab7;fill-opacity:0.772549;stroke-width:2.05319" />
</svg>
