<?xml version="1.0" encoding="UTF-8" standalone="no"?>
<!-- Generator: Adobe Illustrator 27.0.0, SVG Export Plug-In . SVG Version: 6.00 Build 0)  -->

<svg
   version="1.1"
   id="svg1"
   inkscape:export-filename="Small_Bridge.svg"
   inkscape:export-xdpi="96"
   inkscape:export-ydpi="96"
   inkscape:version="1.3 (0e150ed6c4, 2023-07-21)"
   sodipodi:docname="small_bridge.svg"
   x="0px"
   y="0px"
   viewBox="0 0 220.91992 710.99998"
   xml:space="preserve"
   width="220.91991"
   height="711"
   xmlns:inkscape="http://www.inkscape.org/namespaces/inkscape"
   xmlns:sodipodi="http://sodipodi.sourceforge.net/DTD/sodipodi-0.dtd"
   xmlns="http://www.w3.org/2000/svg"
   xmlns:svg="http://www.w3.org/2000/svg"><defs
   id="defs19" />&#10;<style
   type="text/css"
   id="style1">&#10;	.st0{fill:#8A4C25;stroke:#58310E;stroke-width:6.3199;stroke-linejoin:round;stroke-miterlimit:11.3386;}&#10;	.st1{fill:#713E1E;stroke:#58310E;stroke-width:6.3199;stroke-linejoin:round;stroke-miterlimit:11.3386;}&#10;	.st2{fill:#5C3924;stroke:#301B08;stroke-width:6.3199;stroke-linejoin:round;stroke-miterlimit:11.3386;}&#10;	.st3{fill:#5C3924;stroke:#301B08;stroke-width:6;stroke-linejoin:round;stroke-miterlimit:11.3386;}&#10;</style>&#10;<sodipodi:namedview
   bordercolor="#000000"
   borderopacity="0.25"
   id="namedview1"
   inkscape:current-layer="layer1"
   inkscape:cx="571.76704"
   inkscape:cy="-147.97646"
   inkscape:deskcolor="#d1d1d1"
   inkscape:document-units="mm"
   inkscape:pagecheckerboard="0"
   inkscape:pageopacity="0.0"
   inkscape:showpageshadow="2"
   inkscape:window-height="837"
   inkscape:window-maximized="1"
   inkscape:window-width="1600"
   inkscape:window-x="-8"
   inkscape:window-y="-8"
   inkscape:zoom="0.57103676"
   pagecolor="#ffffff"
   showgrid="false">&#10;	</sodipodi:namedview>&#10;<rect
   x="3.15995"
   y="120.2"
   class="st0"
   width="214.60001"
   height="38.299999"
   id="rect1" />&#10;<rect
   x="3.15995"
   y="81.899994"
   class="st1"
   width="214.60001"
   height="38.299999"
   id="rect2" />&#10;<rect
   x="3.15995"
   y="196.8"
   class="st0"
   width="214.60001"
   height="38.299999"
   id="rect3" />&#10;<rect
   x="3.15995"
   y="158.49998"
   class="st1"
   width="214.60001"
   height="38.299999"
   id="rect4" />&#10;<rect
   x="3.15995"
   y="274.79999"
   class="st0"
   width="214.60001"
   height="38.299999"
   id="rect5" />&#10;<rect
   x="3.15995"
   y="236.49998"
   class="st1"
   width="214.60001"
   height="38.299999"
   id="rect6" />&#10;<rect
   x="3.15995"
   y="351.40002"
   class="st0"
   width="214.60001"
   height="38.299999"
   id="rect7" />&#10;<rect
   x="3.15995"
   y="313.09998"
   class="st1"
   width="214.60001"
   height="38.299999"
   id="rect8" />&#10;<rect
   x="3.15995"
   y="429.40002"
   class="st0"
   width="214.60001"
   height="38.299999"
   id="rect9" />&#10;<rect
   x="3.15995"
   y="391.10004"
   class="st1"
   width="214.60001"
   height="38.299999"
   id="rect10" />&#10;<rect
   x="3.15995"
   y="506"
   class="st0"
   width="214.60001"
   height="38.299999"
   id="rect11" />&#10;<rect
   x="3.15995"
   y="467.70001"
   class="st1"
   width="214.60001"
   height="38.299999"
   id="rect12" />&#10;<rect
   x="3.15995"
   y="584.10004"
   class="st0"
   width="214.60001"
   height="38.299999"
   id="rect13" />&#10;<rect
   x="3.15995"
   y="545.79999"
   class="st1"
   width="214.60001"
   height="38.299999"
   id="rect14" />&#10;<rect
   x="3.15995"
   y="660.70001"
   class="st0"
   width="214.60001"
   height="38.299999"
   id="rect15" />&#10;<rect
   x="3.15995"
   y="622.40002"
   class="st1"
   width="214.60001"
   height="38.299999"
   id="rect16" />&#10;<rect
   x="3.15995"
   y="42.199997"
   class="st0"
   width="214.60001"
   height="38.299999"
   id="rect17" />&#10;<rect
   x="3.15995"
   y="3.8999939"
   class="st1"
   width="214.60001"
   height="38.299999"
   id="rect18" />&#10;<g
   id="layer1"
   inkscape:groupmode="layer"
   inkscape:label="Layer 1">&#10;	&#10;		&#10;	&#10;		&#10;	&#10;		&#10;	&#10;		&#10;	&#10;		&#10;	&#10;		&#10;	<rect
   id="rect19"
   x="187.75995"
   y="5"
   class="st3"
   width="14.7"
   height="703" />&#10;	&#10;		<rect
   id="rect13_00000022555540556800429040000002834010471983543956_"
   x="19.459953"
   y="3"
   class="st3"
   width="14.7"
   height="703" />&#10;	&#10;		&#10;	&#10;		&#10;	&#10;		&#10;	&#10;		&#10;</g><path
   id="path10"
   sodipodi:arc-type="arc"
   sodipodi:cx="-138.99721"
   sodipodi:cy="26.291237"
   sodipodi:end="3.1668084"
   sodipodi:open="true"
   sodipodi:rx="6.8227439"
   sodipodi:ry="6.8227978"
   sodipodi:start="3.1669708"
   sodipodi:type="arc"
   class="st2"
   d="m -145.81775,26.118106 a 6.8227439,6.8227978 0 0 1 6.9934,-6.647477 6.8227439,6.8227978 0 0 1 6.6477,6.993185 6.8227439,6.8227978 0 0 1 -6.99286,6.648045 6.8227439,6.8227978 0 0 1 -6.64827,-6.992646"
   transform="rotate(-90)" /><path
   id="path11"
   sodipodi:arc-type="arc"
   sodipodi:cx="-81.334351"
   sodipodi:cy="26.291237"
   sodipodi:end="3.1668084"
   sodipodi:open="true"
   sodipodi:rx="6.8227439"
   sodipodi:ry="6.8227978"
   sodipodi:start="3.1669708"
   sodipodi:type="arc"
   class="st2"
   d="m -88.154898,26.118106 a 6.8227439,6.8227978 0 0 1 6.993401,-6.647477 6.8227439,6.8227978 0 0 1 6.647707,6.993185 6.8227439,6.8227978 0 0 1 -6.99286,6.648045 6.8227439,6.8227978 0 0 1 -6.648276,-6.992646"
   transform="rotate(-90)" /><path
   id="path2"
   sodipodi:arc-type="arc"
   sodipodi:cx="-206.1613"
   sodipodi:cy="26.291237"
   sodipodi:end="3.1668084"
   sodipodi:open="true"
   sodipodi:rx="6.8227439"
   sodipodi:ry="6.8227978"
   sodipodi:start="3.1669708"
   sodipodi:type="arc"
   class="st2"
   d="m -212.98185,26.118106 a 6.8227439,6.8227978 0 0 1 6.9934,-6.647477 6.8227439,6.8227978 0 0 1 6.64771,6.993185 6.8227439,6.8227978 0 0 1 -6.99286,6.648045 6.8227439,6.8227978 0 0 1 -6.64828,-6.992646"
   transform="rotate(-90)" /><path
   id="path12_00000142146500223758839080000007059715463363348903_"
   sodipodi:arc-type="arc"
   sodipodi:cx="-23.507675"
   sodipodi:cy="26.291237"
   sodipodi:end="3.1668084"
   sodipodi:open="true"
   sodipodi:rx="6.8227439"
   sodipodi:ry="6.8227978"
   sodipodi:start="3.1669708"
   sodipodi:type="arc"
   class="st2"
   d="m -30.328222,26.118106 a 6.8227439,6.8227978 0 0 1 6.9934,-6.647477 6.8227439,6.8227978 0 0 1 6.647708,6.993185 6.8227439,6.8227978 0 0 1 -6.99286,6.648045 6.8227439,6.8227978 0 0 1 -6.648276,-6.992646"
   transform="rotate(-90)" />&#10;<path
   id="path19"
   sodipodi:arc-type="arc"
   sodipodi:cx="-381.70123"
   sodipodi:cy="26.291237"
   sodipodi:end="3.1668084"
   sodipodi:open="true"
   sodipodi:rx="6.8227439"
   sodipodi:ry="6.8227978"
   sodipodi:start="3.1669708"
   sodipodi:type="arc"
   class="st2"
   d="m -388.52178,26.118106 a 6.8227439,6.8227978 0 0 1 6.9934,-6.647477 6.8227439,6.8227978 0 0 1 6.64771,6.993185 6.8227439,6.8227978 0 0 1 -6.99286,6.648045 6.8227439,6.8227978 0 0 1 -6.64828,-6.992646"
   transform="rotate(-90)" /><path
   id="path20"
   sodipodi:arc-type="arc"
   sodipodi:cx="-324.03839"
   sodipodi:cy="26.291237"
   sodipodi:end="3.1668084"
   sodipodi:open="true"
   sodipodi:rx="6.8227439"
   sodipodi:ry="6.8227978"
   sodipodi:start="3.1669708"
   sodipodi:type="arc"
   class="st2"
   d="m -330.85894,26.118106 a 6.8227439,6.8227978 0 0 1 6.9934,-6.647477 6.8227439,6.8227978 0 0 1 6.64771,6.993185 6.8227439,6.8227978 0 0 1 -6.99286,6.648045 6.8227439,6.8227978 0 0 1 -6.64828,-6.992646"
   transform="rotate(-90)" /><path
   id="path21"
   sodipodi:arc-type="arc"
   sodipodi:cx="-448.86536"
   sodipodi:cy="26.291237"
   sodipodi:end="3.1668084"
   sodipodi:open="true"
   sodipodi:rx="6.8227439"
   sodipodi:ry="6.8227978"
   sodipodi:start="3.1669708"
   sodipodi:type="arc"
   class="st2"
   d="m -455.6859,26.118106 a 6.8227439,6.8227978 0 0 1 6.9934,-6.647477 6.8227439,6.8227978 0 0 1 6.6477,6.993185 6.8227439,6.8227978 0 0 1 -6.99286,6.648045 6.8227439,6.8227978 0 0 1 -6.64827,-6.992646"
   transform="rotate(-90)" /><path
   id="path22"
   sodipodi:arc-type="arc"
   sodipodi:cx="-266.21173"
   sodipodi:cy="26.291237"
   sodipodi:end="3.1668084"
   sodipodi:open="true"
   sodipodi:rx="6.8227439"
   sodipodi:ry="6.8227978"
   sodipodi:start="3.1669708"
   sodipodi:type="arc"
   class="st2"
   d="m -273.03228,26.118106 a 6.8227439,6.8227978 0 0 1 6.9934,-6.647477 6.8227439,6.8227978 0 0 1 6.64771,6.993185 6.8227439,6.8227978 0 0 1 -6.99286,6.648045 6.8227439,6.8227978 0 0 1 -6.64828,-6.992646"
   transform="rotate(-90)" /><path
   id="path23"
   sodipodi:arc-type="arc"
   sodipodi:cx="-615.7373"
   sodipodi:cy="25.672096"
   sodipodi:end="3.1668084"
   sodipodi:open="true"
   sodipodi:rx="6.8227439"
   sodipodi:ry="6.8227978"
   sodipodi:start="3.1669708"
   sodipodi:type="arc"
   class="st2"
   d="m -622.55785,25.498965 a 6.8227439,6.8227978 0 0 1 6.9934,-6.647477 6.8227439,6.8227978 0 0 1 6.64771,6.993186 6.8227439,6.8227978 0 0 1 -6.99286,6.648044 6.8227439,6.8227978 0 0 1 -6.64828,-6.992645"
   transform="rotate(-90)" /><path
   id="path24"
   sodipodi:arc-type="arc"
   sodipodi:cx="-558.0744"
   sodipodi:cy="25.672096"
   sodipodi:end="3.1668084"
   sodipodi:open="true"
   sodipodi:rx="6.8227439"
   sodipodi:ry="6.8227978"
   sodipodi:start="3.1669708"
   sodipodi:type="arc"
   class="st2"
   d="m -564.89495,25.498965 a 6.8227439,6.8227978 0 0 1 6.9934,-6.647477 6.8227439,6.8227978 0 0 1 6.64771,6.993186 6.8227439,6.8227978 0 0 1 -6.99286,6.648044 6.8227439,6.8227978 0 0 1 -6.64828,-6.992645"
   transform="rotate(-90)" /><path
   id="path25"
   sodipodi:arc-type="arc"
   sodipodi:cx="-682.90137"
   sodipodi:cy="25.672096"
   sodipodi:end="3.1668084"
   sodipodi:open="true"
   sodipodi:rx="6.8227439"
   sodipodi:ry="6.8227978"
   sodipodi:start="3.1669708"
   sodipodi:type="arc"
   class="st2"
   d="m -689.72191,25.498965 a 6.8227439,6.8227978 0 0 1 6.9934,-6.647477 6.8227439,6.8227978 0 0 1 6.6477,6.993186 6.8227439,6.8227978 0 0 1 -6.99286,6.648044 6.8227439,6.8227978 0 0 1 -6.64827,-6.992645"
   transform="rotate(-90)" /><path
   id="path26"
   sodipodi:arc-type="arc"
   sodipodi:cx="-500.24774"
   sodipodi:cy="25.672096"
   sodipodi:end="3.1668084"
   sodipodi:open="true"
   sodipodi:rx="6.8227439"
   sodipodi:ry="6.8227978"
   sodipodi:start="3.1669708"
   sodipodi:type="arc"
   class="st2"
   d="m -507.06829,25.498965 a 6.8227439,6.8227978 0 0 1 6.9934,-6.647477 6.8227439,6.8227978 0 0 1 6.64771,6.993186 6.8227439,6.8227978 0 0 1 -6.99286,6.648044 6.8227439,6.8227978 0 0 1 -6.64828,-6.992645"
   transform="rotate(-90)" /><path
   id="path27"
   sodipodi:arc-type="arc"
   sodipodi:cx="-615.7373"
   sodipodi:cy="25.672096"
   sodipodi:end="3.1668084"
   sodipodi:open="true"
   sodipodi:rx="6.8227439"
   sodipodi:ry="6.8227978"
   sodipodi:start="3.1669708"
   sodipodi:type="arc"
   class="st2"
   d="m -622.55785,25.498965 a 6.8227439,6.8227978 0 0 1 6.9934,-6.647477 6.8227439,6.8227978 0 0 1 6.64771,6.993186 6.8227439,6.8227978 0 0 1 -6.99286,6.648044 6.8227439,6.8227978 0 0 1 -6.64828,-6.992645"
   transform="rotate(-90)" /><path
   id="path28"
   sodipodi:arc-type="arc"
   sodipodi:cx="-558.0744"
   sodipodi:cy="25.672096"
   sodipodi:end="3.1668084"
   sodipodi:open="true"
   sodipodi:rx="6.8227439"
   sodipodi:ry="6.8227978"
   sodipodi:start="3.1669708"
   sodipodi:type="arc"
   class="st2"
   d="m -564.89495,25.498965 a 6.8227439,6.8227978 0 0 1 6.9934,-6.647477 6.8227439,6.8227978 0 0 1 6.64771,6.993186 6.8227439,6.8227978 0 0 1 -6.99286,6.648044 6.8227439,6.8227978 0 0 1 -6.64828,-6.992645"
   transform="rotate(-90)" /><path
   id="path29"
   sodipodi:arc-type="arc"
   sodipodi:cx="-682.90137"
   sodipodi:cy="25.672096"
   sodipodi:end="3.1668084"
   sodipodi:open="true"
   sodipodi:rx="6.8227439"
   sodipodi:ry="6.8227978"
   sodipodi:start="3.1669708"
   sodipodi:type="arc"
   class="st2"
   d="m -689.72191,25.498965 a 6.8227439,6.8227978 0 0 1 6.9934,-6.647477 6.8227439,6.8227978 0 0 1 6.6477,6.993186 6.8227439,6.8227978 0 0 1 -6.99286,6.648044 6.8227439,6.8227978 0 0 1 -6.64827,-6.992645"
   transform="rotate(-90)" /><path
   id="path30"
   sodipodi:arc-type="arc"
   sodipodi:cx="-500.24774"
   sodipodi:cy="25.672096"
   sodipodi:end="3.1668084"
   sodipodi:open="true"
   sodipodi:rx="6.8227439"
   sodipodi:ry="6.8227978"
   sodipodi:start="3.1669708"
   sodipodi:type="arc"
   class="st2"
   d="m -507.06829,25.498965 a 6.8227439,6.8227978 0 0 1 6.9934,-6.647477 6.8227439,6.8227978 0 0 1 6.64771,6.993186 6.8227439,6.8227978 0 0 1 -6.99286,6.648044 6.8227439,6.8227978 0 0 1 -6.64828,-6.992645"
   transform="rotate(-90)" /><path
   id="path31"
   sodipodi:arc-type="arc"
   sodipodi:cx="-135.28236"
   sodipodi:cy="195.31726"
   sodipodi:end="3.1668084"
   sodipodi:open="true"
   sodipodi:rx="6.8227439"
   sodipodi:ry="6.8227978"
   sodipodi:start="3.1669708"
   sodipodi:type="arc"
   class="st2"
   d="m -142.10291,195.14413 a 6.8227439,6.8227978 0 0 1 6.9934,-6.64748 6.8227439,6.8227978 0 0 1 6.64771,6.99319 6.8227439,6.8227978 0 0 1 -6.99286,6.64804 6.8227439,6.8227978 0 0 1 -6.64828,-6.99264"
   transform="rotate(-90)" /><path
   id="path32"
   sodipodi:arc-type="arc"
   sodipodi:cx="-77.619492"
   sodipodi:cy="195.31726"
   sodipodi:end="3.1668084"
   sodipodi:open="true"
   sodipodi:rx="6.8227439"
   sodipodi:ry="6.8227978"
   sodipodi:start="3.1669708"
   sodipodi:type="arc"
   class="st2"
   d="m -84.440038,195.14413 a 6.8227439,6.8227978 0 0 1 6.9934,-6.64748 6.8227439,6.8227978 0 0 1 6.647707,6.99319 6.8227439,6.8227978 0 0 1 -6.99286,6.64804 6.8227439,6.8227978 0 0 1 -6.648276,-6.99264"
   transform="rotate(-90)" /><path
   id="path33"
   sodipodi:arc-type="arc"
   sodipodi:cx="-202.44646"
   sodipodi:cy="195.31726"
   sodipodi:end="3.1668084"
   sodipodi:open="true"
   sodipodi:rx="6.8227439"
   sodipodi:ry="6.8227978"
   sodipodi:start="3.1669708"
   sodipodi:type="arc"
   class="st2"
   d="m -209.267,195.14413 a 6.8227439,6.8227978 0 0 1 6.9934,-6.64748 6.8227439,6.8227978 0 0 1 6.6477,6.99319 6.8227439,6.8227978 0 0 1 -6.99286,6.64804 6.8227439,6.8227978 0 0 1 -6.64827,-6.99264"
   transform="rotate(-90)" /><path
   id="path34"
   sodipodi:arc-type="arc"
   sodipodi:cx="-19.792816"
   sodipodi:cy="195.31726"
   sodipodi:end="3.1668084"
   sodipodi:open="true"
   sodipodi:rx="6.8227439"
   sodipodi:ry="6.8227978"
   sodipodi:start="3.1669708"
   sodipodi:type="arc"
   class="st2"
   d="m -26.613363,195.14413 a 6.8227439,6.8227978 0 0 1 6.9934,-6.64748 6.8227439,6.8227978 0 0 1 6.647708,6.99319 6.8227439,6.8227978 0 0 1 -6.99286,6.64804 6.8227439,6.8227978 0 0 1 -6.648276,-6.99264"
   transform="rotate(-90)" /><path
   id="path35"
   sodipodi:arc-type="arc"
   sodipodi:cx="-377.98639"
   sodipodi:cy="195.31726"
   sodipodi:end="3.1668084"
   sodipodi:open="true"
   sodipodi:rx="6.8227439"
   sodipodi:ry="6.8227978"
   sodipodi:start="3.1669708"
   sodipodi:type="arc"
   class="st2"
   d="m -384.80694,195.14413 a 6.8227439,6.8227978 0 0 1 6.9934,-6.64748 6.8227439,6.8227978 0 0 1 6.64771,6.99319 6.8227439,6.8227978 0 0 1 -6.99286,6.64804 6.8227439,6.8227978 0 0 1 -6.64827,-6.99264"
   transform="rotate(-90)" /><path
   id="path36"
   sodipodi:arc-type="arc"
   sodipodi:cx="-320.32355"
   sodipodi:cy="195.31726"
   sodipodi:end="3.1668084"
   sodipodi:open="true"
   sodipodi:rx="6.8227439"
   sodipodi:ry="6.8227978"
   sodipodi:start="3.1669708"
   sodipodi:type="arc"
   class="st2"
   d="m -327.14409,195.14413 a 6.8227439,6.8227978 0 0 1 6.9934,-6.64748 6.8227439,6.8227978 0 0 1 6.6477,6.99319 6.8227439,6.8227978 0 0 1 -6.99286,6.64804 6.8227439,6.8227978 0 0 1 -6.64827,-6.99264"
   transform="rotate(-90)" /><path
   id="path37"
   sodipodi:arc-type="arc"
   sodipodi:cx="-445.15051"
   sodipodi:cy="195.31726"
   sodipodi:end="3.1668084"
   sodipodi:open="true"
   sodipodi:rx="6.8227439"
   sodipodi:ry="6.8227978"
   sodipodi:start="3.1669708"
   sodipodi:type="arc"
   class="st2"
   d="m -451.97106,195.14413 a 6.8227439,6.8227978 0 0 1 6.9934,-6.64748 6.8227439,6.8227978 0 0 1 6.64771,6.99319 6.8227439,6.8227978 0 0 1 -6.99286,6.64804 6.8227439,6.8227978 0 0 1 -6.64828,-6.99264"
   transform="rotate(-90)" /><path
   id="path38"
   sodipodi:arc-type="arc"
   sodipodi:cx="-262.49689"
   sodipodi:cy="195.31726"
   sodipodi:end="3.1668084"
   sodipodi:open="true"
   sodipodi:rx="6.8227439"
   sodipodi:ry="6.8227978"
   sodipodi:start="3.1669708"
   sodipodi:type="arc"
   class="st2"
   d="m -269.31743,195.14413 a 6.8227439,6.8227978 0 0 1 6.9934,-6.64748 6.8227439,6.8227978 0 0 1 6.6477,6.99319 6.8227439,6.8227978 0 0 1 -6.99286,6.64804 6.8227439,6.8227978 0 0 1 -6.64827,-6.99264"
   transform="rotate(-90)" /><path
   id="path39"
   sodipodi:arc-type="arc"
   sodipodi:cx="-612.02246"
   sodipodi:cy="194.69812"
   sodipodi:end="3.1668084"
   sodipodi:open="true"
   sodipodi:rx="6.8227439"
   sodipodi:ry="6.8227978"
   sodipodi:start="3.1669708"
   sodipodi:type="arc"
   class="st2"
   d="m -618.84301,194.52499 a 6.8227439,6.8227978 0 0 1 6.9934,-6.64748 6.8227439,6.8227978 0 0 1 6.64771,6.99319 6.8227439,6.8227978 0 0 1 -6.99286,6.64804 6.8227439,6.8227978 0 0 1 -6.64828,-6.99264"
   transform="rotate(-90)" /><path
   id="path40"
   sodipodi:arc-type="arc"
   sodipodi:cx="-554.35956"
   sodipodi:cy="194.69812"
   sodipodi:end="3.1668084"
   sodipodi:open="true"
   sodipodi:rx="6.8227439"
   sodipodi:ry="6.8227978"
   sodipodi:start="3.1669708"
   sodipodi:type="arc"
   class="st2"
   d="m -561.18011,194.52499 a 6.8227439,6.8227978 0 0 1 6.9934,-6.64748 6.8227439,6.8227978 0 0 1 6.64771,6.99319 6.8227439,6.8227978 0 0 1 -6.99286,6.64804 6.8227439,6.8227978 0 0 1 -6.64827,-6.99264"
   transform="rotate(-90)" /><path
   id="path41"
   sodipodi:arc-type="arc"
   sodipodi:cx="-679.18652"
   sodipodi:cy="194.69812"
   sodipodi:end="3.1668084"
   sodipodi:open="true"
   sodipodi:rx="6.8227439"
   sodipodi:ry="6.8227978"
   sodipodi:start="3.1669708"
   sodipodi:type="arc"
   class="st2"
   d="m -686.00707,194.52499 a 6.8227439,6.8227978 0 0 1 6.9934,-6.64748 6.8227439,6.8227978 0 0 1 6.64771,6.99319 6.8227439,6.8227978 0 0 1 -6.99286,6.64804 6.8227439,6.8227978 0 0 1 -6.64828,-6.99264"
   transform="rotate(-90)" /><path
   id="path42"
   sodipodi:arc-type="arc"
   sodipodi:cx="-496.5329"
   sodipodi:cy="194.69812"
   sodipodi:end="3.1668084"
   sodipodi:open="true"
   sodipodi:rx="6.8227439"
   sodipodi:ry="6.8227978"
   sodipodi:start="3.1669708"
   sodipodi:type="arc"
   class="st2"
   d="m -503.35344,194.52499 a 6.8227439,6.8227978 0 0 1 6.9934,-6.64748 6.8227439,6.8227978 0 0 1 6.6477,6.99319 6.8227439,6.8227978 0 0 1 -6.99286,6.64804 6.8227439,6.8227978 0 0 1 -6.64827,-6.99264"
   transform="rotate(-90)" /></svg>
