<?xml version="1.0" encoding="UTF-8" standalone="no"?>
<!-- Created with Inkscape (http://www.inkscape.org/) -->

<svg
   width="210mm"
   height="297mm"
   viewBox="0 0 210 297"
   version="1.1"
   id="svg1"
   xml:space="preserve"
   inkscape:version="1.3 (0e150ed6c4, 2023-07-21)"
   sodipodi:docname="Small_Bridge.svg"
   inkscape:export-filename="Small_Bridge.svg"
   inkscape:export-xdpi="96"
   inkscape:export-ydpi="96"
   xmlns:inkscape="http://www.inkscape.org/namespaces/inkscape"
   xmlns:sodipodi="http://sodipodi.sourceforge.net/DTD/sodipodi-0.dtd"
   xmlns:xlink="http://www.w3.org/1999/xlink"
   xmlns="http://www.w3.org/2000/svg"
   xmlns:svg="http://www.w3.org/2000/svg"><sodipodi:namedview
     id="namedview1"
     pagecolor="#ffffff"
     bordercolor="#000000"
     borderopacity="0.25"
     inkscape:showpageshadow="2"
     inkscape:pageopacity="0.0"
     inkscape:pagecheckerboard="0"
     inkscape:deskcolor="#d1d1d1"
     inkscape:document-units="mm"
     inkscape:zoom="0.57103676"
     inkscape:cx="571.76704"
     inkscape:cy="-147.97646"
     inkscape:window-width="1600"
     inkscape:window-height="837"
     inkscape:window-x="-8"
     inkscape:window-y="-8"
     inkscape:window-maximized="1"
     inkscape:current-layer="layer1" /><defs
     id="defs1"><pattern
       inkscape:collect="always"
       xlink:href="#Strips1_5"
       preserveAspectRatio="xMidYMid"
       id="pattern21"
       patternTransform="matrix(2.011,0,0,2.011,15.290172,-174.67863)"
       x="2.5"
       y="0" /><pattern
       inkscape:collect="always"
       patternUnits="userSpaceOnUse"
       width="6"
       height="1"
       patternTransform="translate(0,0) scale(2,2)"
       preserveAspectRatio="xMidYMid"
       id="Strips1_5"
       style="fill:#58310e"
       inkscape:stockid="Stripes 06 (1:5)"
       inkscape:isstock="true"
       inkscape:label="Stripes 06 (1:5)">&#10;      <rect
   style="stroke:none"
   x="0"
   y="-0.5"
   width="1"
   height="2"
   id="rect164" />&#10;    </pattern></defs><g
     inkscape:label="Layer 1"
     inkscape:groupmode="layer"
     id="layer1"><rect
       style="fill:#8d4c25;fill-opacity:1;stroke:#58310e;stroke-width:3.65997;stroke-linejoin:round;stroke-dasharray:none;stroke-opacity:1"
       id="rect19"
       width="248.76096"
       height="75.715027"
       x="23.606895"
       y="-166.27127" /><rect
       style="fill:url(#pattern21);fill-opacity:1;stroke:#58310e;stroke-width:3.6614;stroke-linejoin:round;stroke-dasharray:none;stroke-opacity:1"
       id="rect1"
       width="248.99097"
       height="75.713593"
       x="23.37607"
       y="-166.27045" /><path
       style="fill:#8d4c25;fill-opacity:1;stroke:#58310e;stroke-width:2.22952;stroke-linejoin:round;stroke-dasharray:none;stroke-opacity:1"
       id="path2"
       sodipodi:type="arc"
       sodipodi:cx="23.24781"
       sodipodi:cy="-166.74104"
       sodipodi:rx="6.8227439"
       sodipodi:ry="6.8227978"
       sodipodi:start="3.1669708"
       sodipodi:end="3.1668084"
       sodipodi:open="true"
       sodipodi:arc-type="arc"
       d="m 16.427263,-166.91417 a 6.8227439,6.8227978 0 0 1 6.9934,-6.64748 6.8227439,6.8227978 0 0 1 6.647708,6.99318 6.8227439,6.8227978 0 0 1 -6.99286,6.64805 6.8227439,6.8227978 0 0 1 -6.648276,-6.99265" /><path
       style="fill:#8d4c25;fill-opacity:1;stroke:#58310e;stroke-width:2.22952;stroke-linejoin:round;stroke-dasharray:none;stroke-opacity:1"
       id="path10"
       sodipodi:type="arc"
       sodipodi:cx="90.411919"
       sodipodi:cy="-166.74104"
       sodipodi:rx="6.8227439"
       sodipodi:ry="6.8227978"
       sodipodi:start="3.1669708"
       sodipodi:end="3.1668084"
       sodipodi:open="true"
       sodipodi:arc-type="arc"
       d="m 83.591372,-166.91417 a 6.8227439,6.8227978 0 0 1 6.9934,-6.64748 6.8227439,6.8227978 0 0 1 6.647708,6.99318 6.8227439,6.8227978 0 0 1 -6.992861,6.64805 6.8227439,6.8227978 0 0 1 -6.648275,-6.99265" /><path
       style="fill:#8d4c25;fill-opacity:1;stroke:#58310e;stroke-width:2.22952;stroke-linejoin:round;stroke-dasharray:none;stroke-opacity:1"
       id="path11"
       sodipodi:type="arc"
       sodipodi:cx="148.07477"
       sodipodi:cy="-166.74104"
       sodipodi:rx="6.8227439"
       sodipodi:ry="6.8227978"
       sodipodi:start="3.1669708"
       sodipodi:end="3.1668084"
       sodipodi:open="true"
       sodipodi:arc-type="arc"
       d="m 141.25422,-166.91417 a 6.8227439,6.8227978 0 0 1 6.9934,-6.64748 6.8227439,6.8227978 0 0 1 6.64771,6.99318 6.8227439,6.8227978 0 0 1 -6.99286,6.64805 6.8227439,6.8227978 0 0 1 -6.64828,-6.99265" /><path
       style="fill:#8d4c25;fill-opacity:1;stroke:#58310e;stroke-width:2.22952;stroke-linejoin:round;stroke-dasharray:none;stroke-opacity:1"
       id="path12"
       sodipodi:type="arc"
       sodipodi:cx="205.90144"
       sodipodi:cy="-166.74104"
       sodipodi:rx="6.8227439"
       sodipodi:ry="6.8227978"
       sodipodi:start="3.1669708"
       sodipodi:end="3.1668084"
       sodipodi:open="true"
       sodipodi:arc-type="arc"
       d="m 199.0809,-166.91417 a 6.8227439,6.8227978 0 0 1 6.9934,-6.64748 6.8227439,6.8227978 0 0 1 6.6477,6.99318 6.8227439,6.8227978 0 0 1 -6.99286,6.64805 6.8227439,6.8227978 0 0 1 -6.64827,-6.99265" /><rect
       style="fill:#8d4c25;fill-opacity:1;stroke:#58310e;stroke-width:2.11667;stroke-linejoin:round;stroke-dasharray:none;stroke-opacity:1"
       id="rect13"
       width="248.01576"
       height="2.6210384"
       x="23.631927"
       y="-158.77666" /><rect
       style="fill:#8d4c25;fill-opacity:1;stroke:#58310e;stroke-width:2.11667;stroke-linejoin:round;stroke-dasharray:none;stroke-opacity:1"
       id="rect18"
       width="248.01576"
       height="2.6210384"
       x="-271.55521"
       y="99.303154"
       transform="scale(-1)" /><path
       style="fill:#8d4c25;fill-opacity:1;stroke:#58310e;stroke-width:2.22952;stroke-linejoin:round;stroke-dasharray:none;stroke-opacity:1"
       id="path1"
       sodipodi:type="arc"
       sodipodi:cx="271.9249"
       sodipodi:cy="-166.74104"
       sodipodi:rx="6.8227439"
       sodipodi:ry="6.8227978"
       sodipodi:start="3.1669708"
       sodipodi:end="3.1668084"
       sodipodi:open="true"
       sodipodi:arc-type="arc"
       d="m 265.10435,-166.91417 a 6.8227439,6.8227978 0 0 1 6.9934,-6.64748 6.8227439,6.8227978 0 0 1 6.64771,6.99318 6.8227439,6.8227978 0 0 1 -6.99286,6.64805 6.8227439,6.8227978 0 0 1 -6.64828,-6.99265" /><path
       style="fill:#8d4c25;fill-opacity:1;stroke:#58310e;stroke-width:2.22952;stroke-linejoin:round;stroke-dasharray:none;stroke-opacity:1"
       id="path4"
       sodipodi:type="arc"
       sodipodi:cx="148.07477"
       sodipodi:cy="-91.386185"
       sodipodi:rx="6.8227439"
       sodipodi:ry="6.8227978"
       sodipodi:start="3.1669708"
       sodipodi:end="3.1668084"
       sodipodi:open="true"
       sodipodi:arc-type="arc"
       d="m 141.25422,-91.559316 a 6.8227439,6.8227978 0 0 1 6.9934,-6.647476 6.8227439,6.8227978 0 0 1 6.64771,6.993185 6.8227439,6.8227978 0 0 1 -6.99286,6.648044 6.8227439,6.8227978 0 0 1 -6.64828,-6.992645" /><path
       style="fill:#8d4c25;fill-opacity:1;stroke:#58310e;stroke-width:2.22952;stroke-linejoin:round;stroke-dasharray:none;stroke-opacity:1"
       id="path5"
       sodipodi:type="arc"
       sodipodi:cx="90.411919"
       sodipodi:cy="-91.448532"
       sodipodi:rx="6.8227439"
       sodipodi:ry="6.8227978"
       sodipodi:start="3.1669708"
       sodipodi:end="3.1668084"
       sodipodi:open="true"
       sodipodi:arc-type="arc"
       d="m 83.591372,-91.621663 a 6.8227439,6.8227978 0 0 1 6.9934,-6.647477 6.8227439,6.8227978 0 0 1 6.647708,6.993185 6.8227439,6.8227978 0 0 1 -6.992861,6.648045 6.8227439,6.8227978 0 0 1 -6.648275,-6.992646" /><path
       style="fill:#8d4c25;fill-opacity:1;stroke:#58310e;stroke-width:2.22952;stroke-linejoin:round;stroke-dasharray:none;stroke-opacity:1"
       id="path6"
       sodipodi:type="arc"
       sodipodi:cx="205.90144"
       sodipodi:cy="-91.134644"
       sodipodi:rx="6.8227439"
       sodipodi:ry="6.8227978"
       sodipodi:start="3.1669708"
       sodipodi:end="3.1668084"
       sodipodi:open="true"
       sodipodi:arc-type="arc"
       d="m 199.0809,-91.307775 a 6.8227439,6.8227978 0 0 1 6.9934,-6.647476 6.8227439,6.8227978 0 0 1 6.6477,6.993185 6.8227439,6.8227978 0 0 1 -6.99286,6.648044 6.8227439,6.8227978 0 0 1 -6.64827,-6.992645" /><path
       style="fill:#8d4c25;fill-opacity:1;stroke:#58310e;stroke-width:2.22952;stroke-linejoin:round;stroke-dasharray:none;stroke-opacity:1"
       id="path7"
       sodipodi:type="arc"
       sodipodi:cx="271.9249"
       sodipodi:cy="-91.713814"
       sodipodi:rx="6.8227439"
       sodipodi:ry="6.8227978"
       sodipodi:start="3.1669708"
       sodipodi:end="3.1668084"
       sodipodi:open="true"
       sodipodi:arc-type="arc"
       d="m 265.10435,-91.886945 a 6.8227439,6.8227978 0 0 1 6.9934,-6.647477 6.8227439,6.8227978 0 0 1 6.64771,6.993186 6.8227439,6.8227978 0 0 1 -6.99286,6.648044 6.8227439,6.8227978 0 0 1 -6.64828,-6.992645" /><path
       style="fill:#8d4c25;fill-opacity:1;stroke:#58310e;stroke-width:2.22952;stroke-linejoin:round;stroke-dasharray:none;stroke-opacity:1"
       id="path8"
       sodipodi:type="arc"
       sodipodi:cx="23.24781"
       sodipodi:cy="-91.058556"
       sodipodi:rx="6.8227439"
       sodipodi:ry="6.8227978"
       sodipodi:start="3.1669708"
       sodipodi:end="3.1668084"
       sodipodi:open="true"
       sodipodi:arc-type="arc"
       d="m 16.427263,-91.231687 a 6.8227439,6.8227978 0 0 1 6.9934,-6.647476 6.8227439,6.8227978 0 0 1 6.647708,6.993185 6.8227439,6.8227978 0 0 1 -6.99286,6.648044 6.8227439,6.8227978 0 0 1 -6.648276,-6.992645" /></g></svg>
